solid OpenSCAD_Model
  facet normal -1 0 0
    outer loop
      vertex 13 45.5 6
      vertex 13 59.5 23
      vertex 13 59.5 6
    endloop
  endfacet
  facet normal -1 -0 0
    outer loop
      vertex 13 59.5 23
      vertex 13 45.5 6
      vertex 13 45.5 23
    endloop
  endfacet
  facet normal 0 0 -1
    outer loop
      vertex 31 45.5 16
      vertex 29.2667 50 16
      vertex 31 53.5 16
    endloop
  endfacet
  facet normal 0 0 -1
    outer loop
      vertex 31 45.5 16
      vertex 28.1333 48.037 16
      vertex 29.2667 50 16
    endloop
  endfacet
  facet normal 0 0 -1
    outer loop
      vertex 31 45.5 16
      vertex 27.6333 47.171 16
      vertex 28.1333 48.037 16
    endloop
  endfacet
  facet normal 0 0 -1
    outer loop
      vertex 31 45.5 16
      vertex 24.3667 47.171 16
      vertex 27.6333 47.171 16
    endloop
  endfacet
  facet normal 0 0 -1
    outer loop
      vertex 21 45.5 16
      vertex 23.2333 49.134 16
      vertex 24.3667 47.171 16
    endloop
  endfacet
  facet normal -0 0 -1
    outer loop
      vertex 23.2333 49.134 16
      vertex 21 45.5 16
      vertex 22.7333 50 16
    endloop
  endfacet
  facet normal 0 0 -1
    outer loop
      vertex 21 45.5 16
      vertex 24.3667 47.171 16
      vertex 31 45.5 16
    endloop
  endfacet
  facet normal 0 0 -1
    outer loop
      vertex 28.1333 51.963 16
      vertex 31 53.5 16
      vertex 29.2667 50 16
    endloop
  endfacet
  facet normal 0 0 -1
    outer loop
      vertex 27.6333 52.829 16
      vertex 31 53.5 16
      vertex 28.1333 51.963 16
    endloop
  endfacet
  facet normal 0 0 -1
    outer loop
      vertex 24.3667 52.829 16
      vertex 31 53.5 16
      vertex 27.6333 52.829 16
    endloop
  endfacet
  facet normal 0 0 -1
    outer loop
      vertex 21 53.5 16
      vertex 23.8667 51.963 16
      vertex 22.7333 50 16
    endloop
  endfacet
  facet normal 0 0 -1
    outer loop
      vertex 24.3667 52.829 16
      vertex 21 53.5 16
      vertex 31 53.5 16
    endloop
  endfacet
  facet normal 0 0 -1
    outer loop
      vertex 23.8667 51.963 16
      vertex 21 53.5 16
      vertex 24.3667 52.829 16
    endloop
  endfacet
  facet normal 0 0 -1
    outer loop
      vertex 21 53.5 16
      vertex 22.7333 50 16
      vertex 21 45.5 16
    endloop
  endfacet
  facet normal 1 -0 0
    outer loop
      vertex 39 45.5 23
      vertex 39 59.5 6
      vertex 39 59.5 23
    endloop
  endfacet
  facet normal 1 0 0
    outer loop
      vertex 39 59.5 6
      vertex 39 45.5 23
      vertex 39 45.5 6
    endloop
  endfacet
  facet normal 0 0 1
    outer loop
      vertex -55.75 44.5 6
      vertex -71 39.5 6
      vertex -69 37.5 6
    endloop
  endfacet
  facet normal 0 0 1
    outer loop
      vertex -56.25 59.5 6
      vertex -86 39.5 6
      vertex -71 39.5 6
    endloop
  endfacet
  facet normal 0 0 1
    outer loop
      vertex -86.25 39.5 6
      vertex -86 39.5 6
      vertex -56.25 59.5 6
    endloop
  endfacet
  facet normal -0 0 1
    outer loop
      vertex -86.25 39.5 6
      vertex -86 24.5 6
      vertex -86 39.5 6
    endloop
  endfacet
  facet normal 0 0 1
    outer loop
      vertex -86 24.5 6
      vertex -86.25 39.5 6
      vertex -86.25 24.5 6
    endloop
  endfacet
  facet normal 0 0 1
    outer loop
      vertex -39 59.5 6
      vertex -48.5 50.45 6
      vertex -39 45.5 6
    endloop
  endfacet
  facet normal 0 0 1
    outer loop
      vertex -39 59.5 6
      vertex -49.0729 52.2134 6
      vertex -48.5 50.45 6
    endloop
  endfacet
  facet normal 0 0 1
    outer loop
      vertex -39 59.5 6
      vertex -50.5729 53.3032 6
      vertex -49.0729 52.2134 6
    endloop
  endfacet
  facet normal -0 0 1
    outer loop
      vertex -56.25 59.5 6
      vertex -50.5729 53.3032 6
      vertex -39 59.5 6
    endloop
  endfacet
  facet normal 0 0 1
    outer loop
      vertex -50.5729 53.3032 6
      vertex -56.25 59.5 6
      vertex -52.4271 53.3032 6
    endloop
  endfacet
  facet normal 0 0 1
    outer loop
      vertex -56.25 59.5 6
      vertex -53.9271 52.2134 6
      vertex -52.4271 53.3032 6
    endloop
  endfacet
  facet normal 0 0 1
    outer loop
      vertex -56.25 59.5 6
      vertex -54.5 50.45 6
      vertex -53.9271 52.2134 6
    endloop
  endfacet
  facet normal 0 0 1
    outer loop
      vertex -71 39.5 6
      vertex -54.5 50.45 6
      vertex -56.25 59.5 6
    endloop
  endfacet
  facet normal 0 0 1
    outer loop
      vertex -71 39.5 6
      vertex -55.75 44.5 6
      vertex -54.5 50.45 6
    endloop
  endfacet
  facet normal 0 0 1
    outer loop
      vertex -55.75 44.5 6
      vertex -69 37.5 6
      vertex -69 35.6667 6
    endloop
  endfacet
  facet normal 0 0 1
    outer loop
      vertex -21 53.5 6
      vertex -31 53.5 6
      vertex -21 45.5 6
    endloop
  endfacet
  facet normal 0 0 1
    outer loop
      vertex -69 37.5 6
      vertex -71 39.5 6
      vertex -71 37.5 6
    endloop
  endfacet
  facet normal 0 0 1
    outer loop
      vertex 13 59.5 6
      vertex 3 50.45 6
      vertex 13 45.5 6
    endloop
  endfacet
  facet normal 0 0 1
    outer loop
      vertex 13 59.5 6
      vertex 2.42705 52.2134 6
      vertex 3 50.45 6
    endloop
  endfacet
  facet normal 0 0 1
    outer loop
      vertex 13 59.5 6
      vertex 0.927051 53.3032 6
      vertex 2.42705 52.2134 6
    endloop
  endfacet
  facet normal 0 0 1
    outer loop
      vertex 13 59.5 6
      vertex -0.927051 53.3032 6
      vertex 0.927051 53.3032 6
    endloop
  endfacet
  facet normal 0 0 1
    outer loop
      vertex -2.42705 52.2134 6
      vertex -13 59.5 6
      vertex -3 50.45 6
    endloop
  endfacet
  facet normal 0 0 1
    outer loop
      vertex -0.927051 53.3032 6
      vertex -13 59.5 6
      vertex -2.42705 52.2134 6
    endloop
  endfacet
  facet normal -0 0 1
    outer loop
      vertex -13 59.5 6
      vertex -0.927051 53.3032 6
      vertex 13 59.5 6
    endloop
  endfacet
  facet normal 0 0 1
    outer loop
      vertex 31 53.5 6
      vertex 21 53.5 6
      vertex 31 45.5 6
    endloop
  endfacet
  facet normal 0 0 1
    outer loop
      vertex 56 59.5 6
      vertex 54.5 50.45 6
      vertex 56 44.5 6
    endloop
  endfacet
  facet normal 0 0 1
    outer loop
      vertex 56 59.5 6
      vertex 53.9271 52.2134 6
      vertex 54.5 50.45 6
    endloop
  endfacet
  facet normal 0 0 1
    outer loop
      vertex 56 59.5 6
      vertex 52.4271 53.3032 6
      vertex 53.9271 52.2134 6
    endloop
  endfacet
  facet normal 0 0 1
    outer loop
      vertex 56 59.5 6
      vertex 50.5729 53.3032 6
      vertex 52.4271 53.3032 6
    endloop
  endfacet
  facet normal -0 0 1
    outer loop
      vertex 39 59.5 6
      vertex 50.5729 53.3032 6
      vertex 56 59.5 6
    endloop
  endfacet
  facet normal 0 0 1
    outer loop
      vertex 49.0729 52.2134 6
      vertex 39 59.5 6
      vertex 48.5 50.45 6
    endloop
  endfacet
  facet normal 0 0 1
    outer loop
      vertex 50.5729 53.3032 6
      vertex 39 59.5 6
      vertex 49.0729 52.2134 6
    endloop
  endfacet
  facet normal -0 0 1
    outer loop
      vertex 53.9271 48.6866 6
      vertex 56 44.5 6
      vertex 54.5 50.45 6
    endloop
  endfacet
  facet normal -0 0 1
    outer loop
      vertex 52.4271 47.5968 6
      vertex 56 44.5 6
      vertex 53.9271 48.6866 6
    endloop
  endfacet
  facet normal -0 0 1
    outer loop
      vertex 50.5729 47.5968 6
      vertex 56 44.5 6
      vertex 52.4271 47.5968 6
    endloop
  endfacet
  facet normal 0 0 1
    outer loop
      vertex 39 45.5 6
      vertex 48.5 50.45 6
      vertex 39 59.5 6
    endloop
  endfacet
  facet normal 0 0 1
    outer loop
      vertex 48.5 50.45 6
      vertex 39 45.5 6
      vertex 49.0729 48.6866 6
    endloop
  endfacet
  facet normal 0 0 1
    outer loop
      vertex 39 45.5 6
      vertex 50.5729 47.5968 6
      vertex 49.0729 48.6866 6
    endloop
  endfacet
  facet normal -0 0 1
    outer loop
      vertex 39 45.5 6
      vertex 56 44.5 6
      vertex 50.5729 47.5968 6
    endloop
  endfacet
  facet normal -0 0 1
    outer loop
      vertex 31 45.5 6
      vertex 56 44.5 6
      vertex 39 45.5 6
    endloop
  endfacet
  facet normal 0 0 1
    outer loop
      vertex 21 45.5 6
      vertex 31 45.5 6
      vertex 21 53.5 6
    endloop
  endfacet
  facet normal -0 0 1
    outer loop
      vertex 21 45.5 6
      vertex 56 44.5 6
      vertex 31 45.5 6
    endloop
  endfacet
  facet normal -0 0 1
    outer loop
      vertex 13 45.5 6
      vertex 56 44.5 6
      vertex 21 45.5 6
    endloop
  endfacet
  facet normal -0 0 1
    outer loop
      vertex 2.42705 48.6866 6
      vertex 13 45.5 6
      vertex 3 50.45 6
    endloop
  endfacet
  facet normal -0 0 1
    outer loop
      vertex 0.927051 47.5968 6
      vertex 13 45.5 6
      vertex 2.42705 48.6866 6
    endloop
  endfacet
  facet normal -0 0 1
    outer loop
      vertex -0.927051 47.5968 6
      vertex 13 45.5 6
      vertex 0.927051 47.5968 6
    endloop
  endfacet
  facet normal 0 0 1
    outer loop
      vertex -13 45.5 6
      vertex -3 50.45 6
      vertex -13 59.5 6
    endloop
  endfacet
  facet normal 0 0 1
    outer loop
      vertex -3 50.45 6
      vertex -13 45.5 6
      vertex -2.42705 48.6866 6
    endloop
  endfacet
  facet normal 0 0 1
    outer loop
      vertex -13 45.5 6
      vertex -0.927051 47.5968 6
      vertex -2.42705 48.6866 6
    endloop
  endfacet
  facet normal 0 0 1
    outer loop
      vertex -13 45.5 6
      vertex 13 45.5 6
      vertex -0.927051 47.5968 6
    endloop
  endfacet
  facet normal -0 0 1
    outer loop
      vertex -13 45.5 6
      vertex 56 44.5 6
      vertex 13 45.5 6
    endloop
  endfacet
  facet normal 0 0 1
    outer loop
      vertex -55.75 44.5 6
      vertex -13 45.5 6
      vertex -21 45.5 6
    endloop
  endfacet
  facet normal 0 0 1
    outer loop
      vertex -31 45.5 6
      vertex -21 45.5 6
      vertex -31 53.5 6
    endloop
  endfacet
  facet normal 0 0 1
    outer loop
      vertex -55.75 44.5 6
      vertex -21 45.5 6
      vertex -31 45.5 6
    endloop
  endfacet
  facet normal 0 0 1
    outer loop
      vertex -55.75 44.5 6
      vertex -31 45.5 6
      vertex -39 45.5 6
    endloop
  endfacet
  facet normal -0 0 1
    outer loop
      vertex -49.0729 48.6866 6
      vertex -39 45.5 6
      vertex -48.5 50.45 6
    endloop
  endfacet
  facet normal -0 0 1
    outer loop
      vertex -50.5729 47.5968 6
      vertex -39 45.5 6
      vertex -49.0729 48.6866 6
    endloop
  endfacet
  facet normal 0 0 1
    outer loop
      vertex -55.75 44.5 6
      vertex -50.5729 47.5968 6
      vertex -52.4271 47.5968 6
    endloop
  endfacet
  facet normal 0 0 1
    outer loop
      vertex -13 45.5 6
      vertex -55.75 44.5 6
      vertex 56 44.5 6
    endloop
  endfacet
  facet normal 0 0 1
    outer loop
      vertex -50.5729 47.5968 6
      vertex -55.75 44.5 6
      vertex -39 45.5 6
    endloop
  endfacet
  facet normal 0 0 1
    outer loop
      vertex -53.9271 48.6866 6
      vertex -55.75 44.5 6
      vertex -52.4271 47.5968 6
    endloop
  endfacet
  facet normal 0 0 1
    outer loop
      vertex -55.75 44.5 6
      vertex -53.9271 48.6866 6
      vertex -54.5 50.45 6
    endloop
  endfacet
  facet normal 0 0 -1
    outer loop
      vertex -84 24.5 6
      vertex -85.75 24.5 6
      vertex -84 25.6667 6
    endloop
  endfacet
  facet normal 0 -1 0
    outer loop
      vertex 21 53.5 6
      vertex 31 53.5 16
      vertex 21 53.5 16
    endloop
  endfacet
  facet normal 0 -1 -0
    outer loop
      vertex 31 53.5 16
      vertex 21 53.5 6
      vertex 31 53.5 6
    endloop
  endfacet
  facet normal 0 1 -0
    outer loop
      vertex 56 59.5 -4
      vertex 39 59.5 6
      vertex 56 59.5 6
    endloop
  endfacet
  facet normal 0 1 0
    outer loop
      vertex 39 59.5 6
      vertex 56 59.5 -4
      vertex 13 59.5 6
    endloop
  endfacet
  facet normal 0 1 0
    outer loop
      vertex 13 59.5 6
      vertex 56 59.5 -4
      vertex -13 59.5 6
    endloop
  endfacet
  facet normal 0 1 0
    outer loop
      vertex -56 59.5 -4
      vertex -13 59.5 6
      vertex 56 59.5 -4
    endloop
  endfacet
  facet normal 0 1 0
    outer loop
      vertex -39 59.5 6
      vertex -56 59.5 0
      vertex -56.25 59.5 6
    endloop
  endfacet
  facet normal 0 1 0
    outer loop
      vertex -13 59.5 6
      vertex -56 59.5 -4
      vertex -39 59.5 6
    endloop
  endfacet
  facet normal 0 1 0
    outer loop
      vertex -39 59.5 6
      vertex -56 59.5 -4
      vertex -56 59.5 0
    endloop
  endfacet
  facet normal 0 1 -0
    outer loop
      vertex 39 59.5 6
      vertex 13 59.5 23
      vertex 39 59.5 23
    endloop
  endfacet
  facet normal 0 1 0
    outer loop
      vertex 13 59.5 23
      vertex 39 59.5 6
      vertex 13 59.5 6
    endloop
  endfacet
  facet normal 0 1 -0
    outer loop
      vertex -13 59.5 6
      vertex -39 59.5 23
      vertex -13 59.5 23
    endloop
  endfacet
  facet normal 0 1 0
    outer loop
      vertex -39 59.5 23
      vertex -13 59.5 6
      vertex -39 59.5 6
    endloop
  endfacet
  facet normal 0 1 0
    outer loop
      vertex -56.25 59.5 6
      vertex -56 59.5 0
      vertex -56.25 59.5 0
    endloop
  endfacet
  facet normal 1 -0 0
    outer loop
      vertex 21 45.5 16
      vertex 21 53.5 6
      vertex 21 53.5 16
    endloop
  endfacet
  facet normal 1 0 0
    outer loop
      vertex 21 53.5 6
      vertex 21 45.5 16
      vertex 21 45.5 6
    endloop
  endfacet
  facet normal 0 -1 0
    outer loop
      vertex 13 45.5 23
      vertex 15.5 45.5 21
      vertex 15.5 45.5 23
    endloop
  endfacet
  facet normal 0 -1 0
    outer loop
      vertex 15.5 45.5 21
      vertex 21 45.5 16
      vertex 36.5 45.5 21
    endloop
  endfacet
  facet normal 0 -1 0
    outer loop
      vertex 13 45.5 6
      vertex 15.5 45.5 21
      vertex 13 45.5 23
    endloop
  endfacet
  facet normal 0 -1 -0
    outer loop
      vertex 15.5 45.5 21
      vertex 13 45.5 6
      vertex 21 45.5 16
    endloop
  endfacet
  facet normal 0 -1 -0
    outer loop
      vertex 21 45.5 16
      vertex 13 45.5 6
      vertex 21 45.5 6
    endloop
  endfacet
  facet normal 0 -1 0
    outer loop
      vertex 36.5 45.5 21
      vertex 39 45.5 23
      vertex 36.5 45.5 23
    endloop
  endfacet
  facet normal 0 -1 0
    outer loop
      vertex 31 45.5 16
      vertex 36.5 45.5 21
      vertex 21 45.5 16
    endloop
  endfacet
  facet normal 0 -1 0
    outer loop
      vertex 39 45.5 6
      vertex 36.5 45.5 21
      vertex 31 45.5 16
    endloop
  endfacet
  facet normal 0 -1 0
    outer loop
      vertex 39 45.5 6
      vertex 31 45.5 16
      vertex 31 45.5 6
    endloop
  endfacet
  facet normal 0 -1 0
    outer loop
      vertex 36.5 45.5 21
      vertex 39 45.5 6
      vertex 39 45.5 23
    endloop
  endfacet
  facet normal -1 0 0
    outer loop
      vertex 31 45.5 6
      vertex 31 53.5 16
      vertex 31 53.5 6
    endloop
  endfacet
  facet normal -1 -0 0
    outer loop
      vertex 31 53.5 16
      vertex 31 45.5 6
      vertex 31 45.5 16
    endloop
  endfacet
  facet normal 0 0 1
    outer loop
      vertex 39 59.5 23
      vertex 36.5 56 23
      vertex 39 45.5 23
    endloop
  endfacet
  facet normal 0 0 1
    outer loop
      vertex 39 59.5 23
      vertex 15.5 56 23
      vertex 36.5 56 23
    endloop
  endfacet
  facet normal -0 0 1
    outer loop
      vertex 13 59.5 23
      vertex 15.5 56 23
      vertex 39 59.5 23
    endloop
  endfacet
  facet normal 0 0 1
    outer loop
      vertex 13 45.5 23
      vertex 15.5 56 23
      vertex 13 59.5 23
    endloop
  endfacet
  facet normal 0 0 1
    outer loop
      vertex 15.5 56 23
      vertex 13 45.5 23
      vertex 15.5 45.5 23
    endloop
  endfacet
  facet normal 0 0 1
    outer loop
      vertex 39 45.5 23
      vertex 36.5 56 23
      vertex 36.5 45.5 23
    endloop
  endfacet
  facet normal -0.965926 -0.258819 0
    outer loop
      vertex 27.75 50 18
      vertex 27.5155 50.875 21
      vertex 27.5155 50.875 18
    endloop
  endfacet
  facet normal -0.965926 -0.258819 0
    outer loop
      vertex 27.5155 50.875 21
      vertex 27.75 50 18
      vertex 27.75 50 21
    endloop
  endfacet
  facet normal 0.965926 -0.258819 0
    outer loop
      vertex 24.25 50 21
      vertex 24.4845 50.875 18
      vertex 24.4845 50.875 21
    endloop
  endfacet
  facet normal 0.965926 -0.258819 0
    outer loop
      vertex 24.4845 50.875 18
      vertex 24.25 50 21
      vertex 24.25 50 18
    endloop
  endfacet
  facet normal -0.258819 -0.965926 0
    outer loop
      vertex 26 51.75 18
      vertex 26.875 51.5155 21
      vertex 26 51.75 21
    endloop
  endfacet
  facet normal -0.258819 -0.965926 -0
    outer loop
      vertex 26.875 51.5155 21
      vertex 26 51.75 18
      vertex 26.875 51.5155 18
    endloop
  endfacet
  facet normal -0.707107 -0.707107 0
    outer loop
      vertex 27.5155 50.875 18
      vertex 26.875 51.5155 21
      vertex 26.875 51.5155 18
    endloop
  endfacet
  facet normal -0.707107 -0.707107 0
    outer loop
      vertex 26.875 51.5155 21
      vertex 27.5155 50.875 18
      vertex 27.5155 50.875 21
    endloop
  endfacet
  facet normal 0.258819 -0.965926 0
    outer loop
      vertex 25.125 51.5155 18
      vertex 26 51.75 21
      vertex 25.125 51.5155 21
    endloop
  endfacet
  facet normal 0.258819 -0.965926 0
    outer loop
      vertex 26 51.75 21
      vertex 25.125 51.5155 18
      vertex 26 51.75 18
    endloop
  endfacet
  facet normal 0.707107 -0.707107 0
    outer loop
      vertex 24.4845 50.875 21
      vertex 25.125 51.5155 18
      vertex 25.125 51.5155 21
    endloop
  endfacet
  facet normal 0.707107 -0.707107 0
    outer loop
      vertex 25.125 51.5155 18
      vertex 24.4845 50.875 21
      vertex 24.4845 50.875 18
    endloop
  endfacet
  facet normal -0.965926 0.258819 0
    outer loop
      vertex 27.5155 49.125 18
      vertex 27.75 50 21
      vertex 27.75 50 18
    endloop
  endfacet
  facet normal -0.965926 0.258819 0
    outer loop
      vertex 27.75 50 21
      vertex 27.5155 49.125 18
      vertex 27.5155 49.125 21
    endloop
  endfacet
  facet normal 0.258819 0.965926 -0
    outer loop
      vertex 26 48.25 18
      vertex 25.125 48.4845 21
      vertex 26 48.25 21
    endloop
  endfacet
  facet normal 0.258819 0.965926 0
    outer loop
      vertex 25.125 48.4845 21
      vertex 26 48.25 18
      vertex 25.125 48.4845 18
    endloop
  endfacet
  facet normal 0.965926 0.258819 0
    outer loop
      vertex 24.4845 49.125 21
      vertex 24.25 50 18
      vertex 24.25 50 21
    endloop
  endfacet
  facet normal 0.965926 0.258819 0
    outer loop
      vertex 24.25 50 18
      vertex 24.4845 49.125 21
      vertex 24.4845 49.125 18
    endloop
  endfacet
  facet normal -0.707107 0.707107 0
    outer loop
      vertex 26.875 48.4845 18
      vertex 27.5155 49.125 21
      vertex 27.5155 49.125 18
    endloop
  endfacet
  facet normal -0.707107 0.707107 0
    outer loop
      vertex 27.5155 49.125 21
      vertex 26.875 48.4845 18
      vertex 26.875 48.4845 21
    endloop
  endfacet
  facet normal -0.258819 0.965926 0
    outer loop
      vertex 26.875 48.4845 18
      vertex 26 48.25 21
      vertex 26.875 48.4845 21
    endloop
  endfacet
  facet normal -0.258819 0.965926 0
    outer loop
      vertex 26 48.25 21
      vertex 26.875 48.4845 18
      vertex 26 48.25 18
    endloop
  endfacet
  facet normal 0.707107 0.707107 0
    outer loop
      vertex 25.125 48.4845 21
      vertex 24.4845 49.125 18
      vertex 24.4845 49.125 21
    endloop
  endfacet
  facet normal 0.707107 0.707107 0
    outer loop
      vertex 24.4845 49.125 18
      vertex 25.125 48.4845 21
      vertex 25.125 48.4845 18
    endloop
  endfacet
  facet normal -0.860309 -0.4967 -0.114708
    outer loop
      vertex 29.2667 50 16
      vertex 29 50 18
      vertex 28.1333 51.963 16
    endloop
  endfacet
  facet normal 0.860309 0.496699 -0.114708
    outer loop
      vertex 24.5 47.4019 18
      vertex 24.3667 47.171 16
      vertex 23.2333 49.134 16
    endloop
  endfacet
  facet normal 0.860309 -0.4967 -0.114708
    outer loop
      vertex 23.8667 51.963 16
      vertex 23 50 18
      vertex 22.7333 50 16
    endloop
  endfacet
  facet normal -0.860309 0.4967 -0.114708
    outer loop
      vertex 29 50 18
      vertex 29.2667 50 16
      vertex 28.1333 48.037 16
    endloop
  endfacet
  facet normal 0.860309 0.4967 -0.114708
    outer loop
      vertex 23 50 18
      vertex 23.2333 49.134 16
      vertex 22.7333 50 16
    endloop
  endfacet
  facet normal 0.860309 0.4967 -0.114707
    outer loop
      vertex 23.2333 49.134 16
      vertex 23 50 18
      vertex 24.5 47.4019 18
    endloop
  endfacet
  facet normal 0 0.993399 -0.114709
    outer loop
      vertex 27.6333 47.171 16
      vertex 24.5 47.4019 18
      vertex 27.5 47.4019 18
    endloop
  endfacet
  facet normal 0 0.993399 -0.114709
    outer loop
      vertex 24.5 47.4019 18
      vertex 27.6333 47.171 16
      vertex 24.3667 47.171 16
    endloop
  endfacet
  facet normal -0.86031 -0.496699 -0.114708
    outer loop
      vertex 28.1333 51.963 16
      vertex 27.5 52.5981 18
      vertex 27.6333 52.829 16
    endloop
  endfacet
  facet normal -0.860309 -0.4967 -0.114708
    outer loop
      vertex 27.5 52.5981 18
      vertex 28.1333 51.963 16
      vertex 29 50 18
    endloop
  endfacet
  facet normal -0 0 -1
    outer loop
      vertex 29 50 18
      vertex 27.5155 49.125 18
      vertex 27.75 50 18
    endloop
  endfacet
  facet normal 0 0 -1
    outer loop
      vertex 27.5 47.4019 18
      vertex 27.5155 49.125 18
      vertex 29 50 18
    endloop
  endfacet
  facet normal 0 0 -1
    outer loop
      vertex 27.5 47.4019 18
      vertex 26.875 48.4845 18
      vertex 27.5155 49.125 18
    endloop
  endfacet
  facet normal 0 0 -1
    outer loop
      vertex 27.5 47.4019 18
      vertex 26 48.25 18
      vertex 26.875 48.4845 18
    endloop
  endfacet
  facet normal 0 0 -1
    outer loop
      vertex 24.5 47.4019 18
      vertex 26 48.25 18
      vertex 27.5 47.4019 18
    endloop
  endfacet
  facet normal -0 0 -1
    outer loop
      vertex 26 48.25 18
      vertex 24.5 47.4019 18
      vertex 25.125 48.4845 18
    endloop
  endfacet
  facet normal 0 0 -1
    outer loop
      vertex 24.5 47.4019 18
      vertex 24.4845 49.125 18
      vertex 25.125 48.4845 18
    endloop
  endfacet
  facet normal 0 0 -1
    outer loop
      vertex 23 50 18
      vertex 24.4845 49.125 18
      vertex 24.5 47.4019 18
    endloop
  endfacet
  facet normal 0 0 -1
    outer loop
      vertex 24.4845 49.125 18
      vertex 23 50 18
      vertex 24.25 50 18
    endloop
  endfacet
  facet normal 0 0 -1
    outer loop
      vertex 27.5155 50.875 18
      vertex 29 50 18
      vertex 27.75 50 18
    endloop
  endfacet
  facet normal 0 0 -1
    outer loop
      vertex 27.5155 50.875 18
      vertex 27.5 52.5981 18
      vertex 29 50 18
    endloop
  endfacet
  facet normal 0 0 -1
    outer loop
      vertex 26.875 51.5155 18
      vertex 27.5 52.5981 18
      vertex 27.5155 50.875 18
    endloop
  endfacet
  facet normal 0 0 -1
    outer loop
      vertex 26 51.75 18
      vertex 27.5 52.5981 18
      vertex 26.875 51.5155 18
    endloop
  endfacet
  facet normal 0 0 -1
    outer loop
      vertex 24.5 52.5981 18
      vertex 26 51.75 18
      vertex 25.125 51.5155 18
    endloop
  endfacet
  facet normal 0 0 -1
    outer loop
      vertex 26 51.75 18
      vertex 24.5 52.5981 18
      vertex 27.5 52.5981 18
    endloop
  endfacet
  facet normal 0 0 -1
    outer loop
      vertex 24.4845 50.875 18
      vertex 24.5 52.5981 18
      vertex 25.125 51.5155 18
    endloop
  endfacet
  facet normal 0 0 -1
    outer loop
      vertex 23 50 18
      vertex 24.4845 50.875 18
      vertex 24.25 50 18
    endloop
  endfacet
  facet normal -0 0 -1
    outer loop
      vertex 24.4845 50.875 18
      vertex 23 50 18
      vertex 24.5 52.5981 18
    endloop
  endfacet
  facet normal 0 -0.993399 -0.114709
    outer loop
      vertex 24.3667 52.829 16
      vertex 27.5 52.5981 18
      vertex 24.5 52.5981 18
    endloop
  endfacet
  facet normal 0 -0.993399 -0.114709
    outer loop
      vertex 27.5 52.5981 18
      vertex 24.3667 52.829 16
      vertex 27.6333 52.829 16
    endloop
  endfacet
  facet normal -0.860309 0.4967 -0.114708
    outer loop
      vertex 28.1333 48.037 16
      vertex 27.5 47.4019 18
      vertex 29 50 18
    endloop
  endfacet
  facet normal -0.86031 0.496699 -0.114708
    outer loop
      vertex 27.5 47.4019 18
      vertex 28.1333 48.037 16
      vertex 27.6333 47.171 16
    endloop
  endfacet
  facet normal 0.86031 -0.496699 -0.114708
    outer loop
      vertex 24.5 52.5981 18
      vertex 23.8667 51.963 16
      vertex 24.3667 52.829 16
    endloop
  endfacet
  facet normal 0.860309 -0.4967 -0.114708
    outer loop
      vertex 23.8667 51.963 16
      vertex 24.5 52.5981 18
      vertex 23 50 18
    endloop
  endfacet
  facet normal 1 -0 0
    outer loop
      vertex 15.5 45.5 23
      vertex 15.5 56 21
      vertex 15.5 56 23
    endloop
  endfacet
  facet normal 1 0 0
    outer loop
      vertex 15.5 56 21
      vertex 15.5 45.5 23
      vertex 15.5 45.5 21
    endloop
  endfacet
  facet normal -1 0 0
    outer loop
      vertex 36.5 45.5 21
      vertex 36.5 56 23
      vertex 36.5 56 21
    endloop
  endfacet
  facet normal -1 -0 0
    outer loop
      vertex 36.5 56 23
      vertex 36.5 45.5 21
      vertex 36.5 45.5 23
    endloop
  endfacet
  facet normal 0 -1 0
    outer loop
      vertex 15.5 56 21
      vertex 36.5 56 23
      vertex 15.5 56 23
    endloop
  endfacet
  facet normal 0 -1 -0
    outer loop
      vertex 36.5 56 23
      vertex 15.5 56 21
      vertex 36.5 56 21
    endloop
  endfacet
  facet normal 0 0 1
    outer loop
      vertex 36.5 56 21
      vertex 27.75 50 21
      vertex 36.5 45.5 21
    endloop
  endfacet
  facet normal 0 0 1
    outer loop
      vertex 36.5 56 21
      vertex 27.5155 50.875 21
      vertex 27.75 50 21
    endloop
  endfacet
  facet normal 0 0 1
    outer loop
      vertex 36.5 56 21
      vertex 26.875 51.5155 21
      vertex 27.5155 50.875 21
    endloop
  endfacet
  facet normal 0 0 1
    outer loop
      vertex 36.5 56 21
      vertex 26 51.75 21
      vertex 26.875 51.5155 21
    endloop
  endfacet
  facet normal -0 0 1
    outer loop
      vertex 15.5 56 21
      vertex 26 51.75 21
      vertex 36.5 56 21
    endloop
  endfacet
  facet normal 0 0 1
    outer loop
      vertex 24.4845 50.875 21
      vertex 15.5 56 21
      vertex 24.25 50 21
    endloop
  endfacet
  facet normal 0 0 1
    outer loop
      vertex 25.125 51.5155 21
      vertex 15.5 56 21
      vertex 24.4845 50.875 21
    endloop
  endfacet
  facet normal 0 0 1
    outer loop
      vertex 26 51.75 21
      vertex 15.5 56 21
      vertex 25.125 51.5155 21
    endloop
  endfacet
  facet normal -0 0 1
    outer loop
      vertex 27.5155 49.125 21
      vertex 36.5 45.5 21
      vertex 27.75 50 21
    endloop
  endfacet
  facet normal -0 0 1
    outer loop
      vertex 26.875 48.4845 21
      vertex 36.5 45.5 21
      vertex 27.5155 49.125 21
    endloop
  endfacet
  facet normal -0 0 1
    outer loop
      vertex 26 48.25 21
      vertex 36.5 45.5 21
      vertex 26.875 48.4845 21
    endloop
  endfacet
  facet normal 0 0 1
    outer loop
      vertex 15.5 45.5 21
      vertex 24.25 50 21
      vertex 15.5 56 21
    endloop
  endfacet
  facet normal 0 0 1
    outer loop
      vertex 24.25 50 21
      vertex 15.5 45.5 21
      vertex 24.4845 49.125 21
    endloop
  endfacet
  facet normal 0 0 1
    outer loop
      vertex 26 48.25 21
      vertex 15.5 45.5 21
      vertex 36.5 45.5 21
    endloop
  endfacet
  facet normal 0 0 1
    outer loop
      vertex 25.125 48.4845 21
      vertex 15.5 45.5 21
      vertex 26 48.25 21
    endloop
  endfacet
  facet normal 0 0 1
    outer loop
      vertex 24.4845 49.125 21
      vertex 15.5 45.5 21
      vertex 25.125 48.4845 21
    endloop
  endfacet
  facet normal -1 0 0
    outer loop
      vertex -39 45.5 6
      vertex -39 59.5 23
      vertex -39 59.5 6
    endloop
  endfacet
  facet normal -1 -0 0
    outer loop
      vertex -39 59.5 23
      vertex -39 45.5 6
      vertex -39 45.5 23
    endloop
  endfacet
  facet normal 0 0 -1
    outer loop
      vertex -21 45.5 16
      vertex -22.7333 50 16
      vertex -21 53.5 16
    endloop
  endfacet
  facet normal 0 0 -1
    outer loop
      vertex -21 45.5 16
      vertex -23.8667 48.037 16
      vertex -22.7333 50 16
    endloop
  endfacet
  facet normal 0 0 -1
    outer loop
      vertex -21 45.5 16
      vertex -24.3667 47.171 16
      vertex -23.8667 48.037 16
    endloop
  endfacet
  facet normal 0 0 -1
    outer loop
      vertex -21 45.5 16
      vertex -27.6333 47.171 16
      vertex -24.3667 47.171 16
    endloop
  endfacet
  facet normal 0 0 -1
    outer loop
      vertex -31 45.5 16
      vertex -28.7667 49.134 16
      vertex -27.6333 47.171 16
    endloop
  endfacet
  facet normal -0 0 -1
    outer loop
      vertex -28.7667 49.134 16
      vertex -31 45.5 16
      vertex -29.2667 50 16
    endloop
  endfacet
  facet normal 0 0 -1
    outer loop
      vertex -31 45.5 16
      vertex -27.6333 47.171 16
      vertex -21 45.5 16
    endloop
  endfacet
  facet normal 0 0 -1
    outer loop
      vertex -23.8667 51.963 16
      vertex -21 53.5 16
      vertex -22.7333 50 16
    endloop
  endfacet
  facet normal 0 0 -1
    outer loop
      vertex -24.3667 52.829 16
      vertex -21 53.5 16
      vertex -23.8667 51.963 16
    endloop
  endfacet
  facet normal 0 0 -1
    outer loop
      vertex -27.6333 52.829 16
      vertex -21 53.5 16
      vertex -24.3667 52.829 16
    endloop
  endfacet
  facet normal 0 0 -1
    outer loop
      vertex -31 53.5 16
      vertex -28.1333 51.963 16
      vertex -29.2667 50 16
    endloop
  endfacet
  facet normal 0 0 -1
    outer loop
      vertex -27.6333 52.829 16
      vertex -31 53.5 16
      vertex -21 53.5 16
    endloop
  endfacet
  facet normal 0 0 -1
    outer loop
      vertex -28.1333 51.963 16
      vertex -31 53.5 16
      vertex -27.6333 52.829 16
    endloop
  endfacet
  facet normal 0 0 -1
    outer loop
      vertex -31 53.5 16
      vertex -29.2667 50 16
      vertex -31 45.5 16
    endloop
  endfacet
  facet normal 1 -0 0
    outer loop
      vertex -13 45.5 23
      vertex -13 59.5 6
      vertex -13 59.5 23
    endloop
  endfacet
  facet normal 1 0 0
    outer loop
      vertex -13 59.5 6
      vertex -13 45.5 23
      vertex -13 45.5 6
    endloop
  endfacet
  facet normal 0 -1 0
    outer loop
      vertex -31 53.5 6
      vertex -21 53.5 16
      vertex -31 53.5 16
    endloop
  endfacet
  facet normal 0 -1 -0
    outer loop
      vertex -21 53.5 16
      vertex -31 53.5 6
      vertex -21 53.5 6
    endloop
  endfacet
  facet normal 1 -0 0
    outer loop
      vertex -31 45.5 16
      vertex -31 53.5 6
      vertex -31 53.5 16
    endloop
  endfacet
  facet normal 1 0 0
    outer loop
      vertex -31 53.5 6
      vertex -31 45.5 16
      vertex -31 45.5 6
    endloop
  endfacet
  facet normal 0 -1 0
    outer loop
      vertex -39 45.5 23
      vertex -36.5 45.5 21
      vertex -36.5 45.5 23
    endloop
  endfacet
  facet normal 0 -1 0
    outer loop
      vertex -36.5 45.5 21
      vertex -31 45.5 16
      vertex -15.5 45.5 21
    endloop
  endfacet
  facet normal 0 -1 0
    outer loop
      vertex -39 45.5 6
      vertex -36.5 45.5 21
      vertex -39 45.5 23
    endloop
  endfacet
  facet normal 0 -1 -0
    outer loop
      vertex -36.5 45.5 21
      vertex -39 45.5 6
      vertex -31 45.5 16
    endloop
  endfacet
  facet normal 0 -1 -0
    outer loop
      vertex -31 45.5 16
      vertex -39 45.5 6
      vertex -31 45.5 6
    endloop
  endfacet
  facet normal 0 -1 0
    outer loop
      vertex -15.5 45.5 21
      vertex -13 45.5 23
      vertex -15.5 45.5 23
    endloop
  endfacet
  facet normal 0 -1 0
    outer loop
      vertex -21 45.5 16
      vertex -15.5 45.5 21
      vertex -31 45.5 16
    endloop
  endfacet
  facet normal 0 -1 0
    outer loop
      vertex -13 45.5 6
      vertex -15.5 45.5 21
      vertex -21 45.5 16
    endloop
  endfacet
  facet normal 0 -1 0
    outer loop
      vertex -13 45.5 6
      vertex -21 45.5 16
      vertex -21 45.5 6
    endloop
  endfacet
  facet normal 0 -1 0
    outer loop
      vertex -15.5 45.5 21
      vertex -13 45.5 6
      vertex -13 45.5 23
    endloop
  endfacet
  facet normal -1 0 0
    outer loop
      vertex -21 45.5 6
      vertex -21 53.5 16
      vertex -21 53.5 6
    endloop
  endfacet
  facet normal -1 -0 0
    outer loop
      vertex -21 53.5 16
      vertex -21 45.5 6
      vertex -21 45.5 16
    endloop
  endfacet
  facet normal 0 0 1
    outer loop
      vertex -13 59.5 23
      vertex -15.5 56 23
      vertex -13 45.5 23
    endloop
  endfacet
  facet normal 0 0 1
    outer loop
      vertex -13 59.5 23
      vertex -36.5 56 23
      vertex -15.5 56 23
    endloop
  endfacet
  facet normal -0 0 1
    outer loop
      vertex -39 59.5 23
      vertex -36.5 56 23
      vertex -13 59.5 23
    endloop
  endfacet
  facet normal 0 0 1
    outer loop
      vertex -39 45.5 23
      vertex -36.5 56 23
      vertex -39 59.5 23
    endloop
  endfacet
  facet normal 0 0 1
    outer loop
      vertex -36.5 56 23
      vertex -39 45.5 23
      vertex -36.5 45.5 23
    endloop
  endfacet
  facet normal 0 0 1
    outer loop
      vertex -13 45.5 23
      vertex -15.5 56 23
      vertex -15.5 45.5 23
    endloop
  endfacet
  facet normal -0.965926 -0.258819 0
    outer loop
      vertex -24.25 50 18
      vertex -24.4845 50.875 21
      vertex -24.4845 50.875 18
    endloop
  endfacet
  facet normal -0.965926 -0.258819 0
    outer loop
      vertex -24.4845 50.875 21
      vertex -24.25 50 18
      vertex -24.25 50 21
    endloop
  endfacet
  facet normal 0.965926 -0.258819 0
    outer loop
      vertex -27.75 50 21
      vertex -27.5155 50.875 18
      vertex -27.5155 50.875 21
    endloop
  endfacet
  facet normal 0.965926 -0.258819 0
    outer loop
      vertex -27.5155 50.875 18
      vertex -27.75 50 21
      vertex -27.75 50 18
    endloop
  endfacet
  facet normal -0.258819 -0.965926 0
    outer loop
      vertex -26 51.75 18
      vertex -25.125 51.5155 21
      vertex -26 51.75 21
    endloop
  endfacet
  facet normal -0.258819 -0.965926 -0
    outer loop
      vertex -25.125 51.5155 21
      vertex -26 51.75 18
      vertex -25.125 51.5155 18
    endloop
  endfacet
  facet normal -0.707107 -0.707107 0
    outer loop
      vertex -24.4845 50.875 18
      vertex -25.125 51.5155 21
      vertex -25.125 51.5155 18
    endloop
  endfacet
  facet normal -0.707107 -0.707107 0
    outer loop
      vertex -25.125 51.5155 21
      vertex -24.4845 50.875 18
      vertex -24.4845 50.875 21
    endloop
  endfacet
  facet normal 0.258819 -0.965926 0
    outer loop
      vertex -26.875 51.5155 18
      vertex -26 51.75 21
      vertex -26.875 51.5155 21
    endloop
  endfacet
  facet normal 0.258819 -0.965926 0
    outer loop
      vertex -26 51.75 21
      vertex -26.875 51.5155 18
      vertex -26 51.75 18
    endloop
  endfacet
  facet normal 0.707107 -0.707107 0
    outer loop
      vertex -27.5155 50.875 21
      vertex -26.875 51.5155 18
      vertex -26.875 51.5155 21
    endloop
  endfacet
  facet normal 0.707107 -0.707107 0
    outer loop
      vertex -26.875 51.5155 18
      vertex -27.5155 50.875 21
      vertex -27.5155 50.875 18
    endloop
  endfacet
  facet normal -0.965926 0.258819 0
    outer loop
      vertex -24.4845 49.125 18
      vertex -24.25 50 21
      vertex -24.25 50 18
    endloop
  endfacet
  facet normal -0.965926 0.258819 0
    outer loop
      vertex -24.25 50 21
      vertex -24.4845 49.125 18
      vertex -24.4845 49.125 21
    endloop
  endfacet
  facet normal 0.258819 0.965926 -0
    outer loop
      vertex -26 48.25 18
      vertex -26.875 48.4845 21
      vertex -26 48.25 21
    endloop
  endfacet
  facet normal 0.258819 0.965926 0
    outer loop
      vertex -26.875 48.4845 21
      vertex -26 48.25 18
      vertex -26.875 48.4845 18
    endloop
  endfacet
  facet normal 0.965926 0.258819 0
    outer loop
      vertex -27.5155 49.125 21
      vertex -27.75 50 18
      vertex -27.75 50 21
    endloop
  endfacet
  facet normal 0.965926 0.258819 0
    outer loop
      vertex -27.75 50 18
      vertex -27.5155 49.125 21
      vertex -27.5155 49.125 18
    endloop
  endfacet
  facet normal -0.707107 0.707107 0
    outer loop
      vertex -25.125 48.4845 18
      vertex -24.4845 49.125 21
      vertex -24.4845 49.125 18
    endloop
  endfacet
  facet normal -0.707107 0.707107 0
    outer loop
      vertex -24.4845 49.125 21
      vertex -25.125 48.4845 18
      vertex -25.125 48.4845 21
    endloop
  endfacet
  facet normal -0.258819 0.965926 0
    outer loop
      vertex -25.125 48.4845 18
      vertex -26 48.25 21
      vertex -25.125 48.4845 21
    endloop
  endfacet
  facet normal -0.258819 0.965926 0
    outer loop
      vertex -26 48.25 21
      vertex -25.125 48.4845 18
      vertex -26 48.25 18
    endloop
  endfacet
  facet normal 0.707107 0.707107 0
    outer loop
      vertex -26.875 48.4845 21
      vertex -27.5155 49.125 18
      vertex -27.5155 49.125 21
    endloop
  endfacet
  facet normal 0.707107 0.707107 0
    outer loop
      vertex -27.5155 49.125 18
      vertex -26.875 48.4845 21
      vertex -26.875 48.4845 18
    endloop
  endfacet
  facet normal -0.860309 -0.4967 -0.114708
    outer loop
      vertex -22.7333 50 16
      vertex -23 50 18
      vertex -23.8667 51.963 16
    endloop
  endfacet
  facet normal 0.860309 0.496699 -0.114708
    outer loop
      vertex -27.5 47.4019 18
      vertex -27.6333 47.171 16
      vertex -28.7667 49.134 16
    endloop
  endfacet
  facet normal 0.860309 -0.4967 -0.114708
    outer loop
      vertex -28.1333 51.963 16
      vertex -29 50 18
      vertex -29.2667 50 16
    endloop
  endfacet
  facet normal -0.860309 0.4967 -0.114708
    outer loop
      vertex -23 50 18
      vertex -22.7333 50 16
      vertex -23.8667 48.037 16
    endloop
  endfacet
  facet normal 0.860309 0.4967 -0.114708
    outer loop
      vertex -29 50 18
      vertex -28.7667 49.134 16
      vertex -29.2667 50 16
    endloop
  endfacet
  facet normal 0.860309 0.4967 -0.114707
    outer loop
      vertex -28.7667 49.134 16
      vertex -29 50 18
      vertex -27.5 47.4019 18
    endloop
  endfacet
  facet normal 0 0.993399 -0.114709
    outer loop
      vertex -24.3667 47.171 16
      vertex -27.5 47.4019 18
      vertex -24.5 47.4019 18
    endloop
  endfacet
  facet normal 0 0.993399 -0.114709
    outer loop
      vertex -27.5 47.4019 18
      vertex -24.3667 47.171 16
      vertex -27.6333 47.171 16
    endloop
  endfacet
  facet normal -0.86031 -0.496699 -0.114708
    outer loop
      vertex -23.8667 51.963 16
      vertex -24.5 52.5981 18
      vertex -24.3667 52.829 16
    endloop
  endfacet
  facet normal -0.860309 -0.4967 -0.114708
    outer loop
      vertex -24.5 52.5981 18
      vertex -23.8667 51.963 16
      vertex -23 50 18
    endloop
  endfacet
  facet normal -0 0 -1
    outer loop
      vertex -23 50 18
      vertex -24.4845 49.125 18
      vertex -24.25 50 18
    endloop
  endfacet
  facet normal 0 0 -1
    outer loop
      vertex -24.5 47.4019 18
      vertex -24.4845 49.125 18
      vertex -23 50 18
    endloop
  endfacet
  facet normal 0 0 -1
    outer loop
      vertex -24.5 47.4019 18
      vertex -25.125 48.4845 18
      vertex -24.4845 49.125 18
    endloop
  endfacet
  facet normal 0 0 -1
    outer loop
      vertex -24.5 47.4019 18
      vertex -26 48.25 18
      vertex -25.125 48.4845 18
    endloop
  endfacet
  facet normal 0 0 -1
    outer loop
      vertex -27.5 47.4019 18
      vertex -26 48.25 18
      vertex -24.5 47.4019 18
    endloop
  endfacet
  facet normal -0 0 -1
    outer loop
      vertex -26 48.25 18
      vertex -27.5 47.4019 18
      vertex -26.875 48.4845 18
    endloop
  endfacet
  facet normal 0 0 -1
    outer loop
      vertex -27.5 47.4019 18
      vertex -27.5155 49.125 18
      vertex -26.875 48.4845 18
    endloop
  endfacet
  facet normal 0 0 -1
    outer loop
      vertex -29 50 18
      vertex -27.5155 49.125 18
      vertex -27.5 47.4019 18
    endloop
  endfacet
  facet normal 0 0 -1
    outer loop
      vertex -27.5155 49.125 18
      vertex -29 50 18
      vertex -27.75 50 18
    endloop
  endfacet
  facet normal 0 0 -1
    outer loop
      vertex -24.4845 50.875 18
      vertex -23 50 18
      vertex -24.25 50 18
    endloop
  endfacet
  facet normal 0 0 -1
    outer loop
      vertex -24.4845 50.875 18
      vertex -24.5 52.5981 18
      vertex -23 50 18
    endloop
  endfacet
  facet normal 0 0 -1
    outer loop
      vertex -25.125 51.5155 18
      vertex -24.5 52.5981 18
      vertex -24.4845 50.875 18
    endloop
  endfacet
  facet normal 0 0 -1
    outer loop
      vertex -26 51.75 18
      vertex -24.5 52.5981 18
      vertex -25.125 51.5155 18
    endloop
  endfacet
  facet normal 0 0 -1
    outer loop
      vertex -27.5 52.5981 18
      vertex -26 51.75 18
      vertex -26.875 51.5155 18
    endloop
  endfacet
  facet normal 0 0 -1
    outer loop
      vertex -26 51.75 18
      vertex -27.5 52.5981 18
      vertex -24.5 52.5981 18
    endloop
  endfacet
  facet normal 0 0 -1
    outer loop
      vertex -27.5155 50.875 18
      vertex -27.5 52.5981 18
      vertex -26.875 51.5155 18
    endloop
  endfacet
  facet normal 0 0 -1
    outer loop
      vertex -29 50 18
      vertex -27.5155 50.875 18
      vertex -27.75 50 18
    endloop
  endfacet
  facet normal -0 0 -1
    outer loop
      vertex -27.5155 50.875 18
      vertex -29 50 18
      vertex -27.5 52.5981 18
    endloop
  endfacet
  facet normal 0 -0.993399 -0.114709
    outer loop
      vertex -27.6333 52.829 16
      vertex -24.5 52.5981 18
      vertex -27.5 52.5981 18
    endloop
  endfacet
  facet normal 0 -0.993399 -0.114709
    outer loop
      vertex -24.5 52.5981 18
      vertex -27.6333 52.829 16
      vertex -24.3667 52.829 16
    endloop
  endfacet
  facet normal -0.860309 0.4967 -0.114708
    outer loop
      vertex -23.8667 48.037 16
      vertex -24.5 47.4019 18
      vertex -23 50 18
    endloop
  endfacet
  facet normal -0.86031 0.496699 -0.114708
    outer loop
      vertex -24.5 47.4019 18
      vertex -23.8667 48.037 16
      vertex -24.3667 47.171 16
    endloop
  endfacet
  facet normal 0.86031 -0.496699 -0.114708
    outer loop
      vertex -27.5 52.5981 18
      vertex -28.1333 51.963 16
      vertex -27.6333 52.829 16
    endloop
  endfacet
  facet normal 0.860309 -0.4967 -0.114708
    outer loop
      vertex -28.1333 51.963 16
      vertex -27.5 52.5981 18
      vertex -29 50 18
    endloop
  endfacet
  facet normal 1 -0 0
    outer loop
      vertex -36.5 45.5 23
      vertex -36.5 56 21
      vertex -36.5 56 23
    endloop
  endfacet
  facet normal 1 0 0
    outer loop
      vertex -36.5 56 21
      vertex -36.5 45.5 23
      vertex -36.5 45.5 21
    endloop
  endfacet
  facet normal -1 0 0
    outer loop
      vertex -15.5 45.5 21
      vertex -15.5 56 23
      vertex -15.5 56 21
    endloop
  endfacet
  facet normal -1 -0 0
    outer loop
      vertex -15.5 56 23
      vertex -15.5 45.5 21
      vertex -15.5 45.5 23
    endloop
  endfacet
  facet normal 0 -1 0
    outer loop
      vertex -36.5 56 21
      vertex -15.5 56 23
      vertex -36.5 56 23
    endloop
  endfacet
  facet normal 0 -1 -0
    outer loop
      vertex -15.5 56 23
      vertex -36.5 56 21
      vertex -15.5 56 21
    endloop
  endfacet
  facet normal 0 0 1
    outer loop
      vertex -15.5 56 21
      vertex -24.25 50 21
      vertex -15.5 45.5 21
    endloop
  endfacet
  facet normal 0 0 1
    outer loop
      vertex -15.5 56 21
      vertex -24.4845 50.875 21
      vertex -24.25 50 21
    endloop
  endfacet
  facet normal 0 0 1
    outer loop
      vertex -15.5 56 21
      vertex -25.125 51.5155 21
      vertex -24.4845 50.875 21
    endloop
  endfacet
  facet normal 0 0 1
    outer loop
      vertex -15.5 56 21
      vertex -26 51.75 21
      vertex -25.125 51.5155 21
    endloop
  endfacet
  facet normal -0 0 1
    outer loop
      vertex -36.5 56 21
      vertex -26 51.75 21
      vertex -15.5 56 21
    endloop
  endfacet
  facet normal 0 0 1
    outer loop
      vertex -27.5155 50.875 21
      vertex -36.5 56 21
      vertex -27.75 50 21
    endloop
  endfacet
  facet normal 0 0 1
    outer loop
      vertex -26.875 51.5155 21
      vertex -36.5 56 21
      vertex -27.5155 50.875 21
    endloop
  endfacet
  facet normal 0 0 1
    outer loop
      vertex -26 51.75 21
      vertex -36.5 56 21
      vertex -26.875 51.5155 21
    endloop
  endfacet
  facet normal -0 0 1
    outer loop
      vertex -24.4845 49.125 21
      vertex -15.5 45.5 21
      vertex -24.25 50 21
    endloop
  endfacet
  facet normal -0 0 1
    outer loop
      vertex -25.125 48.4845 21
      vertex -15.5 45.5 21
      vertex -24.4845 49.125 21
    endloop
  endfacet
  facet normal -0 0 1
    outer loop
      vertex -26 48.25 21
      vertex -15.5 45.5 21
      vertex -25.125 48.4845 21
    endloop
  endfacet
  facet normal 0 0 1
    outer loop
      vertex -36.5 45.5 21
      vertex -27.75 50 21
      vertex -36.5 56 21
    endloop
  endfacet
  facet normal 0 0 1
    outer loop
      vertex -27.75 50 21
      vertex -36.5 45.5 21
      vertex -27.5155 49.125 21
    endloop
  endfacet
  facet normal 0 0 1
    outer loop
      vertex -26 48.25 21
      vertex -36.5 45.5 21
      vertex -15.5 45.5 21
    endloop
  endfacet
  facet normal 0 0 1
    outer loop
      vertex -26.875 48.4845 21
      vertex -36.5 45.5 21
      vertex -26 48.25 21
    endloop
  endfacet
  facet normal 0 0 1
    outer loop
      vertex -27.5155 49.125 21
      vertex -36.5 45.5 21
      vertex -26.875 48.4845 21
    endloop
  endfacet
  facet normal -1 0 0
    outer loop
      vertex -56 57.5 -4
      vertex -56 59.5 0
      vertex -56 59.5 -4
    endloop
  endfacet
  facet normal -1 -0 0
    outer loop
      vertex -56 59.5 0
      vertex -56 57.5 -4
      vertex -56 57.5 0
    endloop
  endfacet
  facet normal 1 0 0
    outer loop
      vertex 56 59.5 6
      vertex 56 57.5 0
      vertex 56 59.5 -4
    endloop
  endfacet
  facet normal 1 -0 0
    outer loop
      vertex 56 44.5 6
      vertex 56 57.5 0
      vertex 56 59.5 6
    endloop
  endfacet
  facet normal 1 0 0
    outer loop
      vertex 56 57.5 0
      vertex 56 44.5 6
      vertex 56 44.5 0
    endloop
  endfacet
  facet normal 1 0 0
    outer loop
      vertex 56 59.5 -4
      vertex 56 57.5 0
      vertex 56 57.5 -4
    endloop
  endfacet
  facet normal 0 0 -1
    outer loop
      vertex 56 44.5 0
      vertex 53.25 50.45 0
      vertex 56 57.5 0
    endloop
  endfacet
  facet normal 0 0 -1
    outer loop
      vertex 56 44.5 0
      vertex 52.9158 49.4214 0
      vertex 53.25 50.45 0
    endloop
  endfacet
  facet normal 0 0 -1
    outer loop
      vertex 56 44.5 0
      vertex 52.0408 48.7857 0
      vertex 52.9158 49.4214 0
    endloop
  endfacet
  facet normal 0 0 -1
    outer loop
      vertex 56 44.5 0
      vertex 50.9592 48.7857 0
      vertex 52.0408 48.7857 0
    endloop
  endfacet
  facet normal 0 0 -1
    outer loop
      vertex 2.6293 48.5397 0
      vertex 50.9592 48.7857 0
      vertex 56 44.5 0
    endloop
  endfacet
  facet normal 0 0 -1
    outer loop
      vertex 50.0842 49.4214 0
      vertex 3.25 50.45 0
      vertex 49.75 50.45 0
    endloop
  endfacet
  facet normal -0 0 -1
    outer loop
      vertex 50.9592 48.7857 0
      vertex 2.6293 48.5397 0
      vertex 50.0842 49.4214 0
    endloop
  endfacet
  facet normal -0 0 -1
    outer loop
      vertex 50.0842 49.4214 0
      vertex 2.6293 48.5397 0
      vertex 3.25 50.45 0
    endloop
  endfacet
  facet normal 0 0 -1
    outer loop
      vertex 56 44.5 0
      vertex 1.0043 47.3591 0
      vertex 2.6293 48.5397 0
    endloop
  endfacet
  facet normal 0 0 -1
    outer loop
      vertex 56 44.5 0
      vertex -1.0043 47.3591 0
      vertex 1.0043 47.3591 0
    endloop
  endfacet
  facet normal 0 0 -1
    outer loop
      vertex -50.0842 49.4214 0
      vertex -3.25 50.45 0
      vertex -2.6293 48.5397 0
    endloop
  endfacet
  facet normal 0 0 -1
    outer loop
      vertex -55.75 44.5 0
      vertex -2.6293 48.5397 0
      vertex -1.0043 47.3591 0
    endloop
  endfacet
  facet normal -0 0 -1
    outer loop
      vertex -3.25 50.45 0
      vertex -50.0842 49.4214 0
      vertex -49.75 50.45 0
    endloop
  endfacet
  facet normal 0 0 -1
    outer loop
      vertex -55.75 44.5 0
      vertex -1.0043 47.3591 0
      vertex 56 44.5 0
    endloop
  endfacet
  facet normal -0 0 -1
    outer loop
      vertex -2.6293 48.5397 0
      vertex -55.75 44.5 0
      vertex -50.0842 49.4214 0
    endloop
  endfacet
  facet normal 0 0 -1
    outer loop
      vertex -50.0842 49.4214 0
      vertex -55.75 44.5 0
      vertex -50.9592 48.7857 0
    endloop
  endfacet
  facet normal -0 0 -1
    outer loop
      vertex -52.9158 49.4214 0
      vertex -55.75 44.5 0
      vertex -53.25 50.45 0
    endloop
  endfacet
  facet normal -0 0 -1
    outer loop
      vertex -52.0408 48.7857 0
      vertex -55.75 44.5 0
      vertex -52.9158 49.4214 0
    endloop
  endfacet
  facet normal -0 0 -1
    outer loop
      vertex -50.9592 48.7857 0
      vertex -55.75 44.5 0
      vertex -52.0408 48.7857 0
    endloop
  endfacet
  facet normal 0 0 -1
    outer loop
      vertex 52.9158 51.4786 0
      vertex 56 57.5 0
      vertex 53.25 50.45 0
    endloop
  endfacet
  facet normal 0 0 -1
    outer loop
      vertex 52.0408 52.1143 0
      vertex 56 57.5 0
      vertex 52.9158 51.4786 0
    endloop
  endfacet
  facet normal 0 0 -1
    outer loop
      vertex 50.9592 52.1143 0
      vertex 56 57.5 0
      vertex 52.0408 52.1143 0
    endloop
  endfacet
  facet normal 0 0 -1
    outer loop
      vertex 50.0842 51.4786 0
      vertex 56 57.5 0
      vertex 50.9592 52.1143 0
    endloop
  endfacet
  facet normal 0 0 -1
    outer loop
      vertex 3.25 50.45 0
      vertex 50.0842 51.4786 0
      vertex 49.75 50.45 0
    endloop
  endfacet
  facet normal 0 0 -1
    outer loop
      vertex 2.6293 52.3603 0
      vertex 50.0842 51.4786 0
      vertex 3.25 50.45 0
    endloop
  endfacet
  facet normal 0 0 -1
    outer loop
      vertex 50.0842 51.4786 0
      vertex 2.6293 52.3603 0
      vertex 56 57.5 0
    endloop
  endfacet
  facet normal 0 0 -1
    outer loop
      vertex 1.0043 53.5409 0
      vertex 56 57.5 0
      vertex 2.6293 52.3603 0
    endloop
  endfacet
  facet normal 0 0 -1
    outer loop
      vertex -1.0043 53.5409 0
      vertex 56 57.5 0
      vertex 1.0043 53.5409 0
    endloop
  endfacet
  facet normal 0 0 -1
    outer loop
      vertex -50.0842 51.4786 0
      vertex -3.25 50.45 0
      vertex -49.75 50.45 0
    endloop
  endfacet
  facet normal 0 0 -1
    outer loop
      vertex -3.25 50.45 0
      vertex -50.0842 51.4786 0
      vertex -2.6293 52.3603 0
    endloop
  endfacet
  facet normal 0 0 -1
    outer loop
      vertex -56 57.5 0
      vertex -2.6293 52.3603 0
      vertex -50.0842 51.4786 0
    endloop
  endfacet
  facet normal 0 0 -1
    outer loop
      vertex -2.6293 52.3603 0
      vertex -56 57.5 0
      vertex -1.0043 53.5409 0
    endloop
  endfacet
  facet normal 0 0 -1
    outer loop
      vertex -56 57.5 0
      vertex -50.0842 51.4786 0
      vertex -50.9592 52.1143 0
    endloop
  endfacet
  facet normal 0 0 -1
    outer loop
      vertex -56 57.5 0
      vertex -50.9592 52.1143 0
      vertex -52.0408 52.1143 0
    endloop
  endfacet
  facet normal 0 0 -1
    outer loop
      vertex -56 57.5 0
      vertex -53.25 50.45 0
      vertex -55.75 44.5 0
    endloop
  endfacet
  facet normal 0 0 -1
    outer loop
      vertex -1.0043 53.5409 0
      vertex -56 57.5 0
      vertex 56 57.5 0
    endloop
  endfacet
  facet normal 0 0 -1
    outer loop
      vertex -52.9158 51.4786 0
      vertex -56 57.5 0
      vertex -52.0408 52.1143 0
    endloop
  endfacet
  facet normal 0 0 -1
    outer loop
      vertex -53.25 50.45 0
      vertex -56 57.5 0
      vertex -52.9158 51.4786 0
    endloop
  endfacet
  facet normal 0 0 -1
    outer loop
      vertex -56 57.5 0
      vertex -56.25 59.5 0
      vertex -56 59.5 0
    endloop
  endfacet
  facet normal 0 0 -1
    outer loop
      vertex -86.25 39.5 0
      vertex -56 57.5 0
      vertex -55.75 44.5 0
    endloop
  endfacet
  facet normal 0 0 -1
    outer loop
      vertex -86.25 39.5 0
      vertex -55.75 44.5 0
      vertex -85.75 24.5 0
    endloop
  endfacet
  facet normal 0 0 -1
    outer loop
      vertex -86.25 39.5 0
      vertex -85.75 24.5 0
      vertex -86.25 24.5 0
    endloop
  endfacet
  facet normal -0 0 -1
    outer loop
      vertex -56 57.5 0
      vertex -86.25 39.5 0
      vertex -56.25 59.5 0
    endloop
  endfacet
  facet normal 0 -1 0
    outer loop
      vertex -55.75 44.5 0
      vertex 56 44.5 6
      vertex -55.75 44.5 6
    endloop
  endfacet
  facet normal 0 -1 -0
    outer loop
      vertex 56 44.5 6
      vertex -55.75 44.5 0
      vertex 56 44.5 0
    endloop
  endfacet
  facet normal 0 0 -1
    outer loop
      vertex -56 57.5 -4
      vertex 56 59.5 -4
      vertex 56 57.5 -4
    endloop
  endfacet
  facet normal -0 0 -1
    outer loop
      vertex 56 59.5 -4
      vertex -56 57.5 -4
      vertex -56 59.5 -4
    endloop
  endfacet
  facet normal 0 -1 0
    outer loop
      vertex -56 57.5 -4
      vertex 56 57.5 0
      vertex -56 57.5 0
    endloop
  endfacet
  facet normal 0 -1 -0
    outer loop
      vertex 56 57.5 0
      vertex -56 57.5 -4
      vertex 56 57.5 -4
    endloop
  endfacet
  facet normal 0.5547 -0.83205 0
    outer loop
      vertex -85.75 24.5 6
      vertex -84 25.6667 5.99
      vertex -84 25.6667 6
    endloop
  endfacet
  facet normal 0.5547 -0.83205 -1.19224e-007
    outer loop
      vertex -84 25.6667 5.99
      vertex -85.75 24.5 0
      vertex -69 35.6667 5.99
    endloop
  endfacet
  facet normal 0.5547 -0.83205 0
    outer loop
      vertex -85.75 24.5 0
      vertex -84 25.6667 5.99
      vertex -85.75 24.5 6
    endloop
  endfacet
  facet normal 0.5547 -0.83205 0
    outer loop
      vertex -69 35.6667 5.99
      vertex -55.75 44.5 6
      vertex -69 35.6667 6
    endloop
  endfacet
  facet normal 0.5547 -0.83205 1.76629e-007
    outer loop
      vertex -55.75 44.5 0
      vertex -69 35.6667 5.99
      vertex -85.75 24.5 0
    endloop
  endfacet
  facet normal 0.5547 -0.83205 0
    outer loop
      vertex -69 35.6667 5.99
      vertex -55.75 44.5 0
      vertex -55.75 44.5 6
    endloop
  endfacet
  facet normal 0 -1 0
    outer loop
      vertex -85.75 24.5 6
      vertex -86 24.5 21
      vertex -86 24.5 6
    endloop
  endfacet
  facet normal 0 -1 0
    outer loop
      vertex -86 24.5 21
      vertex -85.75 24.5 6
      vertex -84 24.5 21
    endloop
  endfacet
  facet normal 0 -1 -0
    outer loop
      vertex -84 24.5 21
      vertex -85.75 24.5 6
      vertex -84 24.5 6
    endloop
  endfacet
  facet normal 0 -1 0
    outer loop
      vertex -86.25 24.5 0
      vertex -86 24.5 6
      vertex -86.25 24.5 6
    endloop
  endfacet
  facet normal 0 -1 0
    outer loop
      vertex -85.75 24.5 0
      vertex -86 24.5 6
      vertex -86.25 24.5 0
    endloop
  endfacet
  facet normal 0 -1 0
    outer loop
      vertex -86 24.5 6
      vertex -85.75 24.5 0
      vertex -85.75 24.5 6
    endloop
  endfacet
  facet normal -0.5547 0.83205 0
    outer loop
      vertex -56.25 59.5 0
      vertex -86.25 39.5 6
      vertex -56.25 59.5 6
    endloop
  endfacet
  facet normal -0.5547 0.83205 0
    outer loop
      vertex -86.25 39.5 6
      vertex -56.25 59.5 0
      vertex -86.25 39.5 0
    endloop
  endfacet
  facet normal -1 0 0
    outer loop
      vertex -86.25 24.5 0
      vertex -86.25 39.5 6
      vertex -86.25 39.5 0
    endloop
  endfacet
  facet normal -1 -0 0
    outer loop
      vertex -86.25 39.5 6
      vertex -86.25 24.5 0
      vertex -86.25 24.5 6
    endloop
  endfacet
  facet normal -1 0 0
    outer loop
      vertex -86 24.5 6
      vertex -86 39.5 21
      vertex -86 39.5 6
    endloop
  endfacet
  facet normal -1 -0 0
    outer loop
      vertex -86 39.5 21
      vertex -86 24.5 6
      vertex -86 24.5 21
    endloop
  endfacet
  facet normal 0 0 1
    outer loop
      vertex -71 39.5 21
      vertex -84 37.5 21
      vertex -71 37.5 21
    endloop
  endfacet
  facet normal -0 0 1
    outer loop
      vertex -86 39.5 21
      vertex -84 37.5 21
      vertex -71 39.5 21
    endloop
  endfacet
  facet normal 0 0 1
    outer loop
      vertex -86 24.5 21
      vertex -84 37.5 21
      vertex -86 39.5 21
    endloop
  endfacet
  facet normal 0 0 1
    outer loop
      vertex -84 37.5 21
      vertex -86 24.5 21
      vertex -84 24.5 21
    endloop
  endfacet
  facet normal 1 -0 0
    outer loop
      vertex -71 37.5 21
      vertex -71 39.5 6
      vertex -71 39.5 21
    endloop
  endfacet
  facet normal 1 0 0
    outer loop
      vertex -71 39.5 6
      vertex -71 37.5 21
      vertex -71 37.5 6
    endloop
  endfacet
  facet normal 0 1 -0
    outer loop
      vertex -71 39.5 6
      vertex -86 39.5 21
      vertex -71 39.5 21
    endloop
  endfacet
  facet normal 0 1 0
    outer loop
      vertex -86 39.5 21
      vertex -71 39.5 6
      vertex -86 39.5 6
    endloop
  endfacet
  facet normal -0.951056 -0.309018 0
    outer loop
      vertex 1.75 50.45 2
      vertex 1.41578 51.4786 3
      vertex 1.41578 51.4786 2
    endloop
  endfacet
  facet normal -0.951056 -0.309018 0
    outer loop
      vertex 1.41578 51.4786 3
      vertex 1.75 50.45 2
      vertex 1.75 50.45 3
    endloop
  endfacet
  facet normal 0.587787 -0.809016 0
    outer loop
      vertex -1.41578 51.4786 2
      vertex -0.540779 52.1143 3
      vertex -1.41578 51.4786 3
    endloop
  endfacet
  facet normal 0.587787 -0.809016 0
    outer loop
      vertex -0.540779 52.1143 3
      vertex -1.41578 51.4786 2
      vertex -0.540779 52.1143 2
    endloop
  endfacet
  facet normal -0.587787 -0.809016 0
    outer loop
      vertex 0.540779 52.1143 2
      vertex 1.41578 51.4786 3
      vertex 0.540779 52.1143 3
    endloop
  endfacet
  facet normal -0.587787 -0.809016 -0
    outer loop
      vertex 1.41578 51.4786 3
      vertex 0.540779 52.1143 2
      vertex 1.41578 51.4786 2
    endloop
  endfacet
  facet normal 0.951056 -0.309018 0
    outer loop
      vertex -1.75 50.45 3
      vertex -1.41578 51.4786 2
      vertex -1.41578 51.4786 3
    endloop
  endfacet
  facet normal 0.951056 -0.309018 0
    outer loop
      vertex -1.41578 51.4786 2
      vertex -1.75 50.45 3
      vertex -1.75 50.45 2
    endloop
  endfacet
  facet normal -0.587784 0.809018 0
    outer loop
      vertex 1.41578 49.4214 2
      vertex 0.540779 48.7857 3
      vertex 1.41578 49.4214 3
    endloop
  endfacet
  facet normal -0.587784 0.809018 0
    outer loop
      vertex 0.540779 48.7857 3
      vertex 1.41578 49.4214 2
      vertex 0.540779 48.7857 2
    endloop
  endfacet
  facet normal 0.587784 0.809018 -0
    outer loop
      vertex -0.540779 48.7857 2
      vertex -1.41578 49.4214 3
      vertex -0.540779 48.7857 3
    endloop
  endfacet
  facet normal 0.587784 0.809018 0
    outer loop
      vertex -1.41578 49.4214 3
      vertex -0.540779 48.7857 2
      vertex -1.41578 49.4214 2
    endloop
  endfacet
  facet normal 0 -1 0
    outer loop
      vertex -0.540779 52.1143 2
      vertex 0.540779 52.1143 3
      vertex -0.540779 52.1143 3
    endloop
  endfacet
  facet normal 0 -1 -0
    outer loop
      vertex 0.540779 52.1143 3
      vertex -0.540779 52.1143 2
      vertex 0.540779 52.1143 2
    endloop
  endfacet
  facet normal 0.951056 0.309017 0
    outer loop
      vertex -1.41578 49.4214 3
      vertex -1.75 50.45 2
      vertex -1.75 50.45 3
    endloop
  endfacet
  facet normal 0.951056 0.309017 0
    outer loop
      vertex -1.75 50.45 2
      vertex -1.41578 49.4214 3
      vertex -1.41578 49.4214 2
    endloop
  endfacet
  facet normal 0 1 -0
    outer loop
      vertex 0.540779 48.7857 2
      vertex -0.540779 48.7857 3
      vertex 0.540779 48.7857 3
    endloop
  endfacet
  facet normal 0 1 0
    outer loop
      vertex -0.540779 48.7857 3
      vertex 0.540779 48.7857 2
      vertex -0.540779 48.7857 2
    endloop
  endfacet
  facet normal -0.951056 0.309017 0
    outer loop
      vertex 1.41578 49.4214 2
      vertex 1.75 50.45 3
      vertex 1.75 50.45 2
    endloop
  endfacet
  facet normal -0.951056 0.309017 0
    outer loop
      vertex 1.75 50.45 3
      vertex 1.41578 49.4214 2
      vertex 1.41578 49.4214 3
    endloop
  endfacet
  facet normal -0.951056 -0.309018 0
    outer loop
      vertex 53.25 50.45 0
      vertex 52.9158 51.4786 3
      vertex 52.9158 51.4786 0
    endloop
  endfacet
  facet normal -0.951056 -0.309018 0
    outer loop
      vertex 52.9158 51.4786 3
      vertex 53.25 50.45 0
      vertex 53.25 50.45 3
    endloop
  endfacet
  facet normal 0.587787 -0.809016 0
    outer loop
      vertex 50.0842 51.4786 0
      vertex 50.9592 52.1143 3
      vertex 50.0842 51.4786 3
    endloop
  endfacet
  facet normal 0.587787 -0.809016 0
    outer loop
      vertex 50.9592 52.1143 3
      vertex 50.0842 51.4786 0
      vertex 50.9592 52.1143 0
    endloop
  endfacet
  facet normal -0.587787 -0.809016 0
    outer loop
      vertex 52.0408 52.1143 0
      vertex 52.9158 51.4786 3
      vertex 52.0408 52.1143 3
    endloop
  endfacet
  facet normal -0.587787 -0.809016 -0
    outer loop
      vertex 52.9158 51.4786 3
      vertex 52.0408 52.1143 0
      vertex 52.9158 51.4786 0
    endloop
  endfacet
  facet normal 0.951056 -0.309018 0
    outer loop
      vertex 49.75 50.45 3
      vertex 50.0842 51.4786 0
      vertex 50.0842 51.4786 3
    endloop
  endfacet
  facet normal 0.951056 -0.309018 0
    outer loop
      vertex 50.0842 51.4786 0
      vertex 49.75 50.45 3
      vertex 49.75 50.45 0
    endloop
  endfacet
  facet normal -0.587784 0.809018 0
    outer loop
      vertex 52.9158 49.4214 0
      vertex 52.0408 48.7857 3
      vertex 52.9158 49.4214 3
    endloop
  endfacet
  facet normal -0.587784 0.809018 0
    outer loop
      vertex 52.0408 48.7857 3
      vertex 52.9158 49.4214 0
      vertex 52.0408 48.7857 0
    endloop
  endfacet
  facet normal 0.587784 0.809018 -0
    outer loop
      vertex 50.9592 48.7857 0
      vertex 50.0842 49.4214 3
      vertex 50.9592 48.7857 3
    endloop
  endfacet
  facet normal 0.587784 0.809018 0
    outer loop
      vertex 50.0842 49.4214 3
      vertex 50.9592 48.7857 0
      vertex 50.0842 49.4214 0
    endloop
  endfacet
  facet normal 0 -1 0
    outer loop
      vertex 50.9592 52.1143 0
      vertex 52.0408 52.1143 3
      vertex 50.9592 52.1143 3
    endloop
  endfacet
  facet normal 0 -1 -0
    outer loop
      vertex 52.0408 52.1143 3
      vertex 50.9592 52.1143 0
      vertex 52.0408 52.1143 0
    endloop
  endfacet
  facet normal 0.951056 0.309017 0
    outer loop
      vertex 50.0842 49.4214 3
      vertex 49.75 50.45 0
      vertex 49.75 50.45 3
    endloop
  endfacet
  facet normal 0.951056 0.309017 0
    outer loop
      vertex 49.75 50.45 0
      vertex 50.0842 49.4214 3
      vertex 50.0842 49.4214 0
    endloop
  endfacet
  facet normal 0 1 -0
    outer loop
      vertex 52.0408 48.7857 0
      vertex 50.9592 48.7857 3
      vertex 52.0408 48.7857 3
    endloop
  endfacet
  facet normal 0 1 0
    outer loop
      vertex 50.9592 48.7857 3
      vertex 52.0408 48.7857 0
      vertex 50.9592 48.7857 0
    endloop
  endfacet
  facet normal -0.951056 0.309017 0
    outer loop
      vertex 52.9158 49.4214 0
      vertex 53.25 50.45 3
      vertex 53.25 50.45 0
    endloop
  endfacet
  facet normal -0.951056 0.309017 0
    outer loop
      vertex 53.25 50.45 3
      vertex 52.9158 49.4214 0
      vertex 52.9158 49.4214 3
    endloop
  endfacet
  facet normal -0.951056 -0.309018 0
    outer loop
      vertex -49.75 50.45 0
      vertex -50.0842 51.4786 3
      vertex -50.0842 51.4786 0
    endloop
  endfacet
  facet normal -0.951056 -0.309018 0
    outer loop
      vertex -50.0842 51.4786 3
      vertex -49.75 50.45 0
      vertex -49.75 50.45 3
    endloop
  endfacet
  facet normal 0.951056 -0.309018 0
    outer loop
      vertex -53.25 50.45 3
      vertex -52.9158 51.4786 0
      vertex -52.9158 51.4786 3
    endloop
  endfacet
  facet normal 0.951056 -0.309018 0
    outer loop
      vertex -52.9158 51.4786 0
      vertex -53.25 50.45 3
      vertex -53.25 50.45 0
    endloop
  endfacet
  facet normal 0 1 -0
    outer loop
      vertex -50.9592 48.7857 0
      vertex -52.0408 48.7857 3
      vertex -50.9592 48.7857 3
    endloop
  endfacet
  facet normal 0 1 0
    outer loop
      vertex -52.0408 48.7857 3
      vertex -50.9592 48.7857 0
      vertex -52.0408 48.7857 0
    endloop
  endfacet
  facet normal 0 -1 0
    outer loop
      vertex -52.0408 52.1143 0
      vertex -50.9592 52.1143 3
      vertex -52.0408 52.1143 3
    endloop
  endfacet
  facet normal 0 -1 -0
    outer loop
      vertex -50.9592 52.1143 3
      vertex -52.0408 52.1143 0
      vertex -50.9592 52.1143 0
    endloop
  endfacet
  facet normal -0.587787 -0.809016 0
    outer loop
      vertex -50.9592 52.1143 0
      vertex -50.0842 51.4786 3
      vertex -50.9592 52.1143 3
    endloop
  endfacet
  facet normal -0.587787 -0.809016 -0
    outer loop
      vertex -50.0842 51.4786 3
      vertex -50.9592 52.1143 0
      vertex -50.0842 51.4786 0
    endloop
  endfacet
  facet normal 0.587787 -0.809016 0
    outer loop
      vertex -52.9158 51.4786 0
      vertex -52.0408 52.1143 3
      vertex -52.9158 51.4786 3
    endloop
  endfacet
  facet normal 0.587787 -0.809016 0
    outer loop
      vertex -52.0408 52.1143 3
      vertex -52.9158 51.4786 0
      vertex -52.0408 52.1143 0
    endloop
  endfacet
  facet normal -0.951056 0.309017 0
    outer loop
      vertex -50.0842 49.4214 0
      vertex -49.75 50.45 3
      vertex -49.75 50.45 0
    endloop
  endfacet
  facet normal -0.951056 0.309017 0
    outer loop
      vertex -49.75 50.45 3
      vertex -50.0842 49.4214 0
      vertex -50.0842 49.4214 3
    endloop
  endfacet
  facet normal -0.587784 0.809018 0
    outer loop
      vertex -50.0842 49.4214 0
      vertex -50.9592 48.7857 3
      vertex -50.0842 49.4214 3
    endloop
  endfacet
  facet normal -0.587784 0.809018 0
    outer loop
      vertex -50.9592 48.7857 3
      vertex -50.0842 49.4214 0
      vertex -50.9592 48.7857 0
    endloop
  endfacet
  facet normal 0.587784 0.809018 -0
    outer loop
      vertex -52.0408 48.7857 0
      vertex -52.9158 49.4214 3
      vertex -52.0408 48.7857 3
    endloop
  endfacet
  facet normal 0.587784 0.809018 0
    outer loop
      vertex -52.9158 49.4214 3
      vertex -52.0408 48.7857 0
      vertex -52.9158 49.4214 0
    endloop
  endfacet
  facet normal 0.951056 0.309017 0
    outer loop
      vertex -52.9158 49.4214 3
      vertex -53.25 50.45 0
      vertex -53.25 50.45 3
    endloop
  endfacet
  facet normal 0.951056 0.309017 0
    outer loop
      vertex -53.25 50.45 0
      vertex -52.9158 49.4214 3
      vertex -52.9158 49.4214 0
    endloop
  endfacet
  facet normal -0.951056 -0.309017 0
    outer loop
      vertex 3.25 50.45 0
      vertex 2.6293 52.3603 2
      vertex 2.6293 52.3603 0
    endloop
  endfacet
  facet normal -0.951056 -0.309017 0
    outer loop
      vertex 2.6293 52.3603 2
      vertex 3.25 50.45 0
      vertex 3.25 50.45 2
    endloop
  endfacet
  facet normal 0 -1 0
    outer loop
      vertex -1.0043 53.5409 0
      vertex 1.0043 53.5409 2
      vertex -1.0043 53.5409 2
    endloop
  endfacet
  facet normal 0 -1 -0
    outer loop
      vertex 1.0043 53.5409 2
      vertex -1.0043 53.5409 0
      vertex 1.0043 53.5409 0
    endloop
  endfacet
  facet normal -0.587785 -0.809017 0
    outer loop
      vertex 1.0043 53.5409 0
      vertex 2.6293 52.3603 2
      vertex 1.0043 53.5409 2
    endloop
  endfacet
  facet normal -0.587785 -0.809017 -0
    outer loop
      vertex 2.6293 52.3603 2
      vertex 1.0043 53.5409 0
      vertex 2.6293 52.3603 0
    endloop
  endfacet
  facet normal -0.587786 0.809017 0
    outer loop
      vertex 2.6293 48.5397 0
      vertex 1.0043 47.3591 2
      vertex 2.6293 48.5397 2
    endloop
  endfacet
  facet normal -0.587786 0.809017 0
    outer loop
      vertex 1.0043 47.3591 2
      vertex 2.6293 48.5397 0
      vertex 1.0043 47.3591 0
    endloop
  endfacet
  facet normal 0.587786 0.809017 -0
    outer loop
      vertex -1.0043 47.3591 0
      vertex -2.6293 48.5397 2
      vertex -1.0043 47.3591 2
    endloop
  endfacet
  facet normal 0.587786 0.809017 0
    outer loop
      vertex -2.6293 48.5397 2
      vertex -1.0043 47.3591 0
      vertex -2.6293 48.5397 0
    endloop
  endfacet
  facet normal 0.951056 -0.309017 0
    outer loop
      vertex -3.25 50.45 2
      vertex -2.6293 52.3603 0
      vertex -2.6293 52.3603 2
    endloop
  endfacet
  facet normal 0.951056 -0.309017 0
    outer loop
      vertex -2.6293 52.3603 0
      vertex -3.25 50.45 2
      vertex -3.25 50.45 0
    endloop
  endfacet
  facet normal 0.951056 0.309017 0
    outer loop
      vertex -2.6293 48.5397 2
      vertex -3.25 50.45 0
      vertex -3.25 50.45 2
    endloop
  endfacet
  facet normal 0.951056 0.309017 0
    outer loop
      vertex -3.25 50.45 0
      vertex -2.6293 48.5397 2
      vertex -2.6293 48.5397 0
    endloop
  endfacet
  facet normal 0.587785 -0.809017 0
    outer loop
      vertex -2.6293 52.3603 0
      vertex -1.0043 53.5409 2
      vertex -2.6293 52.3603 2
    endloop
  endfacet
  facet normal 0.587785 -0.809017 0
    outer loop
      vertex -1.0043 53.5409 2
      vertex -2.6293 52.3603 0
      vertex -1.0043 53.5409 0
    endloop
  endfacet
  facet normal 0 1 -0
    outer loop
      vertex 1.0043 47.3591 0
      vertex -1.0043 47.3591 2
      vertex 1.0043 47.3591 2
    endloop
  endfacet
  facet normal 0 1 0
    outer loop
      vertex -1.0043 47.3591 2
      vertex 1.0043 47.3591 0
      vertex -1.0043 47.3591 0
    endloop
  endfacet
  facet normal 0 0 -1
    outer loop
      vertex 1.75 50.45 2
      vertex 3.25 50.45 2
      vertex 2.6293 48.5397 2
    endloop
  endfacet
  facet normal 0 0 -1
    outer loop
      vertex 3.25 50.45 2
      vertex 1.75 50.45 2
      vertex 2.6293 52.3603 2
    endloop
  endfacet
  facet normal 0 0 -1
    outer loop
      vertex 2.6293 48.5397 2
      vertex 1.41578 49.4214 2
      vertex 1.75 50.45 2
    endloop
  endfacet
  facet normal 0 0 -1
    outer loop
      vertex 1.0043 47.3591 2
      vertex 1.41578 49.4214 2
      vertex 2.6293 48.5397 2
    endloop
  endfacet
  facet normal 0 0 -1
    outer loop
      vertex 1.0043 47.3591 2
      vertex 0.540779 48.7857 2
      vertex 1.41578 49.4214 2
    endloop
  endfacet
  facet normal 0 0 -1
    outer loop
      vertex 1.0043 47.3591 2
      vertex -0.540779 48.7857 2
      vertex 0.540779 48.7857 2
    endloop
  endfacet
  facet normal 0 0 -1
    outer loop
      vertex -1.0043 47.3591 2
      vertex -0.540779 48.7857 2
      vertex 1.0043 47.3591 2
    endloop
  endfacet
  facet normal 0 0 -1
    outer loop
      vertex -1.0043 47.3591 2
      vertex -1.41578 49.4214 2
      vertex -0.540779 48.7857 2
    endloop
  endfacet
  facet normal 0 0 -1
    outer loop
      vertex -2.6293 48.5397 2
      vertex -1.41578 49.4214 2
      vertex -1.0043 47.3591 2
    endloop
  endfacet
  facet normal -0 0 -1
    outer loop
      vertex -1.41578 49.4214 2
      vertex -2.6293 48.5397 2
      vertex -1.75 50.45 2
    endloop
  endfacet
  facet normal 0 0 -1
    outer loop
      vertex 1.41578 51.4786 2
      vertex 2.6293 52.3603 2
      vertex 1.75 50.45 2
    endloop
  endfacet
  facet normal 0 0 -1
    outer loop
      vertex 1.41578 51.4786 2
      vertex 1.0043 53.5409 2
      vertex 2.6293 52.3603 2
    endloop
  endfacet
  facet normal 0 0 -1
    outer loop
      vertex 0.540779 52.1143 2
      vertex 1.0043 53.5409 2
      vertex 1.41578 51.4786 2
    endloop
  endfacet
  facet normal 0 0 -1
    outer loop
      vertex -0.540779 52.1143 2
      vertex 1.0043 53.5409 2
      vertex 0.540779 52.1143 2
    endloop
  endfacet
  facet normal 0 0 -1
    outer loop
      vertex -0.540779 52.1143 2
      vertex -1.0043 53.5409 2
      vertex 1.0043 53.5409 2
    endloop
  endfacet
  facet normal 0 0 -1
    outer loop
      vertex -1.41578 51.4786 2
      vertex -1.0043 53.5409 2
      vertex -0.540779 52.1143 2
    endloop
  endfacet
  facet normal 0 0 -1
    outer loop
      vertex -2.6293 52.3603 2
      vertex -1.41578 51.4786 2
      vertex -1.75 50.45 2
    endloop
  endfacet
  facet normal 0 0 -1
    outer loop
      vertex -3.25 50.45 2
      vertex -1.75 50.45 2
      vertex -2.6293 48.5397 2
    endloop
  endfacet
  facet normal 0 0 -1
    outer loop
      vertex -1.41578 51.4786 2
      vertex -2.6293 52.3603 2
      vertex -1.0043 53.5409 2
    endloop
  endfacet
  facet normal 0 0 -1
    outer loop
      vertex -1.75 50.45 2
      vertex -3.25 50.45 2
      vertex -2.6293 52.3603 2
    endloop
  endfacet
  facet normal -0.951056 0.309017 0
    outer loop
      vertex 2.6293 48.5397 0
      vertex 3.25 50.45 2
      vertex 3.25 50.45 0
    endloop
  endfacet
  facet normal -0.951056 0.309017 0
    outer loop
      vertex 3.25 50.45 2
      vertex 2.6293 48.5397 0
      vertex 2.6293 48.5397 2
    endloop
  endfacet
  facet normal -0.951056 -0.309017 0
    outer loop
      vertex 3 50.45 3
      vertex 2.42705 52.2134 6
      vertex 2.42705 52.2134 3
    endloop
  endfacet
  facet normal -0.951056 -0.309017 0
    outer loop
      vertex 2.42705 52.2134 6
      vertex 3 50.45 3
      vertex 3 50.45 6
    endloop
  endfacet
  facet normal -0.587785 0.809017 0
    outer loop
      vertex 2.42705 48.6866 3
      vertex 0.927051 47.5968 6
      vertex 2.42705 48.6866 6
    endloop
  endfacet
  facet normal -0.587785 0.809017 0
    outer loop
      vertex 0.927051 47.5968 6
      vertex 2.42705 48.6866 3
      vertex 0.927051 47.5968 3
    endloop
  endfacet
  facet normal 0 -1 0
    outer loop
      vertex -0.927051 53.3032 3
      vertex 0.927051 53.3032 6
      vertex -0.927051 53.3032 6
    endloop
  endfacet
  facet normal 0 -1 -0
    outer loop
      vertex 0.927051 53.3032 6
      vertex -0.927051 53.3032 3
      vertex 0.927051 53.3032 3
    endloop
  endfacet
  facet normal -0.587785 -0.809017 0
    outer loop
      vertex 0.927051 53.3032 3
      vertex 2.42705 52.2134 6
      vertex 0.927051 53.3032 6
    endloop
  endfacet
  facet normal -0.587785 -0.809017 -0
    outer loop
      vertex 2.42705 52.2134 6
      vertex 0.927051 53.3032 3
      vertex 2.42705 52.2134 3
    endloop
  endfacet
  facet normal 0 0 1
    outer loop
      vertex 1.75 50.45 3
      vertex 3 50.45 3
      vertex 2.42705 52.2134 3
    endloop
  endfacet
  facet normal 0 0 1
    outer loop
      vertex 3 50.45 3
      vertex 1.75 50.45 3
      vertex 2.42705 48.6866 3
    endloop
  endfacet
  facet normal 0 0 1
    outer loop
      vertex 2.42705 52.2134 3
      vertex 1.41578 51.4786 3
      vertex 1.75 50.45 3
    endloop
  endfacet
  facet normal 0 0 1
    outer loop
      vertex 0.927051 53.3032 3
      vertex 1.41578 51.4786 3
      vertex 2.42705 52.2134 3
    endloop
  endfacet
  facet normal 0 0 1
    outer loop
      vertex 0.927051 53.3032 3
      vertex 0.540779 52.1143 3
      vertex 1.41578 51.4786 3
    endloop
  endfacet
  facet normal 0 0 1
    outer loop
      vertex 0.927051 53.3032 3
      vertex -0.540779 52.1143 3
      vertex 0.540779 52.1143 3
    endloop
  endfacet
  facet normal -0 0 1
    outer loop
      vertex -0.927051 53.3032 3
      vertex -0.540779 52.1143 3
      vertex 0.927051 53.3032 3
    endloop
  endfacet
  facet normal 0 0 1
    outer loop
      vertex -0.927051 53.3032 3
      vertex -1.41578 51.4786 3
      vertex -0.540779 52.1143 3
    endloop
  endfacet
  facet normal -0 0 1
    outer loop
      vertex -2.42705 52.2134 3
      vertex -1.41578 51.4786 3
      vertex -0.927051 53.3032 3
    endloop
  endfacet
  facet normal 0 0 1
    outer loop
      vertex -1.41578 51.4786 3
      vertex -2.42705 52.2134 3
      vertex -1.75 50.45 3
    endloop
  endfacet
  facet normal -0 0 1
    outer loop
      vertex 1.41578 49.4214 3
      vertex 2.42705 48.6866 3
      vertex 1.75 50.45 3
    endloop
  endfacet
  facet normal 0 0 1
    outer loop
      vertex 1.41578 49.4214 3
      vertex 0.927051 47.5968 3
      vertex 2.42705 48.6866 3
    endloop
  endfacet
  facet normal -0 0 1
    outer loop
      vertex 0.540779 48.7857 3
      vertex 0.927051 47.5968 3
      vertex 1.41578 49.4214 3
    endloop
  endfacet
  facet normal -0 0 1
    outer loop
      vertex -0.540779 48.7857 3
      vertex 0.927051 47.5968 3
      vertex 0.540779 48.7857 3
    endloop
  endfacet
  facet normal 0 0 1
    outer loop
      vertex -0.540779 48.7857 3
      vertex -0.927051 47.5968 3
      vertex 0.927051 47.5968 3
    endloop
  endfacet
  facet normal 0 0 1
    outer loop
      vertex -1.41578 49.4214 3
      vertex -0.927051 47.5968 3
      vertex -0.540779 48.7857 3
    endloop
  endfacet
  facet normal 0 0 1
    outer loop
      vertex -2.42705 48.6866 3
      vertex -1.41578 49.4214 3
      vertex -1.75 50.45 3
    endloop
  endfacet
  facet normal 0 0 1
    outer loop
      vertex -3 50.45 3
      vertex -1.75 50.45 3
      vertex -2.42705 52.2134 3
    endloop
  endfacet
  facet normal 0 0 1
    outer loop
      vertex -1.41578 49.4214 3
      vertex -2.42705 48.6866 3
      vertex -0.927051 47.5968 3
    endloop
  endfacet
  facet normal 0 0 1
    outer loop
      vertex -1.75 50.45 3
      vertex -3 50.45 3
      vertex -2.42705 48.6866 3
    endloop
  endfacet
  facet normal -0.951056 0.309017 0
    outer loop
      vertex 2.42705 48.6866 3
      vertex 3 50.45 6
      vertex 3 50.45 3
    endloop
  endfacet
  facet normal -0.951056 0.309017 0
    outer loop
      vertex 3 50.45 6
      vertex 2.42705 48.6866 3
      vertex 2.42705 48.6866 6
    endloop
  endfacet
  facet normal 0.951056 -0.309017 0
    outer loop
      vertex -3 50.45 6
      vertex -2.42705 52.2134 3
      vertex -2.42705 52.2134 6
    endloop
  endfacet
  facet normal 0.951056 -0.309017 0
    outer loop
      vertex -2.42705 52.2134 3
      vertex -3 50.45 6
      vertex -3 50.45 3
    endloop
  endfacet
  facet normal 0.951056 0.309017 0
    outer loop
      vertex -2.42705 48.6866 6
      vertex -3 50.45 3
      vertex -3 50.45 6
    endloop
  endfacet
  facet normal 0.951056 0.309017 0
    outer loop
      vertex -3 50.45 3
      vertex -2.42705 48.6866 6
      vertex -2.42705 48.6866 3
    endloop
  endfacet
  facet normal 0.587785 -0.809017 0
    outer loop
      vertex -2.42705 52.2134 3
      vertex -0.927051 53.3032 6
      vertex -2.42705 52.2134 6
    endloop
  endfacet
  facet normal 0.587785 -0.809017 0
    outer loop
      vertex -0.927051 53.3032 6
      vertex -2.42705 52.2134 3
      vertex -0.927051 53.3032 3
    endloop
  endfacet
  facet normal 0.587785 0.809017 -0
    outer loop
      vertex -0.927051 47.5968 3
      vertex -2.42705 48.6866 6
      vertex -0.927051 47.5968 6
    endloop
  endfacet
  facet normal 0.587785 0.809017 0
    outer loop
      vertex -2.42705 48.6866 6
      vertex -0.927051 47.5968 3
      vertex -2.42705 48.6866 3
    endloop
  endfacet
  facet normal 0 1 -0
    outer loop
      vertex 0.927051 47.5968 3
      vertex -0.927051 47.5968 6
      vertex 0.927051 47.5968 6
    endloop
  endfacet
  facet normal 0 1 0
    outer loop
      vertex -0.927051 47.5968 6
      vertex 0.927051 47.5968 3
      vertex -0.927051 47.5968 3
    endloop
  endfacet
  facet normal -0.951057 -0.309017 0
    outer loop
      vertex 54.5 50.45 3
      vertex 53.9271 52.2134 6
      vertex 53.9271 52.2134 3
    endloop
  endfacet
  facet normal -0.951057 -0.309017 0
    outer loop
      vertex 53.9271 52.2134 6
      vertex 54.5 50.45 3
      vertex 54.5 50.45 6
    endloop
  endfacet
  facet normal 0.951057 0.309017 0
    outer loop
      vertex 49.0729 48.6866 6
      vertex 48.5 50.45 3
      vertex 48.5 50.45 6
    endloop
  endfacet
  facet normal 0.951057 0.309017 0
    outer loop
      vertex 48.5 50.45 3
      vertex 49.0729 48.6866 6
      vertex 49.0729 48.6866 3
    endloop
  endfacet
  facet normal -0.587785 0.809017 0
    outer loop
      vertex 53.9271 48.6866 3
      vertex 52.4271 47.5968 6
      vertex 53.9271 48.6866 6
    endloop
  endfacet
  facet normal -0.587785 0.809017 0
    outer loop
      vertex 52.4271 47.5968 6
      vertex 53.9271 48.6866 3
      vertex 52.4271 47.5968 3
    endloop
  endfacet
  facet normal 0 -1 0
    outer loop
      vertex 50.5729 53.3032 3
      vertex 52.4271 53.3032 6
      vertex 50.5729 53.3032 6
    endloop
  endfacet
  facet normal 0 -1 -0
    outer loop
      vertex 52.4271 53.3032 6
      vertex 50.5729 53.3032 3
      vertex 52.4271 53.3032 3
    endloop
  endfacet
  facet normal -0.587785 -0.809017 0
    outer loop
      vertex 52.4271 53.3032 3
      vertex 53.9271 52.2134 6
      vertex 52.4271 53.3032 6
    endloop
  endfacet
  facet normal -0.587785 -0.809017 -0
    outer loop
      vertex 53.9271 52.2134 6
      vertex 52.4271 53.3032 3
      vertex 53.9271 52.2134 3
    endloop
  endfacet
  facet normal 0.587785 -0.809017 0
    outer loop
      vertex 49.0729 52.2134 3
      vertex 50.5729 53.3032 6
      vertex 49.0729 52.2134 6
    endloop
  endfacet
  facet normal 0.587785 -0.809017 0
    outer loop
      vertex 50.5729 53.3032 6
      vertex 49.0729 52.2134 3
      vertex 50.5729 53.3032 3
    endloop
  endfacet
  facet normal -0.951057 0.309017 0
    outer loop
      vertex 53.9271 48.6866 3
      vertex 54.5 50.45 6
      vertex 54.5 50.45 3
    endloop
  endfacet
  facet normal -0.951057 0.309017 0
    outer loop
      vertex 54.5 50.45 6
      vertex 53.9271 48.6866 3
      vertex 53.9271 48.6866 6
    endloop
  endfacet
  facet normal 0 0 1
    outer loop
      vertex 53.25 50.45 3
      vertex 54.5 50.45 3
      vertex 53.9271 52.2134 3
    endloop
  endfacet
  facet normal 0 0 1
    outer loop
      vertex 54.5 50.45 3
      vertex 53.25 50.45 3
      vertex 53.9271 48.6866 3
    endloop
  endfacet
  facet normal 0 0 1
    outer loop
      vertex 53.9271 52.2134 3
      vertex 52.9158 51.4786 3
      vertex 53.25 50.45 3
    endloop
  endfacet
  facet normal 0 0 1
    outer loop
      vertex 52.4271 53.3032 3
      vertex 52.9158 51.4786 3
      vertex 53.9271 52.2134 3
    endloop
  endfacet
  facet normal 0 0 1
    outer loop
      vertex 52.4271 53.3032 3
      vertex 52.0408 52.1143 3
      vertex 52.9158 51.4786 3
    endloop
  endfacet
  facet normal 0 0 1
    outer loop
      vertex 52.4271 53.3032 3
      vertex 50.9592 52.1143 3
      vertex 52.0408 52.1143 3
    endloop
  endfacet
  facet normal -0 0 1
    outer loop
      vertex 50.5729 53.3032 3
      vertex 50.9592 52.1143 3
      vertex 52.4271 53.3032 3
    endloop
  endfacet
  facet normal 0 0 1
    outer loop
      vertex 50.5729 53.3032 3
      vertex 50.0842 51.4786 3
      vertex 50.9592 52.1143 3
    endloop
  endfacet
  facet normal -0 0 1
    outer loop
      vertex 49.0729 52.2134 3
      vertex 50.0842 51.4786 3
      vertex 50.5729 53.3032 3
    endloop
  endfacet
  facet normal 0 0 1
    outer loop
      vertex 50.0842 51.4786 3
      vertex 49.0729 52.2134 3
      vertex 49.75 50.45 3
    endloop
  endfacet
  facet normal -0 0 1
    outer loop
      vertex 52.9158 49.4214 3
      vertex 53.9271 48.6866 3
      vertex 53.25 50.45 3
    endloop
  endfacet
  facet normal 0 0 1
    outer loop
      vertex 52.9158 49.4214 3
      vertex 52.4271 47.5968 3
      vertex 53.9271 48.6866 3
    endloop
  endfacet
  facet normal -0 0 1
    outer loop
      vertex 52.0408 48.7857 3
      vertex 52.4271 47.5968 3
      vertex 52.9158 49.4214 3
    endloop
  endfacet
  facet normal -0 0 1
    outer loop
      vertex 50.9592 48.7857 3
      vertex 52.4271 47.5968 3
      vertex 52.0408 48.7857 3
    endloop
  endfacet
  facet normal 0 0 1
    outer loop
      vertex 50.9592 48.7857 3
      vertex 50.5729 47.5968 3
      vertex 52.4271 47.5968 3
    endloop
  endfacet
  facet normal 0 0 1
    outer loop
      vertex 50.0842 49.4214 3
      vertex 50.5729 47.5968 3
      vertex 50.9592 48.7857 3
    endloop
  endfacet
  facet normal 0 0 1
    outer loop
      vertex 49.0729 48.6866 3
      vertex 50.0842 49.4214 3
      vertex 49.75 50.45 3
    endloop
  endfacet
  facet normal 0 0 1
    outer loop
      vertex 48.5 50.45 3
      vertex 49.75 50.45 3
      vertex 49.0729 52.2134 3
    endloop
  endfacet
  facet normal 0 0 1
    outer loop
      vertex 50.0842 49.4214 3
      vertex 49.0729 48.6866 3
      vertex 50.5729 47.5968 3
    endloop
  endfacet
  facet normal 0 0 1
    outer loop
      vertex 49.75 50.45 3
      vertex 48.5 50.45 3
      vertex 49.0729 48.6866 3
    endloop
  endfacet
  facet normal 0.951057 -0.309017 0
    outer loop
      vertex 48.5 50.45 6
      vertex 49.0729 52.2134 3
      vertex 49.0729 52.2134 6
    endloop
  endfacet
  facet normal 0.951057 -0.309017 0
    outer loop
      vertex 49.0729 52.2134 3
      vertex 48.5 50.45 6
      vertex 48.5 50.45 3
    endloop
  endfacet
  facet normal 0.587785 0.809017 -0
    outer loop
      vertex 50.5729 47.5968 3
      vertex 49.0729 48.6866 6
      vertex 50.5729 47.5968 6
    endloop
  endfacet
  facet normal 0.587785 0.809017 0
    outer loop
      vertex 49.0729 48.6866 6
      vertex 50.5729 47.5968 3
      vertex 49.0729 48.6866 3
    endloop
  endfacet
  facet normal 0 1 -0
    outer loop
      vertex 52.4271 47.5968 3
      vertex 50.5729 47.5968 6
      vertex 52.4271 47.5968 6
    endloop
  endfacet
  facet normal 0 1 0
    outer loop
      vertex 50.5729 47.5968 6
      vertex 52.4271 47.5968 3
      vertex 50.5729 47.5968 3
    endloop
  endfacet
  facet normal -0.951057 -0.309017 0
    outer loop
      vertex -48.5 50.45 3
      vertex -49.0729 52.2134 6
      vertex -49.0729 52.2134 3
    endloop
  endfacet
  facet normal -0.951057 -0.309017 0
    outer loop
      vertex -49.0729 52.2134 6
      vertex -48.5 50.45 3
      vertex -48.5 50.45 6
    endloop
  endfacet
  facet normal 0.951057 -0.309017 0
    outer loop
      vertex -54.5 50.45 6
      vertex -53.9271 52.2134 3
      vertex -53.9271 52.2134 6
    endloop
  endfacet
  facet normal 0.951057 -0.309017 0
    outer loop
      vertex -53.9271 52.2134 3
      vertex -54.5 50.45 6
      vertex -54.5 50.45 3
    endloop
  endfacet
  facet normal 0 0 1
    outer loop
      vertex -49.75 50.45 3
      vertex -48.5 50.45 3
      vertex -49.0729 52.2134 3
    endloop
  endfacet
  facet normal 0 0 1
    outer loop
      vertex -48.5 50.45 3
      vertex -49.75 50.45 3
      vertex -49.0729 48.6866 3
    endloop
  endfacet
  facet normal 0 0 1
    outer loop
      vertex -49.0729 52.2134 3
      vertex -50.0842 51.4786 3
      vertex -49.75 50.45 3
    endloop
  endfacet
  facet normal 0 0 1
    outer loop
      vertex -50.5729 53.3032 3
      vertex -50.0842 51.4786 3
      vertex -49.0729 52.2134 3
    endloop
  endfacet
  facet normal 0 0 1
    outer loop
      vertex -50.5729 53.3032 3
      vertex -50.9592 52.1143 3
      vertex -50.0842 51.4786 3
    endloop
  endfacet
  facet normal 0 0 1
    outer loop
      vertex -50.5729 53.3032 3
      vertex -52.0408 52.1143 3
      vertex -50.9592 52.1143 3
    endloop
  endfacet
  facet normal -0 0 1
    outer loop
      vertex -52.4271 53.3032 3
      vertex -52.0408 52.1143 3
      vertex -50.5729 53.3032 3
    endloop
  endfacet
  facet normal 0 0 1
    outer loop
      vertex -52.4271 53.3032 3
      vertex -52.9158 51.4786 3
      vertex -52.0408 52.1143 3
    endloop
  endfacet
  facet normal -0 0 1
    outer loop
      vertex -53.9271 52.2134 3
      vertex -52.9158 51.4786 3
      vertex -52.4271 53.3032 3
    endloop
  endfacet
  facet normal 0 0 1
    outer loop
      vertex -52.9158 51.4786 3
      vertex -53.9271 52.2134 3
      vertex -53.25 50.45 3
    endloop
  endfacet
  facet normal -0 0 1
    outer loop
      vertex -50.0842 49.4214 3
      vertex -49.0729 48.6866 3
      vertex -49.75 50.45 3
    endloop
  endfacet
  facet normal 0 0 1
    outer loop
      vertex -50.0842 49.4214 3
      vertex -50.5729 47.5968 3
      vertex -49.0729 48.6866 3
    endloop
  endfacet
  facet normal -0 0 1
    outer loop
      vertex -50.9592 48.7857 3
      vertex -50.5729 47.5968 3
      vertex -50.0842 49.4214 3
    endloop
  endfacet
  facet normal -0 0 1
    outer loop
      vertex -52.0408 48.7857 3
      vertex -50.5729 47.5968 3
      vertex -50.9592 48.7857 3
    endloop
  endfacet
  facet normal 0 0 1
    outer loop
      vertex -52.0408 48.7857 3
      vertex -52.4271 47.5968 3
      vertex -50.5729 47.5968 3
    endloop
  endfacet
  facet normal 0 0 1
    outer loop
      vertex -52.9158 49.4214 3
      vertex -52.4271 47.5968 3
      vertex -52.0408 48.7857 3
    endloop
  endfacet
  facet normal 0 0 1
    outer loop
      vertex -53.9271 48.6866 3
      vertex -52.9158 49.4214 3
      vertex -53.25 50.45 3
    endloop
  endfacet
  facet normal 0 0 1
    outer loop
      vertex -54.5 50.45 3
      vertex -53.25 50.45 3
      vertex -53.9271 52.2134 3
    endloop
  endfacet
  facet normal 0 0 1
    outer loop
      vertex -52.9158 49.4214 3
      vertex -53.9271 48.6866 3
      vertex -52.4271 47.5968 3
    endloop
  endfacet
  facet normal 0 0 1
    outer loop
      vertex -53.25 50.45 3
      vertex -54.5 50.45 3
      vertex -53.9271 48.6866 3
    endloop
  endfacet
  facet normal 0 -1 0
    outer loop
      vertex -52.4271 53.3032 3
      vertex -50.5729 53.3032 6
      vertex -52.4271 53.3032 6
    endloop
  endfacet
  facet normal 0 -1 -0
    outer loop
      vertex -50.5729 53.3032 6
      vertex -52.4271 53.3032 3
      vertex -50.5729 53.3032 3
    endloop
  endfacet
  facet normal -0.587785 -0.809017 0
    outer loop
      vertex -50.5729 53.3032 3
      vertex -49.0729 52.2134 6
      vertex -50.5729 53.3032 6
    endloop
  endfacet
  facet normal -0.587785 -0.809017 -0
    outer loop
      vertex -49.0729 52.2134 6
      vertex -50.5729 53.3032 3
      vertex -49.0729 52.2134 3
    endloop
  endfacet
  facet normal 0.587785 -0.809017 0
    outer loop
      vertex -53.9271 52.2134 3
      vertex -52.4271 53.3032 6
      vertex -53.9271 52.2134 6
    endloop
  endfacet
  facet normal 0.587785 -0.809017 0
    outer loop
      vertex -52.4271 53.3032 6
      vertex -53.9271 52.2134 3
      vertex -52.4271 53.3032 3
    endloop
  endfacet
  facet normal 0 1 -0
    outer loop
      vertex -50.5729 47.5968 3
      vertex -52.4271 47.5968 6
      vertex -50.5729 47.5968 6
    endloop
  endfacet
  facet normal 0 1 0
    outer loop
      vertex -52.4271 47.5968 6
      vertex -50.5729 47.5968 3
      vertex -52.4271 47.5968 3
    endloop
  endfacet
  facet normal -0.951057 0.309017 0
    outer loop
      vertex -49.0729 48.6866 3
      vertex -48.5 50.45 6
      vertex -48.5 50.45 3
    endloop
  endfacet
  facet normal -0.951057 0.309017 0
    outer loop
      vertex -48.5 50.45 6
      vertex -49.0729 48.6866 3
      vertex -49.0729 48.6866 6
    endloop
  endfacet
  facet normal -0.587785 0.809017 0
    outer loop
      vertex -49.0729 48.6866 3
      vertex -50.5729 47.5968 6
      vertex -49.0729 48.6866 6
    endloop
  endfacet
  facet normal -0.587785 0.809017 0
    outer loop
      vertex -50.5729 47.5968 6
      vertex -49.0729 48.6866 3
      vertex -50.5729 47.5968 3
    endloop
  endfacet
  facet normal 0.587785 0.809017 -0
    outer loop
      vertex -52.4271 47.5968 3
      vertex -53.9271 48.6866 6
      vertex -52.4271 47.5968 6
    endloop
  endfacet
  facet normal 0.587785 0.809017 0
    outer loop
      vertex -53.9271 48.6866 6
      vertex -52.4271 47.5968 3
      vertex -53.9271 48.6866 3
    endloop
  endfacet
  facet normal 0.951057 0.309017 0
    outer loop
      vertex -53.9271 48.6866 6
      vertex -54.5 50.45 3
      vertex -54.5 50.45 6
    endloop
  endfacet
  facet normal 0.951057 0.309017 0
    outer loop
      vertex -54.5 50.45 3
      vertex -53.9271 48.6866 6
      vertex -53.9271 48.6866 3
    endloop
  endfacet
  facet normal 1 0 0
    outer loop
      vertex -84 37.5 21
      vertex -84 25.6667 6
      vertex -84 37.5 5.99
    endloop
  endfacet
  facet normal 1 -0 0
    outer loop
      vertex -84 24.5 21
      vertex -84 25.6667 6
      vertex -84 37.5 21
    endloop
  endfacet
  facet normal 1 0 0
    outer loop
      vertex -84 25.6667 6
      vertex -84 24.5 21
      vertex -84 24.5 6
    endloop
  endfacet
  facet normal 1 0 0
    outer loop
      vertex -84 37.5 5.99
      vertex -84 25.6667 6
      vertex -84 25.6667 5.99
    endloop
  endfacet
  facet normal -1 0 0
    outer loop
      vertex -69 35.6667 5.99
      vertex -69 37.5 6
      vertex -69 37.5 5.99
    endloop
  endfacet
  facet normal -1 -0 0
    outer loop
      vertex -69 37.5 6
      vertex -69 35.6667 5.99
      vertex -69 35.6667 6
    endloop
  endfacet
  facet normal -0 0 1
    outer loop
      vertex -84 37.5 5.99
      vertex -69 35.6667 5.99
      vertex -69 37.5 5.99
    endloop
  endfacet
  facet normal 0 0 1
    outer loop
      vertex -69 35.6667 5.99
      vertex -84 37.5 5.99
      vertex -84 25.6667 5.99
    endloop
  endfacet
  facet normal 0 -1 0
    outer loop
      vertex -84 37.5 21
      vertex -71 37.5 6
      vertex -71 37.5 21
    endloop
  endfacet
  facet normal 0 -1 0
    outer loop
      vertex -84 37.5 5.99
      vertex -71 37.5 6
      vertex -84 37.5 21
    endloop
  endfacet
  facet normal 0 -1 0
    outer loop
      vertex -69 37.5 5.99
      vertex -71 37.5 6
      vertex -84 37.5 5.99
    endloop
  endfacet
  facet normal 0 -1 0
    outer loop
      vertex -71 37.5 6
      vertex -69 37.5 5.99
      vertex -69 37.5 6
    endloop
  endfacet
endsolid OpenSCAD_Model
