solid OpenSCAD_Model
  facet normal -0.980785 0 -0.195091
    outer loop
      vertex 22.45 0.5 5.5
      vertex 22.3168 3.57862 6.1697
      vertex 22.45 3.59722 5.5
    endloop
  endfacet
  facet normal -0.980785 -0 -0.195091
    outer loop
      vertex 22.3168 3.57862 6.1697
      vertex 22.45 0.5 5.5
      vertex 22.3168 0.500001 6.1697
    endloop
  endfacet
  facet normal -0.195088 -0 -0.980786
    outer loop
      vertex 20.7 3.54861 7.25
      vertex 20.9344 0.500001 7.20338
      vertex 20.7 0.500001 7.25
    endloop
  endfacet
  facet normal -0.195089 -1.18247e-007 -0.980786
    outer loop
      vertex 20.9344 0.500001 7.20338
      vertex 20.7 3.54861 7.25
      vertex 21.1387 3.55104 7.16273
    endloop
  endfacet
  facet normal -0.831471 8.57935e-008 -0.555569
    outer loop
      vertex 22.2 0.500001 6.34448
      vertex 21.9374 3.56285 6.73744
      vertex 22.3168 3.57862 6.1697
    endloop
  endfacet
  facet normal -0.831471 -0 -0.555568
    outer loop
      vertex 21.9374 3.56285 6.73744
      vertex 22.2 0.500001 6.34448
      vertex 21.9374 0.500001 6.73744
    endloop
  endfacet
  facet normal -0.83147 0 -0.55557
    outer loop
      vertex 22.2 0.500001 6.34448
      vertex 22.3168 3.57862 6.1697
      vertex 22.3168 0.500001 6.1697
    endloop
  endfacet
  facet normal -0.19509 1.48665e-007 0.980785
    outer loop
      vertex 20.7 0.5 3.75
      vertex 20.9247 3.64459 3.7947
      vertex 20.7 3.64583 3.75
    endloop
  endfacet
  facet normal -0.195089 1.00765e-007 0.980786
    outer loop
      vertex 20.9247 3.64459 3.7947
      vertex 20.7 0.5 3.75
      vertex 21.1353 0.5 3.83659
    endloop
  endfacet
  facet normal 0.55557 0 -0.83147
    outer loop
      vertex 19.4626 0.500001 6.73744
      vertex 20.0303 3.55231 7.11679
      vertex 20.0303 0.500001 7.11679
    endloop
  endfacet
  facet normal 0.55557 0 -0.83147
    outer loop
      vertex 20.0303 3.55231 7.11679
      vertex 19.4626 0.500001 6.73744
      vertex 19.4626 3.56285 6.73744
    endloop
  endfacet
  facet normal 0.195091 1.09625e-008 -0.980785
    outer loop
      vertex 20.0303 0.500001 7.11679
      vertex 20.2613 3.55104 7.16273
      vertex 20.4656 0.500001 7.20338
    endloop
  endfacet
  facet normal 0.195091 0 -0.980785
    outer loop
      vertex 20.2613 3.55104 7.16273
      vertex 20.0303 0.500001 7.11679
      vertex 20.0303 3.55231 7.11679
    endloop
  endfacet
  facet normal 0.195089 0 -0.980785
    outer loop
      vertex 20.4656 0.500001 7.20338
      vertex 20.7 3.54861 7.25
      vertex 20.7 0.500001 7.25
    endloop
  endfacet
  facet normal 0.19509 -6.1425e-008 -0.980785
    outer loop
      vertex 20.7 3.54861 7.25
      vertex 20.4656 0.500001 7.20338
      vertex 20.2613 3.55104 7.16273
    endloop
  endfacet
  facet normal -0.55557 -0 -0.83147
    outer loop
      vertex 21.3697 3.55231 7.11679
      vertex 21.9374 0.500001 6.73744
      vertex 21.3697 0.500001 7.11679
    endloop
  endfacet
  facet normal -0.55557 0 -0.83147
    outer loop
      vertex 21.9374 0.500001 6.73744
      vertex 21.3697 3.55231 7.11679
      vertex 21.9374 3.56285 6.73744
    endloop
  endfacet
  facet normal -0.195091 0 -0.980785
    outer loop
      vertex 21.3697 0.500001 7.11679
      vertex 21.1387 3.55104 7.16273
      vertex 21.3697 3.55231 7.11679
    endloop
  endfacet
  facet normal -0.195091 1.09625e-008 -0.980785
    outer loop
      vertex 21.1387 3.55104 7.16273
      vertex 21.3697 0.500001 7.11679
      vertex 20.9344 0.500001 7.20338
    endloop
  endfacet
  facet normal 0.55557 0 0.83147
    outer loop
      vertex 19.4626 3.6316 4.26256
      vertex 20.0303 0.5 3.88321
      vertex 20.0303 3.64213 3.88321
    endloop
  endfacet
  facet normal 0.55557 0 0.83147
    outer loop
      vertex 20.0303 0.5 3.88321
      vertex 19.4626 3.6316 4.26256
      vertex 19.4626 0.5 4.26256
    endloop
  endfacet
  facet normal 0.195091 5.63675e-008 0.980785
    outer loop
      vertex 20.0303 3.64213 3.88321
      vertex 20.2647 0.5 3.83659
      vertex 20.4753 3.64459 3.7947
    endloop
  endfacet
  facet normal 0.195091 0 0.980785
    outer loop
      vertex 20.2647 0.5 3.83659
      vertex 20.0303 3.64213 3.88321
      vertex 20.0303 0.5 3.88321
    endloop
  endfacet
  facet normal -0.195091 0 0.980785
    outer loop
      vertex 21.3697 3.64213 3.88321
      vertex 21.1353 0.5 3.83659
      vertex 21.3697 0.5 3.88321
    endloop
  endfacet
  facet normal -0.195091 -5.98651e-009 0.980785
    outer loop
      vertex 21.1353 0.5 3.83659
      vertex 21.3697 3.64213 3.88321
      vertex 20.9247 3.64459 3.7947
    endloop
  endfacet
  facet normal -0.55557 0 0.83147
    outer loop
      vertex 21.3697 0.5 3.88321
      vertex 21.9374 3.6316 4.26256
      vertex 21.3697 3.64213 3.88321
    endloop
  endfacet
  facet normal -0.55557 0 0.83147
    outer loop
      vertex 21.9374 3.6316 4.26256
      vertex 21.3697 0.5 3.88321
      vertex 21.9374 0.5 4.26256
    endloop
  endfacet
  facet normal 0.980785 0 -0.195091
    outer loop
      vertex 19.0832 3.57862 6.1697
      vertex 18.95 1.25526 5.5
      vertex 18.95 3.59722 5.5
    endloop
  endfacet
  facet normal 0.980785 -2.46689e-007 -0.19509
    outer loop
      vertex 19.0832 3.57862 6.1697
      vertex 19.0216 1.14805 5.86015
      vertex 18.95 1.25526 5.5
    endloop
  endfacet
  facet normal 0.980785 0 -0.195092
    outer loop
      vertex 19.0216 1.14805 5.86015
      vertex 19.0832 3.57862 6.1697
      vertex 19.0832 0.838504 6.1697
    endloop
  endfacet
  facet normal 0.831469 0 -0.555571
    outer loop
      vertex 19.4626 3.56285 6.73744
      vertex 19.0832 0.838504 6.1697
      vertex 19.0832 3.57862 6.1697
    endloop
  endfacet
  facet normal 0.831469 0 -0.555571
    outer loop
      vertex 19.4626 0.500001 6.73744
      vertex 19.0832 0.838504 6.1697
      vertex 19.4626 3.56285 6.73744
    endloop
  endfacet
  facet normal 0.831469 -9.58358e-007 -0.555571
    outer loop
      vertex 19.2 0.500001 6.34448
      vertex 19.0832 0.838504 6.1697
      vertex 19.4626 0.500001 6.73744
    endloop
  endfacet
  facet normal 0.831473 3.50568e-006 -0.555565
    outer loop
      vertex 19.0832 0.838504 6.1697
      vertex 19.2 0.500001 6.34448
      vertex 19.1505 0.500001 6.27047
    endloop
  endfacet
  facet normal 0.19509 1.48665e-007 0.980785
    outer loop
      vertex 20.4753 3.64459 3.7947
      vertex 20.7 0.5 3.75
      vertex 20.7 3.64583 3.75
    endloop
  endfacet
  facet normal 0.19509 1.6185e-007 0.980785
    outer loop
      vertex 20.7 0.5 3.75
      vertex 20.4753 3.64459 3.7947
      vertex 20.2647 0.5 3.83659
    endloop
  endfacet
  facet normal -0.831471 8.45037e-008 0.555569
    outer loop
      vertex 21.9374 3.6316 4.26256
      vertex 22.2 0.5 4.65552
      vertex 22.3168 3.61582 4.8303
    endloop
  endfacet
  facet normal -0.831471 0 0.555568
    outer loop
      vertex 22.2 0.5 4.65552
      vertex 21.9374 3.6316 4.26256
      vertex 21.9374 0.5 4.26256
    endloop
  endfacet
  facet normal -0.83147 0 0.55557
    outer loop
      vertex 22.3168 3.61582 4.8303
      vertex 22.2 0.5 4.65552
      vertex 22.3168 0.5 4.8303
    endloop
  endfacet
  facet normal -0.980785 0 0.195091
    outer loop
      vertex 22.3168 0.5 4.8303
      vertex 22.45 3.59722 5.5
      vertex 22.3168 3.61582 4.8303
    endloop
  endfacet
  facet normal -0.980785 0 0.195091
    outer loop
      vertex 22.45 3.59722 5.5
      vertex 22.3168 0.5 4.8303
      vertex 22.45 0.5 5.5
    endloop
  endfacet
  facet normal 0.980785 -0 0.195091
    outer loop
      vertex 18.95 1.25526 5.5
      vertex 19.0832 3.61582 4.8303
      vertex 18.95 3.59722 5.5
    endloop
  endfacet
  facet normal 0.980785 -2.43104e-007 0.19509
    outer loop
      vertex 19.0216 1.14805 5.13985
      vertex 19.0832 3.61582 4.8303
      vertex 18.95 1.25526 5.5
    endloop
  endfacet
  facet normal 0.980785 0 0.195092
    outer loop
      vertex 19.0832 3.61582 4.8303
      vertex 19.0216 1.14805 5.13985
      vertex 19.0832 0.838504 4.8303
    endloop
  endfacet
  facet normal 0.831469 -0 0.555571
    outer loop
      vertex 19.0832 0.838504 4.8303
      vertex 19.4626 3.6316 4.26256
      vertex 19.0832 3.61582 4.8303
    endloop
  endfacet
  facet normal 0.831471 1.65757e-006 0.555568
    outer loop
      vertex 19.2 0.5 4.65552
      vertex 19.0832 0.838504 4.8303
      vertex 19.1505 0.5 4.72953
    endloop
  endfacet
  facet normal 0.831469 -9.58357e-007 0.555571
    outer loop
      vertex 19.4626 0.5 4.26256
      vertex 19.0832 0.838504 4.8303
      vertex 19.2 0.5 4.65552
    endloop
  endfacet
  facet normal 0.831469 0 0.555571
    outer loop
      vertex 19.0832 0.838504 4.8303
      vertex 19.4626 0.5 4.26256
      vertex 19.4626 3.6316 4.26256
    endloop
  endfacet
  facet normal -0.980785 0 -0.195091
    outer loop
      vertex -26.75 0.5 5.5
      vertex -26.8832 3.57862 6.1697
      vertex -26.75 3.59722 5.5
    endloop
  endfacet
  facet normal -0.980785 -0 -0.195091
    outer loop
      vertex -26.8832 3.57862 6.1697
      vertex -26.75 0.5 5.5
      vertex -26.8832 0.500001 6.1697
    endloop
  endfacet
  facet normal -0.195088 -0 -0.980786
    outer loop
      vertex -28.5 3.54861 7.25
      vertex -28.2656 0.500001 7.20338
      vertex -28.5 0.500001 7.25
    endloop
  endfacet
  facet normal -0.195089 -1.18247e-007 -0.980786
    outer loop
      vertex -28.2656 0.500001 7.20338
      vertex -28.5 3.54861 7.25
      vertex -28.0613 3.55104 7.16273
    endloop
  endfacet
  facet normal -0.19509 1.48665e-007 0.980785
    outer loop
      vertex -28.5 0.5 3.75
      vertex -28.2753 3.64459 3.7947
      vertex -28.5 3.64583 3.75
    endloop
  endfacet
  facet normal -0.195089 1.00765e-007 0.980786
    outer loop
      vertex -28.2753 3.64459 3.7947
      vertex -28.5 0.5 3.75
      vertex -28.0647 0.5 3.83659
    endloop
  endfacet
  facet normal 0.55557 0 -0.83147
    outer loop
      vertex -29.7374 0.500001 6.73744
      vertex -29.1697 3.55231 7.11679
      vertex -29.1697 0.500001 7.11679
    endloop
  endfacet
  facet normal 0.55557 0 -0.83147
    outer loop
      vertex -29.1697 3.55231 7.11679
      vertex -29.7374 0.500001 6.73744
      vertex -29.7374 3.56285 6.73744
    endloop
  endfacet
  facet normal 0.195091 1.09625e-008 -0.980785
    outer loop
      vertex -29.1697 0.500001 7.11679
      vertex -28.9387 3.55104 7.16273
      vertex -28.7344 0.500001 7.20338
    endloop
  endfacet
  facet normal 0.195091 0 -0.980785
    outer loop
      vertex -28.9387 3.55104 7.16273
      vertex -29.1697 0.500001 7.11679
      vertex -29.1697 3.55231 7.11679
    endloop
  endfacet
  facet normal 0.195089 0 -0.980785
    outer loop
      vertex -28.7344 0.500001 7.20338
      vertex -28.5 3.54861 7.25
      vertex -28.5 0.500001 7.25
    endloop
  endfacet
  facet normal 0.19509 -6.1425e-008 -0.980785
    outer loop
      vertex -28.5 3.54861 7.25
      vertex -28.7344 0.500001 7.20338
      vertex -28.9387 3.55104 7.16273
    endloop
  endfacet
  facet normal -0.55557 -0 -0.83147
    outer loop
      vertex -27.8303 3.55231 7.11679
      vertex -27.2626 0.500001 6.73744
      vertex -27.8303 0.500001 7.11679
    endloop
  endfacet
  facet normal -0.55557 0 -0.83147
    outer loop
      vertex -27.2626 0.500001 6.73744
      vertex -27.8303 3.55231 7.11679
      vertex -27.2626 3.56285 6.73744
    endloop
  endfacet
  facet normal -0.195091 0 -0.980785
    outer loop
      vertex -27.8303 0.500001 7.11679
      vertex -28.0613 3.55104 7.16273
      vertex -27.8303 3.55231 7.11679
    endloop
  endfacet
  facet normal -0.195091 1.09625e-008 -0.980785
    outer loop
      vertex -28.0613 3.55104 7.16273
      vertex -27.8303 0.500001 7.11679
      vertex -28.2656 0.500001 7.20338
    endloop
  endfacet
  facet normal -0.831471 8.57935e-008 -0.555569
    outer loop
      vertex -27 0.500001 6.34448
      vertex -27.2626 3.56285 6.73744
      vertex -26.8832 3.57862 6.1697
    endloop
  endfacet
  facet normal -0.831471 -0 -0.555568
    outer loop
      vertex -27.2626 3.56285 6.73744
      vertex -27 0.500001 6.34448
      vertex -27.2626 0.500001 6.73744
    endloop
  endfacet
  facet normal -0.83147 0 -0.55557
    outer loop
      vertex -27 0.500001 6.34448
      vertex -26.8832 3.57862 6.1697
      vertex -26.8832 0.500001 6.1697
    endloop
  endfacet
  facet normal 0.55557 0 0.83147
    outer loop
      vertex -29.7374 3.6316 4.26256
      vertex -29.1697 0.5 3.88321
      vertex -29.1697 3.64213 3.88321
    endloop
  endfacet
  facet normal 0.55557 0 0.83147
    outer loop
      vertex -29.1697 0.5 3.88321
      vertex -29.7374 3.6316 4.26256
      vertex -29.7374 0.5 4.26256
    endloop
  endfacet
  facet normal 0.195091 5.63675e-008 0.980785
    outer loop
      vertex -29.1697 3.64213 3.88321
      vertex -28.9353 0.5 3.83659
      vertex -28.7247 3.64459 3.7947
    endloop
  endfacet
  facet normal 0.195091 0 0.980785
    outer loop
      vertex -28.9353 0.5 3.83659
      vertex -29.1697 3.64213 3.88321
      vertex -29.1697 0.5 3.88321
    endloop
  endfacet
  facet normal -0.195091 0 0.980785
    outer loop
      vertex -27.8303 3.64213 3.88321
      vertex -28.0647 0.5 3.83659
      vertex -27.8303 0.5 3.88321
    endloop
  endfacet
  facet normal -0.195091 -5.98651e-009 0.980785
    outer loop
      vertex -28.0647 0.5 3.83659
      vertex -27.8303 3.64213 3.88321
      vertex -28.2753 3.64459 3.7947
    endloop
  endfacet
  facet normal -0.55557 0 0.83147
    outer loop
      vertex -27.8303 0.5 3.88321
      vertex -27.2626 3.6316 4.26256
      vertex -27.8303 3.64213 3.88321
    endloop
  endfacet
  facet normal -0.55557 0 0.83147
    outer loop
      vertex -27.2626 3.6316 4.26256
      vertex -27.8303 0.5 3.88321
      vertex -27.2626 0.5 4.26256
    endloop
  endfacet
  facet normal 0.980785 0 -0.195091
    outer loop
      vertex -30.25 0.5 5.5
      vertex -30.1168 3.57862 6.1697
      vertex -30.1168 0.500001 6.1697
    endloop
  endfacet
  facet normal 0.980785 0 -0.195091
    outer loop
      vertex -30.1168 3.57862 6.1697
      vertex -30.25 0.5 5.5
      vertex -30.25 3.59722 5.5
    endloop
  endfacet
  facet normal 0.831469 0 -0.555571
    outer loop
      vertex -30 0.500001 6.34448
      vertex -29.7374 3.56285 6.73744
      vertex -29.7374 0.500001 6.73744
    endloop
  endfacet
  facet normal 0.831469 -7.30485e-008 -0.555571
    outer loop
      vertex -29.7374 3.56285 6.73744
      vertex -30 0.500001 6.34448
      vertex -30.1168 3.57862 6.1697
    endloop
  endfacet
  facet normal 0.83147 0 -0.55557
    outer loop
      vertex -30.1168 3.57862 6.1697
      vertex -30 0.500001 6.34448
      vertex -30.1168 0.500001 6.1697
    endloop
  endfacet
  facet normal 0.19509 1.48665e-007 0.980785
    outer loop
      vertex -28.7247 3.64459 3.7947
      vertex -28.5 0.5 3.75
      vertex -28.5 3.64583 3.75
    endloop
  endfacet
  facet normal 0.19509 1.6185e-007 0.980785
    outer loop
      vertex -28.5 0.5 3.75
      vertex -28.7247 3.64459 3.7947
      vertex -28.9353 0.5 3.83659
    endloop
  endfacet
  facet normal -0.831471 8.45037e-008 0.555569
    outer loop
      vertex -27.2626 3.6316 4.26256
      vertex -27 0.5 4.65552
      vertex -26.8832 3.61582 4.8303
    endloop
  endfacet
  facet normal -0.831471 0 0.555568
    outer loop
      vertex -27 0.5 4.65552
      vertex -27.2626 3.6316 4.26256
      vertex -27.2626 0.5 4.26256
    endloop
  endfacet
  facet normal -0.83147 0 0.55557
    outer loop
      vertex -26.8832 3.61582 4.8303
      vertex -27 0.5 4.65552
      vertex -26.8832 0.5 4.8303
    endloop
  endfacet
  facet normal -0.980785 0 0.195091
    outer loop
      vertex -26.8832 0.5 4.8303
      vertex -26.75 3.59722 5.5
      vertex -26.8832 3.61582 4.8303
    endloop
  endfacet
  facet normal -0.980785 0 0.195091
    outer loop
      vertex -26.75 3.59722 5.5
      vertex -26.8832 0.5 4.8303
      vertex -26.75 0.5 5.5
    endloop
  endfacet
  facet normal 0.980785 0 0.195091
    outer loop
      vertex -30.1168 0.5 4.8303
      vertex -30.25 3.59722 5.5
      vertex -30.25 0.5 5.5
    endloop
  endfacet
  facet normal 0.980785 0 0.195091
    outer loop
      vertex -30.25 3.59722 5.5
      vertex -30.1168 0.5 4.8303
      vertex -30.1168 3.61582 4.8303
    endloop
  endfacet
  facet normal 0.83147 0 0.55557
    outer loop
      vertex -30 0.5 4.65552
      vertex -30.1168 3.61582 4.8303
      vertex -30.1168 0.5 4.8303
    endloop
  endfacet
  facet normal 0.831469 -7.19503e-008 0.555571
    outer loop
      vertex -30.1168 3.61582 4.8303
      vertex -30 0.5 4.65552
      vertex -29.7374 3.6316 4.26256
    endloop
  endfacet
  facet normal 0.831469 0 0.555571
    outer loop
      vertex -29.7374 3.6316 4.26256
      vertex -30 0.5 4.65552
      vertex -29.7374 0.5 4.26256
    endloop
  endfacet
  facet normal -0.85881 -0.128821 -0.495834
    outer loop
      vertex 23.7 0.5 5.5
      vertex 22.454 -0.0643971 7.80481
      vertex 22.2 0.500001 8.09808
    endloop
  endfacet
  facet normal -0.858809 -0.128822 -0.495834
    outer loop
      vertex 22.454 -0.0643971 7.80481
      vertex 23.7 0.5 5.5
      vertex 23.9479 -1.15278 5.5
    endloop
  endfacet
  facet normal -7.66376e-007 -1 1.6995e-007
    outer loop
      vertex 22.3168 0.500001 6.1697
      vertex 22.2 0.500001 8.09808
      vertex 22.2 0.500001 6.34448
    endloop
  endfacet
  facet normal -3.33786e-007 -1 1.11611e-007
    outer loop
      vertex 23.7 0.5 5.5
      vertex 22.3168 0.500001 6.1697
      vertex 22.45 0.5 5.5
    endloop
  endfacet
  facet normal -2.91619e-007 -1 1.98703e-007
    outer loop
      vertex 22.3168 0.500001 6.1697
      vertex 23.7 0.5 5.5
      vertex 22.2 0.500001 8.09808
    endloop
  endfacet
  facet normal -3.33786e-007 -1 2.44399e-007
    outer loop
      vertex 22.3168 0.5 4.8303
      vertex 23.7 0.5 5.5
      vertex 22.45 0.5 5.5
    endloop
  endfacet
  facet normal -3.18491e-007 -1 2.12809e-007
    outer loop
      vertex 22.2 0.5 4.65552
      vertex 23.7 0.5 5.5
      vertex 22.3168 0.5 4.8303
    endloop
  endfacet
  facet normal -2.94362e-007 -1 1.6995e-007
    outer loop
      vertex 23.7 0.5 5.5
      vertex 22.2 0.5 4.65552
      vertex 22.2 0.5 2.90192
    endloop
  endfacet
  facet normal -0.858811 -0.128824 -0.49583
    outer loop
      vertex 22.454 -0.0643971 7.80481
      vertex 22.2301 0.0987081 8.15021
      vertex 22.2 0.500001 8.09808
    endloop
  endfacet
  facet normal 0 -0.128821 0.991668
    outer loop
      vertex 19.2 0.5 2.90192
      vertex 19.25 0 2.83697
      vertex 22.2 0.5 2.90192
    endloop
  endfacet
  facet normal -2.33447e-006 -0.128822 0.991668
    outer loop
      vertex 19.25 0 2.83697
      vertex 19.2 0.5 2.90192
      vertex 19.1865 0.319446 2.87847
    endloop
  endfacet
  facet normal -4.34989e-009 -0.128821 0.991668
    outer loop
      vertex 19.1095 -0.706145 2.74524
      vertex 22.2 0.5 2.90192
      vertex 19.25 0 2.83697
    endloop
  endfacet
  facet normal -3.42932e-009 -0.128821 0.991668
    outer loop
      vertex 22.2 0.5 2.90192
      vertex 19.1095 -0.706145 2.74524
      vertex 22.4301 -2.56784 2.5034
    endloop
  endfacet
  facet normal 0 -0.128821 0.991668
    outer loop
      vertex 22.4301 -2.56784 2.5034
      vertex 19.1095 -0.706145 2.74524
      vertex 18.9699 -2.56784 2.5034
    endloop
  endfacet
  facet normal 0 -0.128822 -0.991668
    outer loop
      vertex 19.2304 0.0987081 8.15021
      vertex 22.2 0.500001 8.09808
      vertex 22.2301 0.0987081 8.15021
    endloop
  endfacet
  facet normal 0 -0.128822 -0.991668
    outer loop
      vertex 19.2304 0.0987081 8.15021
      vertex 19.2 0.500001 8.09808
      vertex 22.2 0.500001 8.09808
    endloop
  endfacet
  facet normal 5.09032e-006 -0.128822 -0.991668
    outer loop
      vertex 19.2 0.500001 8.09808
      vertex 19.2304 0.0987081 8.15021
      vertex 19.1865 0.319447 8.12153
    endloop
  endfacet
  facet normal 0.858813 -0.128821 -0.495828
    outer loop
      vertex 19.2 0.500001 8.09808
      vertex 19.1657 0.423787 8.05847
      vertex 19.1505 0.500001 8.01241
    endloop
  endfacet
  facet normal -0.858809 -0.128822 0.495834
    outer loop
      vertex 22.2 0.5 2.90192
      vertex 23.9479 -1.15278 5.5
      vertex 23.7 0.5 5.5
    endloop
  endfacet
  facet normal -0.858809 -0.128822 0.495834
    outer loop
      vertex 23.9479 -1.15278 5.5
      vertex 22.2 0.5 2.90192
      vertex 22.4301 -2.56784 2.5034
    endloop
  endfacet
  facet normal 0 -1 2.10847e-007
    outer loop
      vertex 19.2 0.500001 8.09808
      vertex 20.7 0.500001 7.25
      vertex 22.2 0.500001 8.09808
    endloop
  endfacet
  facet normal -3.10247e-008 -1 1.55973e-007
    outer loop
      vertex 19.2 0.500001 8.09808
      vertex 20.4656 0.500001 7.20338
      vertex 20.7 0.500001 7.25
    endloop
  endfacet
  facet normal -3.1025e-008 -1 1.55972e-007
    outer loop
      vertex 19.2 0.500001 8.09808
      vertex 20.0303 0.500001 7.11679
      vertex 20.4656 0.500001 7.20338
    endloop
  endfacet
  facet normal -1.07147e-008 -1 1.73158e-007
    outer loop
      vertex 19.2 0.500001 8.09808
      vertex 19.4626 0.500001 6.73744
      vertex 20.0303 0.500001 7.11679
    endloop
  endfacet
  facet normal -2.73374e-008 -1 1.6995e-007
    outer loop
      vertex 19.4626 0.500001 6.73744
      vertex 19.2 0.500001 8.09808
      vertex 19.2 0.500001 6.34448
    endloop
  endfacet
  facet normal 3.10245e-008 -1 1.55973e-007
    outer loop
      vertex 20.9344 0.500001 7.20338
      vertex 22.2 0.500001 8.09808
      vertex 20.7 0.500001 7.25
    endloop
  endfacet
  facet normal 3.1025e-008 -1 1.55973e-007
    outer loop
      vertex 21.3697 0.500001 7.11679
      vertex 22.2 0.500001 8.09808
      vertex 20.9344 0.500001 7.20338
    endloop
  endfacet
  facet normal 1.07147e-008 -1 1.73158e-007
    outer loop
      vertex 21.9374 0.500001 6.73744
      vertex 22.2 0.500001 8.09808
      vertex 21.3697 0.500001 7.11679
    endloop
  endfacet
  facet normal 2.73376e-008 -1 1.6995e-007
    outer loop
      vertex 22.2 0.500001 8.09808
      vertex 21.9374 0.500001 6.73744
      vertex 22.2 0.500001 6.34448
    endloop
  endfacet
  facet normal 3.10248e-008 -1 1.55973e-007
    outer loop
      vertex 20.2647 0.5 3.83659
      vertex 19.2 0.5 2.90192
      vertex 20.7 0.5 3.75
    endloop
  endfacet
  facet normal 3.10249e-008 -1 1.55973e-007
    outer loop
      vertex 20.0303 0.5 3.88321
      vertex 19.2 0.5 2.90192
      vertex 20.2647 0.5 3.83659
    endloop
  endfacet
  facet normal 1.07147e-008 -1 1.73158e-007
    outer loop
      vertex 19.4626 0.5 4.26256
      vertex 19.2 0.5 2.90192
      vertex 20.0303 0.5 3.88321
    endloop
  endfacet
  facet normal 2.73374e-008 -1 1.6995e-007
    outer loop
      vertex 19.2 0.5 2.90192
      vertex 19.4626 0.5 4.26256
      vertex 19.2 0.5 4.65552
    endloop
  endfacet
  facet normal 0 -1 2.10846e-007
    outer loop
      vertex 22.2 0.5 2.90192
      vertex 20.7 0.5 3.75
      vertex 19.2 0.5 2.90192
    endloop
  endfacet
  facet normal -3.10247e-008 -1 1.55973e-007
    outer loop
      vertex 20.7 0.5 3.75
      vertex 22.2 0.5 2.90192
      vertex 21.1353 0.5 3.83659
    endloop
  endfacet
  facet normal -2.73376e-008 -1 1.6995e-007
    outer loop
      vertex 21.9374 0.5 4.26256
      vertex 22.2 0.5 2.90192
      vertex 22.2 0.5 4.65552
    endloop
  endfacet
  facet normal -1.07147e-008 -1 1.73158e-007
    outer loop
      vertex 21.3697 0.5 3.88321
      vertex 22.2 0.5 2.90192
      vertex 21.9374 0.5 4.26256
    endloop
  endfacet
  facet normal -3.10249e-008 -1 1.55973e-007
    outer loop
      vertex 21.1353 0.5 3.83659
      vertex 22.2 0.5 2.90192
      vertex 21.3697 0.5 3.88321
    endloop
  endfacet
  facet normal 0.858809 -0.128815 -0.495836
    outer loop
      vertex 19.2 0.500001 8.09808
      vertex 19.1865 0.319447 8.12153
      vertex 19.1657 0.423787 8.05847
    endloop
  endfacet
  facet normal 2.5605e-007 -1 1.71086e-007
    outer loop
      vertex 19.1505 0.5 2.98758
      vertex 19.2 0.5 4.65552
      vertex 19.1505 0.5 4.72953
    endloop
  endfacet
  facet normal 2.94364e-007 -1 1.6995e-007
    outer loop
      vertex 19.2 0.5 4.65552
      vertex 19.1505 0.5 2.98758
      vertex 19.2 0.5 2.90192
    endloop
  endfacet
  facet normal 9.10848e-007 -1 1.6995e-007
    outer loop
      vertex 19.1505 0.500001 8.01241
      vertex 19.2 0.500001 6.34448
      vertex 19.2 0.500001 8.09808
    endloop
  endfacet
  facet normal 9.49162e-007 -1 1.71086e-007
    outer loop
      vertex 19.2 0.500001 6.34448
      vertex 19.1505 0.500001 8.01241
      vertex 19.1505 0.500001 6.27047
    endloop
  endfacet
  facet normal 0.858812 -0.128816 0.495832
    outer loop
      vertex 19.1865 0.319446 2.87847
      vertex 19.2 0.5 2.90192
      vertex 19.1505 0.5 2.98758
    endloop
  endfacet
  facet normal 0.858804 -0.128822 0.495843
    outer loop
      vertex 19.0216 -1.14805 2.78268
      vertex 18.9699 -2.56784 2.5034
      vertex 19.1095 -0.706145 2.74524
    endloop
  endfacet
  facet normal 0.85881 -0.128821 0.495833
    outer loop
      vertex 18.9699 -2.56784 2.5034
      vertex 19.0216 -1.14805 2.78268
      vertex 18.4172 -2.05259 3.59451
    endloop
  endfacet
  facet normal -0.85881 -0.128821 -0.495834
    outer loop
      vertex -25.5 0.5 5.5
      vertex -26.746 -0.0643971 7.80481
      vertex -27 0.500001 8.09808
    endloop
  endfacet
  facet normal -0.858809 -0.128822 -0.495834
    outer loop
      vertex -26.746 -0.0643971 7.80481
      vertex -25.5 0.5 5.5
      vertex -25.2521 -1.15278 5.5
    endloop
  endfacet
  facet normal -7.66376e-007 -1 1.6995e-007
    outer loop
      vertex -26.8832 0.500001 6.1697
      vertex -27 0.500001 8.09808
      vertex -27 0.500001 6.34448
    endloop
  endfacet
  facet normal -3.33786e-007 -1 1.11611e-007
    outer loop
      vertex -25.5 0.5 5.5
      vertex -26.8832 0.500001 6.1697
      vertex -26.75 0.5 5.5
    endloop
  endfacet
  facet normal -2.91619e-007 -1 1.98703e-007
    outer loop
      vertex -26.8832 0.500001 6.1697
      vertex -25.5 0.5 5.5
      vertex -27 0.500001 8.09808
    endloop
  endfacet
  facet normal -3.33786e-007 -1 2.44399e-007
    outer loop
      vertex -26.8832 0.5 4.8303
      vertex -25.5 0.5 5.5
      vertex -26.75 0.5 5.5
    endloop
  endfacet
  facet normal -3.18491e-007 -1 2.12809e-007
    outer loop
      vertex -27 0.5 4.65552
      vertex -25.5 0.5 5.5
      vertex -26.8832 0.5 4.8303
    endloop
  endfacet
  facet normal -2.94362e-007 -1 1.6995e-007
    outer loop
      vertex -25.5 0.5 5.5
      vertex -27 0.5 4.65552
      vertex -27 0.5 2.90192
    endloop
  endfacet
  facet normal -0.858811 -0.128824 -0.49583
    outer loop
      vertex -26.746 -0.0643971 7.80481
      vertex -26.9699 0.0987081 8.15021
      vertex -27 0.500001 8.09808
    endloop
  endfacet
  facet normal 0 -0.128821 0.991668
    outer loop
      vertex -30 0.5 2.90192
      vertex -26.7699 -2.56784 2.5034
      vertex -27 0.5 2.90192
    endloop
  endfacet
  facet normal 0 -0.128821 0.991668
    outer loop
      vertex -26.7699 -2.56784 2.5034
      vertex -30 0.5 2.90192
      vertex -30.2301 -2.56784 2.5034
    endloop
  endfacet
  facet normal 0 -0.128822 -0.991668
    outer loop
      vertex -26.9699 0.0987081 8.15021
      vertex -30 0.500001 8.09808
      vertex -27 0.500001 8.09808
    endloop
  endfacet
  facet normal 0 -0.128822 -0.991668
    outer loop
      vertex -30 0.500001 8.09808
      vertex -26.9699 0.0987081 8.15021
      vertex -30.0301 0.0987081 8.15021
    endloop
  endfacet
  facet normal 0.85881 -0.128821 -0.495834
    outer loop
      vertex -30.254 -0.0643971 7.80481
      vertex -31.5 0.5 5.5
      vertex -30 0.500001 8.09808
    endloop
  endfacet
  facet normal 0.85881 -0.128821 -0.495834
    outer loop
      vertex -31.5 0.5 5.5
      vertex -30.254 -0.0643971 7.80481
      vertex -31.7479 -1.15278 5.5
    endloop
  endfacet
  facet normal -0.858809 -0.128822 0.495834
    outer loop
      vertex -27 0.5 2.90192
      vertex -25.2521 -1.15278 5.5
      vertex -25.5 0.5 5.5
    endloop
  endfacet
  facet normal -0.858809 -0.128822 0.495834
    outer loop
      vertex -25.2521 -1.15278 5.5
      vertex -27 0.5 2.90192
      vertex -26.7699 -2.56784 2.5034
    endloop
  endfacet
  facet normal 0 -1 2.10847e-007
    outer loop
      vertex -30 0.500001 8.09808
      vertex -28.5 0.500001 7.25
      vertex -27 0.500001 8.09808
    endloop
  endfacet
  facet normal -3.10247e-008 -1 1.55973e-007
    outer loop
      vertex -30 0.500001 8.09808
      vertex -28.7344 0.500001 7.20338
      vertex -28.5 0.500001 7.25
    endloop
  endfacet
  facet normal -3.1025e-008 -1 1.55972e-007
    outer loop
      vertex -30 0.500001 8.09808
      vertex -29.1697 0.500001 7.11679
      vertex -28.7344 0.500001 7.20338
    endloop
  endfacet
  facet normal -1.07147e-008 -1 1.73158e-007
    outer loop
      vertex -30 0.500001 8.09808
      vertex -29.7374 0.500001 6.73744
      vertex -29.1697 0.500001 7.11679
    endloop
  endfacet
  facet normal -2.73374e-008 -1 1.6995e-007
    outer loop
      vertex -29.7374 0.500001 6.73744
      vertex -30 0.500001 8.09808
      vertex -30 0.500001 6.34448
    endloop
  endfacet
  facet normal 3.10245e-008 -1 1.55973e-007
    outer loop
      vertex -28.2656 0.500001 7.20338
      vertex -27 0.500001 8.09808
      vertex -28.5 0.500001 7.25
    endloop
  endfacet
  facet normal 3.1025e-008 -1 1.55973e-007
    outer loop
      vertex -27.8303 0.500001 7.11679
      vertex -27 0.500001 8.09808
      vertex -28.2656 0.500001 7.20338
    endloop
  endfacet
  facet normal 1.07147e-008 -1 1.73158e-007
    outer loop
      vertex -27.2626 0.500001 6.73744
      vertex -27 0.500001 8.09808
      vertex -27.8303 0.500001 7.11679
    endloop
  endfacet
  facet normal 2.73376e-008 -1 1.6995e-007
    outer loop
      vertex -27 0.500001 8.09808
      vertex -27.2626 0.500001 6.73744
      vertex -27 0.500001 6.34448
    endloop
  endfacet
  facet normal 3.10248e-008 -1 1.55973e-007
    outer loop
      vertex -28.9353 0.5 3.83659
      vertex -30 0.5 2.90192
      vertex -28.5 0.5 3.75
    endloop
  endfacet
  facet normal 3.10249e-008 -1 1.55973e-007
    outer loop
      vertex -29.1697 0.5 3.88321
      vertex -30 0.5 2.90192
      vertex -28.9353 0.5 3.83659
    endloop
  endfacet
  facet normal 1.07147e-008 -1 1.73158e-007
    outer loop
      vertex -29.7374 0.5 4.26256
      vertex -30 0.5 2.90192
      vertex -29.1697 0.5 3.88321
    endloop
  endfacet
  facet normal 2.73374e-008 -1 1.6995e-007
    outer loop
      vertex -30 0.5 2.90192
      vertex -29.7374 0.5 4.26256
      vertex -30 0.5 4.65552
    endloop
  endfacet
  facet normal 0 -1 2.10846e-007
    outer loop
      vertex -27 0.5 2.90192
      vertex -28.5 0.5 3.75
      vertex -30 0.5 2.90192
    endloop
  endfacet
  facet normal -3.10247e-008 -1 1.55973e-007
    outer loop
      vertex -28.5 0.5 3.75
      vertex -27 0.5 2.90192
      vertex -28.0647 0.5 3.83659
    endloop
  endfacet
  facet normal -2.73376e-008 -1 1.6995e-007
    outer loop
      vertex -27.2626 0.5 4.26256
      vertex -27 0.5 2.90192
      vertex -27 0.5 4.65552
    endloop
  endfacet
  facet normal -1.07147e-008 -1 1.73158e-007
    outer loop
      vertex -27.8303 0.5 3.88321
      vertex -27 0.5 2.90192
      vertex -27.2626 0.5 4.26256
    endloop
  endfacet
  facet normal -3.10249e-008 -1 1.55973e-007
    outer loop
      vertex -28.0647 0.5 3.83659
      vertex -27 0.5 2.90192
      vertex -27.8303 0.5 3.88321
    endloop
  endfacet
  facet normal 0.858809 -0.12882 -0.495835
    outer loop
      vertex -30 0.500001 8.09808
      vertex -30.0301 0.0987081 8.15021
      vertex -30.254 -0.0643971 7.80481
    endloop
  endfacet
  facet normal 7.66376e-007 -1 1.6995e-007
    outer loop
      vertex -30 0.500001 8.09808
      vertex -30.1168 0.500001 6.1697
      vertex -30 0.500001 6.34448
    endloop
  endfacet
  facet normal 2.91619e-007 -1 1.98703e-007
    outer loop
      vertex -31.5 0.5 5.5
      vertex -30.1168 0.500001 6.1697
      vertex -30 0.500001 8.09808
    endloop
  endfacet
  facet normal 3.33786e-007 -1 1.11611e-007
    outer loop
      vertex -31.5 0.5 5.5
      vertex -30.25 0.5 5.5
      vertex -30.1168 0.500001 6.1697
    endloop
  endfacet
  facet normal 3.33786e-007 -1 2.44399e-007
    outer loop
      vertex -31.5 0.5 5.5
      vertex -30.1168 0.5 4.8303
      vertex -30.25 0.5 5.5
    endloop
  endfacet
  facet normal 3.18491e-007 -1 2.12809e-007
    outer loop
      vertex -31.5 0.5 5.5
      vertex -30 0.5 4.65552
      vertex -30.1168 0.5 4.8303
    endloop
  endfacet
  facet normal 2.94362e-007 -1 1.6995e-007
    outer loop
      vertex -30 0.5 4.65552
      vertex -31.5 0.5 5.5
      vertex -30 0.5 2.90192
    endloop
  endfacet
  facet normal 0.85881 -0.128821 0.495834
    outer loop
      vertex -31.7479 -1.15278 5.5
      vertex -30 0.5 2.90192
      vertex -31.5 0.5 5.5
    endloop
  endfacet
  facet normal 0.85881 -0.128821 0.495834
    outer loop
      vertex -30 0.5 2.90192
      vertex -31.7479 -1.15278 5.5
      vertex -30.2301 -2.56784 2.5034
    endloop
  endfacet
  facet normal 0 -0.904249 0.427006
    outer loop
      vertex -26.9699 0.0987081 8.15021
      vertex -32.5 0.5 9
      vertex -30.0301 0.0987081 8.15021
    endloop
  endfacet
  facet normal -1.05022e-007 -0.904249 0.427006
    outer loop
      vertex -32.5 0.5 9
      vertex -30.254 -0.0643971 7.80481
      vertex -30.0301 0.0987081 8.15021
    endloop
  endfacet
  facet normal -1.93941e-008 -0.904249 0.427006
    outer loop
      vertex -32.5 0.5 9
      vertex -31.7479 -1.15278 5.5
      vertex -30.254 -0.0643971 7.80481
    endloop
  endfacet
  facet normal 0 -0.904249 0.427006
    outer loop
      vertex -32.5 -3.75 0
      vertex -26.7699 -2.56784 2.5034
      vertex -30.2301 -2.56784 2.5034
    endloop
  endfacet
  facet normal -1.82502e-009 -0.904249 0.427006
    outer loop
      vertex -16.25 -3 1.58824
      vertex -26.7699 -2.56784 2.5034
      vertex -32.5 -3.75 0
    endloop
  endfacet
  facet normal 0 -0.904249 0.427006
    outer loop
      vertex 25.5 -3.75 0
      vertex -16.25 -3 1.58824
      vertex -32.5 -3.75 0
    endloop
  endfacet
  facet normal -6.28801e-010 -0.904249 0.427006
    outer loop
      vertex -26.7699 -2.56784 2.5034
      vertex -16.25 -3 1.58824
      vertex -17.398 -2.77164 2.07183
    endloop
  endfacet
  facet normal 3.3896e-008 -0.904249 0.427006
    outer loop
      vertex -31.7479 -1.15278 5.5
      vertex -32.5 -3.75 0
      vertex -30.2301 -2.56784 2.5034
    endloop
  endfacet
  facet normal -1.59253e-008 -0.904249 0.427006
    outer loop
      vertex -32.5 -3.75 0
      vertex -31.7479 -1.15278 5.5
      vertex -32.5 0.5 9
    endloop
  endfacet
  facet normal 0 -0.904249 0.427006
    outer loop
      vertex -32.5 0.5 9
      vertex -26.9699 0.0987081 8.15021
      vertex -19.1505 0.5 9
    endloop
  endfacet
  facet normal 3.79015e-008 -0.904249 0.427006
    outer loop
      vertex -26.746 -0.0643971 7.80481
      vertex -19.1505 0.5 9
      vertex -26.9699 0.0987081 8.15021
    endloop
  endfacet
  facet normal 9.3153e-009 -0.904249 0.427006
    outer loop
      vertex -19.1505 0.5 9
      vertex -26.746 -0.0643971 7.80481
      vertex -19.25 0 7.94118
    endloop
  endfacet
  facet normal 9.02366e-009 -0.904249 0.427006
    outer loop
      vertex -25.2521 -1.15278 5.5
      vertex -19.25 0 7.94118
      vertex -26.746 -0.0643971 7.80481
    endloop
  endfacet
  facet normal 3.83624e-009 -0.904249 0.427006
    outer loop
      vertex -19.25 0 7.94118
      vertex -25.2521 -1.15278 5.5
      vertex -19.0216 -1.14805 5.51001
    endloop
  endfacet
  facet normal 3.85212e-009 -0.904249 0.427006
    outer loop
      vertex -25.2521 -1.15278 5.5
      vertex -18.3713 -2.12132 3.44897
      vertex -19.0216 -1.14805 5.51001
    endloop
  endfacet
  facet normal -1.67373e-009 -0.904249 0.427006
    outer loop
      vertex -26.7699 -2.56784 2.5034
      vertex -18.3713 -2.12132 3.44897
      vertex -25.2521 -1.15278 5.5
    endloop
  endfacet
  facet normal -3.05595e-009 -0.904249 0.427006
    outer loop
      vertex -18.3713 -2.12132 3.44897
      vertex -26.7699 -2.56784 2.5034
      vertex -17.398 -2.77164 2.07183
    endloop
  endfacet
  facet normal 0 -0.904249 0.427006
    outer loop
      vertex -13.25 0 7.94118
      vertex 13.3495 0.5 9
      vertex -13.3495 0.5 9
    endloop
  endfacet
  facet normal 0 -0.904249 0.427006
    outer loop
      vertex -13.25 0 7.94118
      vertex 13.25 0 7.94118
      vertex 13.3495 0.5 9
    endloop
  endfacet
  facet normal 0 -0.904249 0.427006
    outer loop
      vertex -13.4784 -1.14805 5.51001
      vertex 13.25 0 7.94118
      vertex -13.25 0 7.94118
    endloop
  endfacet
  facet normal 0 -0.904249 0.427006
    outer loop
      vertex -13.4784 -1.14805 5.51001
      vertex 13.4784 -1.14805 5.51001
      vertex 13.25 0 7.94118
    endloop
  endfacet
  facet normal 0 -0.904249 0.427006
    outer loop
      vertex -14.1287 -2.12132 3.44897
      vertex 13.4784 -1.14805 5.51001
      vertex -13.4784 -1.14805 5.51001
    endloop
  endfacet
  facet normal 0 -0.904249 0.427006
    outer loop
      vertex -14.1287 -2.12132 3.44897
      vertex 14.1287 -2.12132 3.44897
      vertex 13.4784 -1.14805 5.51001
    endloop
  endfacet
  facet normal 0 -0.904249 0.427006
    outer loop
      vertex -15.1019 -2.77164 2.07183
      vertex 14.1287 -2.12132 3.44897
      vertex -14.1287 -2.12132 3.44897
    endloop
  endfacet
  facet normal 0 -0.904249 0.427006
    outer loop
      vertex -15.1019 -2.77164 2.07183
      vertex 15.1019 -2.77164 2.07183
      vertex 14.1287 -2.12132 3.44897
    endloop
  endfacet
  facet normal 0 -0.904249 0.427006
    outer loop
      vertex -16.25 -3 1.58824
      vertex 15.1019 -2.77164 2.07183
      vertex -15.1019 -2.77164 2.07183
    endloop
  endfacet
  facet normal 0 -0.904249 0.427006
    outer loop
      vertex 15.1019 -2.77164 2.07183
      vertex -16.25 -3 1.58824
      vertex 16.25 -3 1.58824
    endloop
  endfacet
  facet normal 3.87068e-007 -0.904249 0.427006
    outer loop
      vertex 18.3713 -2.12132 3.44897
      vertex 18.9699 -2.56784 2.5034
      vertex 18.4172 -2.05259 3.59451
    endloop
  endfacet
  facet normal 5.05272e-009 -0.904249 0.427006
    outer loop
      vertex 25.5 -3.75 0
      vertex 18.9699 -2.56784 2.5034
      vertex 17.398 -2.77164 2.07183
    endloop
  endfacet
  facet normal 2.18714e-008 -0.904249 0.427006
    outer loop
      vertex 17.398 -2.77164 2.07183
      vertex 18.9699 -2.56784 2.5034
      vertex 18.3713 -2.12132 3.44897
    endloop
  endfacet
  facet normal 0 -0.904249 0.427006
    outer loop
      vertex 22.2301 0.0987081 8.15021
      vertex 19.1505 0.5 9
      vertex 19.2304 0.0987081 8.15021
    endloop
  endfacet
  facet normal 0 -0.904249 0.427006
    outer loop
      vertex 19.1505 0.5 9
      vertex 22.2301 0.0987081 8.15021
      vertex 25.5 0.5 9
    endloop
  endfacet
  facet normal 8.30319e-008 -0.904249 0.427006
    outer loop
      vertex 22.454 -0.0643971 7.80481
      vertex 25.5 0.5 9
      vertex 22.2301 0.0987081 8.15021
    endloop
  endfacet
  facet normal 1.53333e-008 -0.904249 0.427006
    outer loop
      vertex 23.9479 -1.15278 5.5
      vertex 25.5 0.5 9
      vertex 22.454 -0.0643971 7.80481
    endloop
  endfacet
  facet normal 4.13709e-009 -0.904249 0.427006
    outer loop
      vertex 25.5 -3.75 0
      vertex 17.398 -2.77164 2.07183
      vertex 16.25 -3 1.58824
    endloop
  endfacet
  facet normal 7.71685e-009 -0.904249 0.427006
    outer loop
      vertex 23.9479 -1.15278 5.5
      vertex 25.5 -3.75 0
      vertex 25.5 0.5 9
    endloop
  endfacet
  facet normal -2.76449e-008 -0.904249 0.427006
    outer loop
      vertex 22.4301 -2.56784 2.5034
      vertex 25.5 -3.75 0
      vertex 23.9479 -1.15278 5.5
    endloop
  endfacet
  facet normal 0 -0.904249 0.427006
    outer loop
      vertex 18.9699 -2.56784 2.5034
      vertex 25.5 -3.75 0
      vertex 22.4301 -2.56784 2.5034
    endloop
  endfacet
  facet normal 0 -0.904249 0.427006
    outer loop
      vertex -16.25 -3 1.58824
      vertex 25.5 -3.75 0
      vertex 16.25 -3 1.58824
    endloop
  endfacet
  facet normal -1 0 0
    outer loop
      vertex -32.5 -3.75 0
      vertex -32.5 3.75 0
      vertex -32.5 3.75 -3
    endloop
  endfacet
  facet normal -1 0 0
    outer loop
      vertex -32.5 3.75 0
      vertex -32.5 0.5 9
      vertex -32.5 3.5 9
    endloop
  endfacet
  facet normal -1 0 0
    outer loop
      vertex -32.5 -3.75 0
      vertex -32.5 3.75 -3
      vertex -32.5 -3.75 -3
    endloop
  endfacet
  facet normal -1 0 0
    outer loop
      vertex -32.5 3.75 0
      vertex -32.5 -3.75 0
      vertex -32.5 0.5 9
    endloop
  endfacet
  facet normal 0 0 -1
    outer loop
      vertex 25.5 -3.75 -3
      vertex 18 0 -3
      vertex 25.5 3.75 -3
    endloop
  endfacet
  facet normal 0 0 -1
    outer loop
      vertex 25.5 -3.75 -3
      vertex 17.8668 -0.669696 -3
      vertex 18 0 -3
    endloop
  endfacet
  facet normal 0 0 -1
    outer loop
      vertex 25.5 -3.75 -3
      vertex 17.4874 -1.23744 -3
      vertex 17.8668 -0.669696 -3
    endloop
  endfacet
  facet normal 0 0 -1
    outer loop
      vertex 25.5 -3.75 -3
      vertex 16.9197 -1.61679 -3
      vertex 17.4874 -1.23744 -3
    endloop
  endfacet
  facet normal 0 0 -1
    outer loop
      vertex 25.5 -3.75 -3
      vertex 16.25 -1.75 -3
      vertex 16.9197 -1.61679 -3
    endloop
  endfacet
  facet normal 0 0 -1
    outer loop
      vertex -16.25 -1.75 -3
      vertex 16.25 -1.75 -3
      vertex 25.5 -3.75 -3
    endloop
  endfacet
  facet normal 0 0 -1
    outer loop
      vertex 14.6332 -0.669696 -3
      vertex -14.5 0 -3
      vertex 14.5 0 -3
    endloop
  endfacet
  facet normal 0 0 -1
    outer loop
      vertex -14.6332 -0.669696 -3
      vertex 14.6332 -0.669696 -3
      vertex 15.0126 -1.23744 -3
    endloop
  endfacet
  facet normal 0 0 -1
    outer loop
      vertex -15.0126 -1.23744 -3
      vertex 15.0126 -1.23744 -3
      vertex 15.5803 -1.61679 -3
    endloop
  endfacet
  facet normal 0 0 -1
    outer loop
      vertex 16.25 -1.75 -3
      vertex -16.25 -1.75 -3
      vertex 15.5803 -1.61679 -3
    endloop
  endfacet
  facet normal 0 0 -1
    outer loop
      vertex 14.6332 -0.669696 -3
      vertex -14.6332 -0.669696 -3
      vertex -14.5 0 -3
    endloop
  endfacet
  facet normal 0 0 -1
    outer loop
      vertex 15.0126 -1.23744 -3
      vertex -15.0126 -1.23744 -3
      vertex -14.6332 -0.669696 -3
    endloop
  endfacet
  facet normal 0 0 -1
    outer loop
      vertex 15.5803 -1.61679 -3
      vertex -15.5803 -1.61679 -3
      vertex -15.0126 -1.23744 -3
    endloop
  endfacet
  facet normal -0 0 -1
    outer loop
      vertex 15.5803 -1.61679 -3
      vertex -16.25 -1.75 -3
      vertex -15.5803 -1.61679 -3
    endloop
  endfacet
  facet normal -0 0 -1
    outer loop
      vertex -17.8668 -0.669696 -3
      vertex -32.5 -3.75 -3
      vertex -18 0 -3
    endloop
  endfacet
  facet normal -0 0 -1
    outer loop
      vertex -17.4874 -1.23744 -3
      vertex -32.5 -3.75 -3
      vertex -17.8668 -0.669696 -3
    endloop
  endfacet
  facet normal -0 0 -1
    outer loop
      vertex -16.9197 -1.61679 -3
      vertex -32.5 -3.75 -3
      vertex -17.4874 -1.23744 -3
    endloop
  endfacet
  facet normal -0 0 -1
    outer loop
      vertex -16.25 -1.75 -3
      vertex -32.5 -3.75 -3
      vertex -16.9197 -1.61679 -3
    endloop
  endfacet
  facet normal 0 0 -1
    outer loop
      vertex -32.5 -3.75 -3
      vertex -16.25 -1.75 -3
      vertex 25.5 -3.75 -3
    endloop
  endfacet
  facet normal 0 0 -1
    outer loop
      vertex 17.8668 0.669696 -3
      vertex 25.5 3.75 -3
      vertex 18 0 -3
    endloop
  endfacet
  facet normal 0 0 -1
    outer loop
      vertex 17.4874 1.23744 -3
      vertex 25.5 3.75 -3
      vertex 17.8668 0.669696 -3
    endloop
  endfacet
  facet normal 0 0 -1
    outer loop
      vertex 16.9197 1.61679 -3
      vertex 25.5 3.75 -3
      vertex 17.4874 1.23744 -3
    endloop
  endfacet
  facet normal 0 0 -1
    outer loop
      vertex 16.25 1.75 -3
      vertex 25.5 3.75 -3
      vertex 16.9197 1.61679 -3
    endloop
  endfacet
  facet normal 0 0 -1
    outer loop
      vertex -16.25 1.75 -3
      vertex 16.25 1.75 -3
      vertex 15.5803 1.61679 -3
    endloop
  endfacet
  facet normal 0 0 -1
    outer loop
      vertex -14.5 0 -3
      vertex 14.6332 0.669696 -3
      vertex 14.5 0 -3
    endloop
  endfacet
  facet normal 0 0 -1
    outer loop
      vertex -14.6332 0.669696 -3
      vertex 14.6332 0.669696 -3
      vertex -14.5 0 -3
    endloop
  endfacet
  facet normal 0 0 -1
    outer loop
      vertex 14.6332 0.669696 -3
      vertex -14.6332 0.669696 -3
      vertex 15.0126 1.23744 -3
    endloop
  endfacet
  facet normal 0 0 -1
    outer loop
      vertex -15.0126 1.23744 -3
      vertex 15.0126 1.23744 -3
      vertex -14.6332 0.669696 -3
    endloop
  endfacet
  facet normal 0 0 -1
    outer loop
      vertex 15.0126 1.23744 -3
      vertex -15.0126 1.23744 -3
      vertex 15.5803 1.61679 -3
    endloop
  endfacet
  facet normal 0 0 -1
    outer loop
      vertex -15.5803 1.61679 -3
      vertex 15.5803 1.61679 -3
      vertex -15.0126 1.23744 -3
    endloop
  endfacet
  facet normal 0 0 -1
    outer loop
      vertex -16.25 1.75 -3
      vertex 15.5803 1.61679 -3
      vertex -15.5803 1.61679 -3
    endloop
  endfacet
  facet normal 0 0 -1
    outer loop
      vertex 16.25 1.75 -3
      vertex -16.25 1.75 -3
      vertex 25.5 3.75 -3
    endloop
  endfacet
  facet normal 0 0 -1
    outer loop
      vertex -32.5 3.75 -3
      vertex -18 0 -3
      vertex -32.5 -3.75 -3
    endloop
  endfacet
  facet normal 0 0 -1
    outer loop
      vertex -18 0 -3
      vertex -32.5 3.75 -3
      vertex -17.8668 0.669696 -3
    endloop
  endfacet
  facet normal 0 0 -1
    outer loop
      vertex -17.8668 0.669696 -3
      vertex -32.5 3.75 -3
      vertex -17.4874 1.23744 -3
    endloop
  endfacet
  facet normal 0 0 -1
    outer loop
      vertex -16.25 1.75 -3
      vertex -32.5 3.75 -3
      vertex 25.5 3.75 -3
    endloop
  endfacet
  facet normal 0 0 -1
    outer loop
      vertex -16.9197 1.61679 -3
      vertex -32.5 3.75 -3
      vertex -16.25 1.75 -3
    endloop
  endfacet
  facet normal 0 0 -1
    outer loop
      vertex -17.4874 1.23744 -3
      vertex -32.5 3.75 -3
      vertex -16.9197 1.61679 -3
    endloop
  endfacet
  facet normal 0 -1 0
    outer loop
      vertex -32.5 -3.75 -3
      vertex 25.5 -3.75 0
      vertex -32.5 -3.75 0
    endloop
  endfacet
  facet normal 0 -1 -0
    outer loop
      vertex 25.5 -3.75 0
      vertex -32.5 -3.75 -3
      vertex 25.5 -3.75 -3
    endloop
  endfacet
  facet normal -0 0 1
    outer loop
      vertex 19.0216 1.14805 9
      vertex 25.5 0.5 9
      vertex 25.5 3.5 9
    endloop
  endfacet
  facet normal 0 0 1
    outer loop
      vertex 25.5 0.5 9
      vertex 19.0216 1.14805 9
      vertex 19.1505 0.5 9
    endloop
  endfacet
  facet normal 0 0 1
    outer loop
      vertex 25.5 3.5 9
      vertex 18.3713 2.12132 9
      vertex 19.0216 1.14805 9
    endloop
  endfacet
  facet normal 0 0 1
    outer loop
      vertex 25.5 3.5 9
      vertex 17.398 2.77164 9
      vertex 18.3713 2.12132 9
    endloop
  endfacet
  facet normal 0 0 1
    outer loop
      vertex 25.5 3.5 9
      vertex 16.25 3 9
      vertex 17.398 2.77164 9
    endloop
  endfacet
  facet normal 0 0 1
    outer loop
      vertex 13.4784 1.14805 9
      vertex -13.3495 0.5 9
      vertex 13.3495 0.5 9
    endloop
  endfacet
  facet normal 0 0 1
    outer loop
      vertex -13.4784 1.14805 9
      vertex 13.4784 1.14805 9
      vertex 14.1287 2.12132 9
    endloop
  endfacet
  facet normal 0 0 1
    outer loop
      vertex -14.1287 2.12132 9
      vertex 14.1287 2.12132 9
      vertex 15.1019 2.77164 9
    endloop
  endfacet
  facet normal 0 0 1
    outer loop
      vertex -15.1019 2.77164 9
      vertex 15.1019 2.77164 9
      vertex 16.25 3 9
    endloop
  endfacet
  facet normal 0 0 1
    outer loop
      vertex 13.4784 1.14805 9
      vertex -13.4784 1.14805 9
      vertex -13.3495 0.5 9
    endloop
  endfacet
  facet normal 0 0 1
    outer loop
      vertex 14.1287 2.12132 9
      vertex -14.1287 2.12132 9
      vertex -13.4784 1.14805 9
    endloop
  endfacet
  facet normal 0 0 1
    outer loop
      vertex -16.25 3 9
      vertex 16.25 3 9
      vertex 25.5 3.5 9
    endloop
  endfacet
  facet normal 0 0 1
    outer loop
      vertex 15.1019 2.77164 9
      vertex -15.1019 2.77164 9
      vertex -14.1287 2.12132 9
    endloop
  endfacet
  facet normal 0 0 1
    outer loop
      vertex 16.25 3 9
      vertex -16.25 3 9
      vertex -15.1019 2.77164 9
    endloop
  endfacet
  facet normal -0 0 1
    outer loop
      vertex -32.5 3.5 9
      vertex -16.25 3 9
      vertex 25.5 3.5 9
    endloop
  endfacet
  facet normal 0 0 1
    outer loop
      vertex -32.5 3.5 9
      vertex -17.398 2.77164 9
      vertex -16.25 3 9
    endloop
  endfacet
  facet normal 0 0 1
    outer loop
      vertex -32.5 3.5 9
      vertex -18.3713 2.12132 9
      vertex -17.398 2.77164 9
    endloop
  endfacet
  facet normal 0 0 1
    outer loop
      vertex -32.5 3.5 9
      vertex -19.0216 1.14805 9
      vertex -18.3713 2.12132 9
    endloop
  endfacet
  facet normal 0 0 1
    outer loop
      vertex -32.5 3.5 9
      vertex -19.1505 0.5 9
      vertex -19.0216 1.14805 9
    endloop
  endfacet
  facet normal 0 0 1
    outer loop
      vertex -19.1505 0.5 9
      vertex -32.5 3.5 9
      vertex -32.5 0.5 9
    endloop
  endfacet
  facet normal 0 0.999614 0.0277671
    outer loop
      vertex 25.5 3.5 9
      vertex 20.0303 3.55231 7.11679
      vertex -32.5 3.5 9
    endloop
  endfacet
  facet normal 2.84979e-007 0.999614 0.0277677
    outer loop
      vertex -32.5 3.5 9
      vertex -28.0613 3.55104 7.16273
      vertex -28.5 3.54861 7.25
    endloop
  endfacet
  facet normal -0 0.999614 0.0277671
    outer loop
      vertex -27.8303 3.55231 7.11679
      vertex -32.5 3.5 9
      vertex 20.0303 3.55231 7.11679
    endloop
  endfacet
  facet normal -2.26233e-007 0.999614 0.0277665
    outer loop
      vertex -32.5 3.5 9
      vertex -27.8303 3.55231 7.11679
      vertex -28.0613 3.55104 7.16273
    endloop
  endfacet
  facet normal 0 0.999614 0.0277672
    outer loop
      vertex 19.4626 3.56285 6.73744
      vertex -27.8303 3.55231 7.11679
      vertex 20.0303 3.55231 7.11679
    endloop
  endfacet
  facet normal 0 0.999614 0.0277672
    outer loop
      vertex 19.4626 3.56285 6.73744
      vertex -27.2626 3.56285 6.73744
      vertex -27.8303 3.55231 7.11679
    endloop
  endfacet
  facet normal 0 0.999614 0.0277668
    outer loop
      vertex 19.0832 3.57862 6.1697
      vertex -27.2626 3.56285 6.73744
      vertex 19.4626 3.56285 6.73744
    endloop
  endfacet
  facet normal 0 0.999614 0.0277668
    outer loop
      vertex 19.0832 3.57862 6.1697
      vertex -26.8832 3.57862 6.1697
      vertex -27.2626 3.56285 6.73744
    endloop
  endfacet
  facet normal 0 0.999614 0.0277673
    outer loop
      vertex 18.95 3.59722 5.5
      vertex -26.8832 3.57862 6.1697
      vertex 19.0832 3.57862 6.1697
    endloop
  endfacet
  facet normal 0 0.999614 0.0277673
    outer loop
      vertex 18.95 3.59722 5.5
      vertex -26.75 3.59722 5.5
      vertex -26.8832 3.57862 6.1697
    endloop
  endfacet
  facet normal 0 0.999614 0.027767
    outer loop
      vertex 19.0832 3.61582 4.8303
      vertex -26.75 3.59722 5.5
      vertex 18.95 3.59722 5.5
    endloop
  endfacet
  facet normal 0 0.999614 0.027767
    outer loop
      vertex 19.0832 3.61582 4.8303
      vertex -26.8832 3.61582 4.8303
      vertex -26.75 3.59722 5.5
    endloop
  endfacet
  facet normal 0 0.999614 0.0277668
    outer loop
      vertex 19.4626 3.6316 4.26256
      vertex -26.8832 3.61582 4.8303
      vertex 19.0832 3.61582 4.8303
    endloop
  endfacet
  facet normal 0 0.999614 0.0277668
    outer loop
      vertex 19.4626 3.6316 4.26256
      vertex -27.2626 3.6316 4.26256
      vertex -26.8832 3.61582 4.8303
    endloop
  endfacet
  facet normal -8.8385e-009 0.999614 0.0277672
    outer loop
      vertex -32.5 3.75 0
      vertex 19.4626 3.6316 4.26256
      vertex 20.0303 3.64213 3.88321
    endloop
  endfacet
  facet normal 0 0.999614 0.0277671
    outer loop
      vertex 19.4626 3.6316 4.26256
      vertex -32.5 3.75 0
      vertex -27.2626 3.6316 4.26256
    endloop
  endfacet
  facet normal -3.28806e-007 0.999614 0.0277666
    outer loop
      vertex 25.5 3.75 0
      vertex 20.0303 3.64213 3.88321
      vertex 20.4753 3.64459 3.7947
    endloop
  endfacet
  facet normal 4.5156e-007 0.999614 0.0277665
    outer loop
      vertex -27.2626 3.6316 4.26256
      vertex -32.5 3.75 0
      vertex -27.8303 3.64213 3.88321
    endloop
  endfacet
  facet normal 9.14235e-007 0.999614 0.0277683
    outer loop
      vertex 25.5 3.75 0
      vertex 20.4753 3.64459 3.7947
      vertex 20.7 3.64583 3.75
    endloop
  endfacet
  facet normal 3.11093e-007 0.999614 0.0277667
    outer loop
      vertex -27.8303 3.64213 3.88321
      vertex -32.5 3.75 0
      vertex -28.2753 3.64459 3.7947
    endloop
  endfacet
  facet normal -3.42008e-007 0.999614 0.027768
    outer loop
      vertex 20.2613 3.55104 7.16273
      vertex 25.5 3.5 9
      vertex 20.7 3.54861 7.25
    endloop
  endfacet
  facet normal 1.00552e-007 0.999614 0.0277668
    outer loop
      vertex 25.5 3.5 9
      vertex 21.1387 3.55104 7.16273
      vertex 20.7 3.54861 7.25
    endloop
  endfacet
  facet normal -7.98233e-008 0.999614 0.0277672
    outer loop
      vertex 25.5 3.5 9
      vertex 21.3697 3.55231 7.11679
      vertex 21.1387 3.55104 7.16273
    endloop
  endfacet
  facet normal -3.78365e-008 0.999614 0.0277672
    outer loop
      vertex 25.5 3.5 9
      vertex 21.9374 3.56285 6.73744
      vertex 21.3697 3.55231 7.11679
    endloop
  endfacet
  facet normal 1.14422e-007 0.999614 0.0277669
    outer loop
      vertex 25.5 3.5 9
      vertex 22.3168 3.57862 6.1697
      vertex 21.9374 3.56285 6.73744
    endloop
  endfacet
  facet normal -2.30325e-007 0.999614 0.0277673
    outer loop
      vertex 25.5 3.5 9
      vertex 22.45 3.59722 5.5
      vertex 22.3168 3.57862 6.1697
    endloop
  endfacet
  facet normal 3.47288e-008 0.999614 0.0277671
    outer loop
      vertex 25.5 3.75 0
      vertex 22.45 3.59722 5.5
      vertex 25.5 3.5 9
    endloop
  endfacet
  facet normal -7.93994e-008 0.999614 0.027767
    outer loop
      vertex 22.45 3.59722 5.5
      vertex 25.5 3.75 0
      vertex 22.3168 3.61582 4.8303
    endloop
  endfacet
  facet normal 0 0.999614 0.0277671
    outer loop
      vertex 20.0303 3.64213 3.88321
      vertex 25.5 3.75 0
      vertex -32.5 3.75 0
    endloop
  endfacet
  facet normal -5.4317e-007 0.999614 0.0277664
    outer loop
      vertex 20.9247 3.64459 3.7947
      vertex 25.5 3.75 0
      vertex 20.7 3.64583 3.75
    endloop
  endfacet
  facet normal 1.9535e-007 0.999614 0.0277673
    outer loop
      vertex 21.3697 3.64213 3.88321
      vertex 25.5 3.75 0
      vertex 20.9247 3.64459 3.7947
    endloop
  endfacet
  facet normal 5.18666e-008 0.999614 0.0277671
    outer loop
      vertex 21.9374 3.6316 4.26256
      vertex 25.5 3.75 0
      vertex 21.3697 3.64213 3.88321
    endloop
  endfacet
  facet normal -1.67458e-007 0.999614 0.0277669
    outer loop
      vertex 22.3168 3.61582 4.8303
      vertex 25.5 3.75 0
      vertex 21.9374 3.6316 4.26256
    endloop
  endfacet
  facet normal 2.71504e-007 0.999614 0.0277663
    outer loop
      vertex 20.0303 3.55231 7.11679
      vertex 25.5 3.5 9
      vertex 20.2613 3.55104 7.16273
    endloop
  endfacet
  facet normal -1.06838e-007 0.999614 0.0277668
    outer loop
      vertex -28.9387 3.55104 7.16273
      vertex -32.5 3.5 9
      vertex -28.5 3.54861 7.25
    endloop
  endfacet
  facet normal 8.48131e-008 0.999614 0.0277672
    outer loop
      vertex -29.1697 3.55231 7.11679
      vertex -32.5 3.5 9
      vertex -28.9387 3.55104 7.16273
    endloop
  endfacet
  facet normal 4.27593e-008 0.999614 0.0277671
    outer loop
      vertex -29.7374 3.56285 6.73744
      vertex -32.5 3.5 9
      vertex -29.1697 3.55231 7.11679
    endloop
  endfacet
  facet normal -1.35837e-007 0.999614 0.0277669
    outer loop
      vertex -30.1168 3.57862 6.1697
      vertex -32.5 3.5 9
      vertex -29.7374 3.56285 6.73744
    endloop
  endfacet
  facet normal 2.92867e-007 0.999614 0.0277673
    outer loop
      vertex -30.25 3.59722 5.5
      vertex -32.5 3.5 9
      vertex -30.1168 3.57862 6.1697
    endloop
  endfacet
  facet normal 9.83944e-008 0.999614 0.027767
    outer loop
      vertex -32.5 3.75 0
      vertex -30.25 3.59722 5.5
      vertex -30.1168 3.61582 4.8303
    endloop
  endfacet
  facet normal -4.70769e-008 0.999614 0.0277671
    outer loop
      vertex -30.25 3.59722 5.5
      vertex -32.5 3.75 0
      vertex -32.5 3.5 9
    endloop
  endfacet
  facet normal 1.91334e-007 0.999614 0.027767
    outer loop
      vertex -29.7374 3.6316 4.26256
      vertex -32.5 3.75 0
      vertex -30.1168 3.61582 4.8303
    endloop
  endfacet
  facet normal -5.64054e-008 0.999614 0.0277671
    outer loop
      vertex -29.1697 3.64213 3.88321
      vertex -32.5 3.75 0
      vertex -29.7374 3.6316 4.26256
    endloop
  endfacet
  facet normal -2.02189e-007 0.999614 0.0277672
    outer loop
      vertex -28.7247 3.64459 3.7947
      vertex -32.5 3.75 0
      vertex -29.1697 3.64213 3.88321
    endloop
  endfacet
  facet normal 5.62185e-007 0.999614 0.0277665
    outer loop
      vertex -28.5 3.64583 3.75
      vertex -32.5 3.75 0
      vertex -28.7247 3.64459 3.7947
    endloop
  endfacet
  facet normal -8.64992e-007 0.999614 0.027768
    outer loop
      vertex -28.2753 3.64459 3.7947
      vertex -32.5 3.75 0
      vertex -28.5 3.64583 3.75
    endloop
  endfacet
  facet normal 1 -0 0
    outer loop
      vertex 25.5 0.5 9
      vertex 25.5 3.75 0
      vertex 25.5 3.5 9
    endloop
  endfacet
  facet normal 1 0 0
    outer loop
      vertex 25.5 -3.75 0
      vertex 25.5 3.75 0
      vertex 25.5 0.5 9
    endloop
  endfacet
  facet normal 1 0 0
    outer loop
      vertex 25.5 3.75 0
      vertex 25.5 -3.75 0
      vertex 25.5 3.75 -3
    endloop
  endfacet
  facet normal 1 0 0
    outer loop
      vertex 25.5 3.75 -3
      vertex 25.5 -3.75 0
      vertex 25.5 -3.75 -3
    endloop
  endfacet
  facet normal 0 1 -0
    outer loop
      vertex 25.5 3.75 -3
      vertex -32.5 3.75 0
      vertex 25.5 3.75 0
    endloop
  endfacet
  facet normal 0 1 0
    outer loop
      vertex -32.5 3.75 0
      vertex 25.5 3.75 -3
      vertex -32.5 3.75 -3
    endloop
  endfacet
  facet normal -0.980785 -0.195091 0
    outer loop
      vertex 18 0 -3
      vertex 17.8668 0.669696 0
      vertex 17.8668 0.669696 -3
    endloop
  endfacet
  facet normal -0.980785 -0.195091 0
    outer loop
      vertex 17.8668 0.669696 0
      vertex 18 0 -3
      vertex 18 0 0
    endloop
  endfacet
  facet normal 0.195091 -0.980785 0
    outer loop
      vertex 15.5803 1.61679 -3
      vertex 16.25 1.75 0
      vertex 15.5803 1.61679 0
    endloop
  endfacet
  facet normal 0.195091 -0.980785 0
    outer loop
      vertex 16.25 1.75 0
      vertex 15.5803 1.61679 -3
      vertex 16.25 1.75 -3
    endloop
  endfacet
  facet normal -0.195091 0.980785 0
    outer loop
      vertex 16.9197 -1.61679 -3
      vertex 16.25 -1.75 0
      vertex 16.9197 -1.61679 0
    endloop
  endfacet
  facet normal -0.195091 0.980785 0
    outer loop
      vertex 16.25 -1.75 0
      vertex 16.9197 -1.61679 -3
      vertex 16.25 -1.75 -3
    endloop
  endfacet
  facet normal -0.831469 0.555571 0
    outer loop
      vertex 17.4874 -1.23744 -3
      vertex 17.8668 -0.669696 0
      vertex 17.8668 -0.669696 -3
    endloop
  endfacet
  facet normal -0.831469 0.555571 0
    outer loop
      vertex 17.8668 -0.669696 0
      vertex 17.4874 -1.23744 -3
      vertex 17.4874 -1.23744 0
    endloop
  endfacet
  facet normal -0.555571 -0.831469 0
    outer loop
      vertex 16.9197 1.61679 -3
      vertex 17.4874 1.23744 0
      vertex 16.9197 1.61679 0
    endloop
  endfacet
  facet normal -0.555571 -0.831469 -0
    outer loop
      vertex 17.4874 1.23744 0
      vertex 16.9197 1.61679 -3
      vertex 17.4874 1.23744 -3
    endloop
  endfacet
  facet normal -0.831469 -0.555571 0
    outer loop
      vertex 17.8668 0.669696 -3
      vertex 17.4874 1.23744 0
      vertex 17.4874 1.23744 -3
    endloop
  endfacet
  facet normal -0.831469 -0.555571 0
    outer loop
      vertex 17.4874 1.23744 0
      vertex 17.8668 0.669696 -3
      vertex 17.8668 0.669696 0
    endloop
  endfacet
  facet normal -0.195091 -0.980785 0
    outer loop
      vertex 16.25 1.75 -3
      vertex 16.9197 1.61679 0
      vertex 16.25 1.75 0
    endloop
  endfacet
  facet normal -0.195091 -0.980785 -0
    outer loop
      vertex 16.9197 1.61679 0
      vertex 16.25 1.75 -3
      vertex 16.9197 1.61679 -3
    endloop
  endfacet
  facet normal 0.831469 -0.555571 0
    outer loop
      vertex 14.6332 0.669696 0
      vertex 15.0126 1.23744 -3
      vertex 15.0126 1.23744 0
    endloop
  endfacet
  facet normal 0.831469 -0.555571 0
    outer loop
      vertex 15.0126 1.23744 -3
      vertex 14.6332 0.669696 0
      vertex 14.6332 0.669696 -3
    endloop
  endfacet
  facet normal 0.980785 -0.195089 0
    outer loop
      vertex 14.5 0 0
      vertex 14.6332 0.669696 -3
      vertex 14.6332 0.669696 0
    endloop
  endfacet
  facet normal 0.980785 -0.195089 0
    outer loop
      vertex 14.6332 0.669696 -3
      vertex 14.5 0 0
      vertex 14.5 0 -3
    endloop
  endfacet
  facet normal 0.555571 -0.831469 0
    outer loop
      vertex 15.0126 1.23744 -3
      vertex 15.5803 1.61679 0
      vertex 15.0126 1.23744 0
    endloop
  endfacet
  facet normal 0.555571 -0.831469 0
    outer loop
      vertex 15.5803 1.61679 0
      vertex 15.0126 1.23744 -3
      vertex 15.5803 1.61679 -3
    endloop
  endfacet
  facet normal -0.980785 0.195091 0
    outer loop
      vertex 17.8668 -0.669696 -3
      vertex 18 0 0
      vertex 18 0 -3
    endloop
  endfacet
  facet normal -0.980785 0.195091 0
    outer loop
      vertex 18 0 0
      vertex 17.8668 -0.669696 -3
      vertex 17.8668 -0.669696 0
    endloop
  endfacet
  facet normal 0.980785 0.195089 0
    outer loop
      vertex 14.6332 -0.669696 0
      vertex 14.5 0 -3
      vertex 14.5 0 0
    endloop
  endfacet
  facet normal 0.980785 0.195089 0
    outer loop
      vertex 14.5 0 -3
      vertex 14.6332 -0.669696 0
      vertex 14.6332 -0.669696 -3
    endloop
  endfacet
  facet normal -0.555571 0.831469 0
    outer loop
      vertex 17.4874 -1.23744 -3
      vertex 16.9197 -1.61679 0
      vertex 17.4874 -1.23744 0
    endloop
  endfacet
  facet normal -0.555571 0.831469 0
    outer loop
      vertex 16.9197 -1.61679 0
      vertex 17.4874 -1.23744 -3
      vertex 16.9197 -1.61679 -3
    endloop
  endfacet
  facet normal 0.195091 0.980785 -0
    outer loop
      vertex 16.25 -1.75 -3
      vertex 15.5803 -1.61679 0
      vertex 16.25 -1.75 0
    endloop
  endfacet
  facet normal 0.195091 0.980785 0
    outer loop
      vertex 15.5803 -1.61679 0
      vertex 16.25 -1.75 -3
      vertex 15.5803 -1.61679 -3
    endloop
  endfacet
  facet normal 0.555571 0.831469 -0
    outer loop
      vertex 15.5803 -1.61679 -3
      vertex 15.0126 -1.23744 0
      vertex 15.5803 -1.61679 0
    endloop
  endfacet
  facet normal 0.555571 0.831469 0
    outer loop
      vertex 15.0126 -1.23744 0
      vertex 15.5803 -1.61679 -3
      vertex 15.0126 -1.23744 -3
    endloop
  endfacet
  facet normal 0.831469 0.555571 0
    outer loop
      vertex 15.0126 -1.23744 0
      vertex 14.6332 -0.669696 -3
      vertex 14.6332 -0.669696 0
    endloop
  endfacet
  facet normal 0.831469 0.555571 0
    outer loop
      vertex 14.6332 -0.669696 -3
      vertex 15.0126 -1.23744 0
      vertex 15.0126 -1.23744 -3
    endloop
  endfacet
  facet normal -0.980785 -0.195089 0
    outer loop
      vertex -14.5 0 -3
      vertex -14.6332 0.669696 0
      vertex -14.6332 0.669696 -3
    endloop
  endfacet
  facet normal -0.980785 -0.195089 0
    outer loop
      vertex -14.6332 0.669696 0
      vertex -14.5 0 -3
      vertex -14.5 0 0
    endloop
  endfacet
  facet normal 0.980785 -0.195091 0
    outer loop
      vertex -18 0 0
      vertex -17.8668 0.669696 -3
      vertex -17.8668 0.669696 0
    endloop
  endfacet
  facet normal 0.980785 -0.195091 0
    outer loop
      vertex -17.8668 0.669696 -3
      vertex -18 0 0
      vertex -18 0 -3
    endloop
  endfacet
  facet normal -0.195091 -0.980785 0
    outer loop
      vertex -16.25 1.75 -3
      vertex -15.5803 1.61679 0
      vertex -16.25 1.75 0
    endloop
  endfacet
  facet normal -0.195091 -0.980785 -0
    outer loop
      vertex -15.5803 1.61679 0
      vertex -16.25 1.75 -3
      vertex -15.5803 1.61679 -3
    endloop
  endfacet
  facet normal 0.195091 0.980785 -0
    outer loop
      vertex -16.25 -1.75 -3
      vertex -16.9197 -1.61679 0
      vertex -16.25 -1.75 0
    endloop
  endfacet
  facet normal 0.195091 0.980785 0
    outer loop
      vertex -16.9197 -1.61679 0
      vertex -16.25 -1.75 -3
      vertex -16.9197 -1.61679 -3
    endloop
  endfacet
  facet normal -0.555571 -0.831469 0
    outer loop
      vertex -15.5803 1.61679 -3
      vertex -15.0126 1.23744 0
      vertex -15.5803 1.61679 0
    endloop
  endfacet
  facet normal -0.555571 -0.831469 -0
    outer loop
      vertex -15.0126 1.23744 0
      vertex -15.5803 1.61679 -3
      vertex -15.0126 1.23744 -3
    endloop
  endfacet
  facet normal -0.831469 -0.555571 0
    outer loop
      vertex -14.6332 0.669696 -3
      vertex -15.0126 1.23744 0
      vertex -15.0126 1.23744 -3
    endloop
  endfacet
  facet normal -0.831469 -0.555571 0
    outer loop
      vertex -15.0126 1.23744 0
      vertex -14.6332 0.669696 -3
      vertex -14.6332 0.669696 0
    endloop
  endfacet
  facet normal 0.555571 -0.831469 0
    outer loop
      vertex -17.4874 1.23744 -3
      vertex -16.9197 1.61679 0
      vertex -17.4874 1.23744 0
    endloop
  endfacet
  facet normal 0.555571 -0.831469 0
    outer loop
      vertex -16.9197 1.61679 0
      vertex -17.4874 1.23744 -3
      vertex -16.9197 1.61679 -3
    endloop
  endfacet
  facet normal 0.831469 -0.555571 0
    outer loop
      vertex -17.8668 0.669696 0
      vertex -17.4874 1.23744 -3
      vertex -17.4874 1.23744 0
    endloop
  endfacet
  facet normal 0.831469 -0.555571 0
    outer loop
      vertex -17.4874 1.23744 -3
      vertex -17.8668 0.669696 0
      vertex -17.8668 0.669696 -3
    endloop
  endfacet
  facet normal 0.195091 -0.980785 0
    outer loop
      vertex -16.9197 1.61679 -3
      vertex -16.25 1.75 0
      vertex -16.9197 1.61679 0
    endloop
  endfacet
  facet normal 0.195091 -0.980785 0
    outer loop
      vertex -16.25 1.75 0
      vertex -16.9197 1.61679 -3
      vertex -16.25 1.75 -3
    endloop
  endfacet
  facet normal -0.980785 0.195089 0
    outer loop
      vertex -14.6332 -0.669696 -3
      vertex -14.5 0 0
      vertex -14.5 0 -3
    endloop
  endfacet
  facet normal -0.980785 0.195089 0
    outer loop
      vertex -14.5 0 0
      vertex -14.6332 -0.669696 -3
      vertex -14.6332 -0.669696 0
    endloop
  endfacet
  facet normal -0.195091 0.980785 0
    outer loop
      vertex -15.5803 -1.61679 -3
      vertex -16.25 -1.75 0
      vertex -15.5803 -1.61679 0
    endloop
  endfacet
  facet normal -0.195091 0.980785 0
    outer loop
      vertex -16.25 -1.75 0
      vertex -15.5803 -1.61679 -3
      vertex -16.25 -1.75 -3
    endloop
  endfacet
  facet normal -0.831469 0.555571 0
    outer loop
      vertex -15.0126 -1.23744 -3
      vertex -14.6332 -0.669696 0
      vertex -14.6332 -0.669696 -3
    endloop
  endfacet
  facet normal -0.831469 0.555571 0
    outer loop
      vertex -14.6332 -0.669696 0
      vertex -15.0126 -1.23744 -3
      vertex -15.0126 -1.23744 0
    endloop
  endfacet
  facet normal 0.555571 0.831469 -0
    outer loop
      vertex -16.9197 -1.61679 -3
      vertex -17.4874 -1.23744 0
      vertex -16.9197 -1.61679 0
    endloop
  endfacet
  facet normal 0.555571 0.831469 0
    outer loop
      vertex -17.4874 -1.23744 0
      vertex -16.9197 -1.61679 -3
      vertex -17.4874 -1.23744 -3
    endloop
  endfacet
  facet normal 0.980785 0.195091 0
    outer loop
      vertex -17.8668 -0.669696 0
      vertex -18 0 -3
      vertex -18 0 0
    endloop
  endfacet
  facet normal 0.980785 0.195091 0
    outer loop
      vertex -18 0 -3
      vertex -17.8668 -0.669696 0
      vertex -17.8668 -0.669696 -3
    endloop
  endfacet
  facet normal -0.555571 0.831469 0
    outer loop
      vertex -15.0126 -1.23744 -3
      vertex -15.5803 -1.61679 0
      vertex -15.0126 -1.23744 0
    endloop
  endfacet
  facet normal -0.555571 0.831469 0
    outer loop
      vertex -15.5803 -1.61679 0
      vertex -15.0126 -1.23744 -3
      vertex -15.5803 -1.61679 -3
    endloop
  endfacet
  facet normal 0.831469 0.555571 0
    outer loop
      vertex -17.4874 -1.23744 0
      vertex -17.8668 -0.669696 -3
      vertex -17.8668 -0.669696 0
    endloop
  endfacet
  facet normal 0.831469 0.555571 0
    outer loop
      vertex -17.8668 -0.669696 -3
      vertex -17.4874 -1.23744 0
      vertex -17.4874 -1.23744 -3
    endloop
  endfacet
  facet normal -0.980785 -0.195092 0
    outer loop
      vertex 19.1505 0.5 2.98758
      vertex 19.0216 1.14805 5.13985
      vertex 19.0216 1.14805 0
    endloop
  endfacet
  facet normal -0.980785 -0.195092 5.26372e-008
    outer loop
      vertex 19.0216 1.14805 5.13985
      vertex 19.1505 0.5 2.98758
      vertex 19.0832 0.838504 4.8303
    endloop
  endfacet
  facet normal -0.980785 -0.195092 3.33776e-008
    outer loop
      vertex 19.0832 0.838504 4.8303
      vertex 19.1505 0.5 2.98758
      vertex 19.1505 0.5 4.72953
    endloop
  endfacet
  facet normal -0.980784 -0.195095 -7.29269e-007
    outer loop
      vertex 19.0216 1.14805 0
      vertex 19.1865 0.319446 2.87847
      vertex 19.1505 0.5 2.98758
    endloop
  endfacet
  facet normal -0.980785 -0.195092 3.21373e-007
    outer loop
      vertex 19.25 0 0
      vertex 19.1865 0.319446 2.87847
      vertex 19.0216 1.14805 0
    endloop
  endfacet
  facet normal -0.980786 -0.195089 0
    outer loop
      vertex 19.1865 0.319446 2.87847
      vertex 19.25 0 0
      vertex 19.25 0 2.83697
    endloop
  endfacet
  facet normal -0.980785 -0.195092 3.33776e-008
    outer loop
      vertex 19.0832 0.838504 6.1697
      vertex 19.1505 0.500001 6.27047
      vertex 19.1505 0.500001 8.01241
    endloop
  endfacet
  facet normal -0.980785 -0.195092 6.33209e-008
    outer loop
      vertex 19.1505 0.500001 8.01241
      vertex 19.0216 1.14805 5.86015
      vertex 19.0832 0.838504 6.1697
    endloop
  endfacet
  facet normal -0.980785 -0.195092 0
    outer loop
      vertex 19.0216 1.14805 5.86015
      vertex 19.1505 0.500001 8.01241
      vertex 19.0216 1.14805 9
    endloop
  endfacet
  facet normal -0.980785 -0.195092 -1.76619e-007
    outer loop
      vertex 19.1505 0.500001 8.01241
      vertex 19.1505 0.5 9
      vertex 19.0216 1.14805 9
    endloop
  endfacet
  facet normal -0.980786 -0.195087 -1.76614e-007
    outer loop
      vertex 19.1657 0.423787 8.05847
      vertex 19.1505 0.5 9
      vertex 19.1505 0.500001 8.01241
    endloop
  endfacet
  facet normal -0.980783 -0.1951 9.37132e-007
    outer loop
      vertex 19.1865 0.319447 8.12153
      vertex 19.1505 0.5 9
      vertex 19.1657 0.423787 8.05847
    endloop
  endfacet
  facet normal -0.980786 -0.195088 -1.61573e-006
    outer loop
      vertex 19.1505 0.5 9
      vertex 19.1865 0.319447 8.12153
      vertex 19.2304 0.0987081 8.15021
    endloop
  endfacet
  facet normal 0.980785 0.19509 0
    outer loop
      vertex 13.4784 -1.14805 5.51001
      vertex 13.25 0 0
      vertex 13.25 0 7.94118
    endloop
  endfacet
  facet normal 0.980785 0.19509 0
    outer loop
      vertex 13.25 0 0
      vertex 13.4784 -1.14805 5.51001
      vertex 13.4784 -1.14805 0
    endloop
  endfacet
  facet normal -0.195091 0.980785 0
    outer loop
      vertex 17.398 -2.77164 0
      vertex 16.25 -3 1.58824
      vertex 17.398 -2.77164 2.07183
    endloop
  endfacet
  facet normal -0.195091 0.980785 0
    outer loop
      vertex 16.25 -3 1.58824
      vertex 17.398 -2.77164 0
      vertex 16.25 -3 0
    endloop
  endfacet
  facet normal 0.195091 -0.980785 0
    outer loop
      vertex 15.1019 2.77164 0
      vertex 16.25 3 9
      vertex 15.1019 2.77164 9
    endloop
  endfacet
  facet normal 0.195091 -0.980785 0
    outer loop
      vertex 16.25 3 9
      vertex 15.1019 2.77164 0
      vertex 16.25 3 0
    endloop
  endfacet
  facet normal -0.55557 -0.83147 0
    outer loop
      vertex 17.398 2.77164 0
      vertex 18.3713 2.12132 9
      vertex 17.398 2.77164 9
    endloop
  endfacet
  facet normal -0.55557 -0.83147 -0
    outer loop
      vertex 18.3713 2.12132 9
      vertex 17.398 2.77164 0
      vertex 18.3713 2.12132 0
    endloop
  endfacet
  facet normal -0.83147 -0.55557 0
    outer loop
      vertex 18.3713 2.12132 0
      vertex 18.95 1.25526 5.5
      vertex 18.3713 2.12132 9
    endloop
  endfacet
  facet normal -0.83147 -0.55557 -0
    outer loop
      vertex 19.0216 1.14805 5.13985
      vertex 18.3713 2.12132 0
      vertex 19.0216 1.14805 0
    endloop
  endfacet
  facet normal -0.831471 -0.555569 3.75717e-007
    outer loop
      vertex 18.3713 2.12132 0
      vertex 19.0216 1.14805 5.13985
      vertex 18.95 1.25526 5.5
    endloop
  endfacet
  facet normal -0.83147 -0.555569 -4.92959e-007
    outer loop
      vertex 19.0216 1.14805 5.86015
      vertex 18.3713 2.12132 9
      vertex 18.95 1.25526 5.5
    endloop
  endfacet
  facet normal -0.83147 -0.55557 0
    outer loop
      vertex 18.3713 2.12132 9
      vertex 19.0216 1.14805 5.86015
      vertex 19.0216 1.14805 9
    endloop
  endfacet
  facet normal -0.195091 -0.980785 0
    outer loop
      vertex 16.25 3 0
      vertex 17.398 2.77164 9
      vertex 16.25 3 9
    endloop
  endfacet
  facet normal -0.195091 -0.980785 -0
    outer loop
      vertex 17.398 2.77164 9
      vertex 16.25 3 0
      vertex 17.398 2.77164 0
    endloop
  endfacet
  facet normal 0.83147 -0.55557 0
    outer loop
      vertex 13.4784 1.14805 9
      vertex 14.1287 2.12132 0
      vertex 14.1287 2.12132 9
    endloop
  endfacet
  facet normal 0.83147 -0.55557 0
    outer loop
      vertex 14.1287 2.12132 0
      vertex 13.4784 1.14805 9
      vertex 13.4784 1.14805 0
    endloop
  endfacet
  facet normal 0 0 1
    outer loop
      vertex 18 0 0
      vertex 19.25 0 0
      vertex 19.0216 1.14805 0
    endloop
  endfacet
  facet normal 0 0 1
    outer loop
      vertex 17.8668 0.669696 0
      vertex 19.0216 1.14805 0
      vertex 18.3713 2.12132 0
    endloop
  endfacet
  facet normal 0 0 1
    outer loop
      vertex 19.25 0 0
      vertex 18 0 0
      vertex 19.0216 -1.14805 0
    endloop
  endfacet
  facet normal -0 0 1
    outer loop
      vertex 17.8668 -0.669696 0
      vertex 19.0216 -1.14805 0
      vertex 18 0 0
    endloop
  endfacet
  facet normal 0 0 1
    outer loop
      vertex 19.0216 1.14805 0
      vertex 17.8668 0.669696 0
      vertex 18 0 0
    endloop
  endfacet
  facet normal 0 0 1
    outer loop
      vertex 18.3713 2.12132 0
      vertex 17.4874 1.23744 0
      vertex 17.8668 0.669696 0
    endloop
  endfacet
  facet normal 0 0 1
    outer loop
      vertex 17.398 2.77164 0
      vertex 17.4874 1.23744 0
      vertex 18.3713 2.12132 0
    endloop
  endfacet
  facet normal 0 0 1
    outer loop
      vertex 17.398 2.77164 0
      vertex 16.9197 1.61679 0
      vertex 17.4874 1.23744 0
    endloop
  endfacet
  facet normal 0 0 1
    outer loop
      vertex 16.25 3 0
      vertex 16.9197 1.61679 0
      vertex 17.398 2.77164 0
    endloop
  endfacet
  facet normal 0 0 1
    outer loop
      vertex 16.25 3 0
      vertex 16.25 1.75 0
      vertex 16.9197 1.61679 0
    endloop
  endfacet
  facet normal 0 0 1
    outer loop
      vertex 16.25 3 0
      vertex 15.5803 1.61679 0
      vertex 16.25 1.75 0
    endloop
  endfacet
  facet normal -0 0 1
    outer loop
      vertex 15.1019 2.77164 0
      vertex 15.5803 1.61679 0
      vertex 16.25 3 0
    endloop
  endfacet
  facet normal 0 0 1
    outer loop
      vertex 15.1019 2.77164 0
      vertex 15.0126 1.23744 0
      vertex 15.5803 1.61679 0
    endloop
  endfacet
  facet normal -0 0 1
    outer loop
      vertex 14.1287 2.12132 0
      vertex 15.0126 1.23744 0
      vertex 15.1019 2.77164 0
    endloop
  endfacet
  facet normal -0 0 1
    outer loop
      vertex 13.4784 1.14805 0
      vertex 14.6332 0.669696 0
      vertex 14.1287 2.12132 0
    endloop
  endfacet
  facet normal 0 0 1
    outer loop
      vertex 15.0126 1.23744 0
      vertex 14.1287 2.12132 0
      vertex 14.6332 0.669696 0
    endloop
  endfacet
  facet normal 0 0 1
    outer loop
      vertex 19.0216 -1.14805 0
      vertex 17.8668 -0.669696 0
      vertex 18.3713 -2.12132 0
    endloop
  endfacet
  facet normal -0 0 1
    outer loop
      vertex 17.4874 -1.23744 0
      vertex 18.3713 -2.12132 0
      vertex 17.8668 -0.669696 0
    endloop
  endfacet
  facet normal 0 0 1
    outer loop
      vertex 17.4874 -1.23744 0
      vertex 17.398 -2.77164 0
      vertex 18.3713 -2.12132 0
    endloop
  endfacet
  facet normal -0 0 1
    outer loop
      vertex 16.9197 -1.61679 0
      vertex 17.398 -2.77164 0
      vertex 17.4874 -1.23744 0
    endloop
  endfacet
  facet normal -0 0 1
    outer loop
      vertex 16.25 -1.75 0
      vertex 17.398 -2.77164 0
      vertex 16.9197 -1.61679 0
    endloop
  endfacet
  facet normal 0 0 1
    outer loop
      vertex 16.25 -1.75 0
      vertex 16.25 -3 0
      vertex 17.398 -2.77164 0
    endloop
  endfacet
  facet normal 0 0 1
    outer loop
      vertex 15.5803 -1.61679 0
      vertex 16.25 -3 0
      vertex 16.25 -1.75 0
    endloop
  endfacet
  facet normal 0 0 1
    outer loop
      vertex 15.5803 -1.61679 0
      vertex 15.1019 -2.77164 0
      vertex 16.25 -3 0
    endloop
  endfacet
  facet normal 0 0 1
    outer loop
      vertex 15.0126 -1.23744 0
      vertex 15.1019 -2.77164 0
      vertex 15.5803 -1.61679 0
    endloop
  endfacet
  facet normal 0 0 1
    outer loop
      vertex 14.1287 -2.12132 0
      vertex 15.0126 -1.23744 0
      vertex 14.6332 -0.669696 0
    endloop
  endfacet
  facet normal 0 0 1
    outer loop
      vertex 15.0126 -1.23744 0
      vertex 14.1287 -2.12132 0
      vertex 15.1019 -2.77164 0
    endloop
  endfacet
  facet normal 0 0 1
    outer loop
      vertex 13.4784 -1.14805 0
      vertex 14.6332 -0.669696 0
      vertex 14.5 0 0
    endloop
  endfacet
  facet normal 0 0 1
    outer loop
      vertex 14.6332 0.669696 0
      vertex 13.4784 1.14805 0
      vertex 14.5 0 0
    endloop
  endfacet
  facet normal 0 0 1
    outer loop
      vertex 13.25 0 0
      vertex 14.5 0 0
      vertex 13.4784 1.14805 0
    endloop
  endfacet
  facet normal 0 0 1
    outer loop
      vertex 14.6332 -0.669696 0
      vertex 13.4784 -1.14805 0
      vertex 14.1287 -2.12132 0
    endloop
  endfacet
  facet normal 0 0 1
    outer loop
      vertex 14.5 0 0
      vertex 13.25 0 0
      vertex 13.4784 -1.14805 0
    endloop
  endfacet
  facet normal 0.980785 -0.195091 5.13854e-007
    outer loop
      vertex 13.25 0 7.94118
      vertex 13.4784 1.14805 9
      vertex 13.3495 0.5 9
    endloop
  endfacet
  facet normal 0.980785 -0.19509 0
    outer loop
      vertex 13.4784 1.14805 9
      vertex 13.25 0 7.94118
      vertex 13.4784 1.14805 0
    endloop
  endfacet
  facet normal 0.980785 -0.19509 0
    outer loop
      vertex 13.4784 1.14805 0
      vertex 13.25 0 7.94118
      vertex 13.25 0 0
    endloop
  endfacet
  facet normal 0.55557 -0.83147 0
    outer loop
      vertex 14.1287 2.12132 0
      vertex 15.1019 2.77164 9
      vertex 14.1287 2.12132 9
    endloop
  endfacet
  facet normal 0.55557 -0.83147 0
    outer loop
      vertex 15.1019 2.77164 9
      vertex 14.1287 2.12132 0
      vertex 15.1019 2.77164 0
    endloop
  endfacet
  facet normal -0.980785 0.19509 0
    outer loop
      vertex 19.25 0 0
      vertex 19.1095 -0.706145 2.74524
      vertex 19.25 0 2.83697
    endloop
  endfacet
  facet normal -0.980785 0.195092 3.67726e-007
    outer loop
      vertex 19.0216 -1.14805 0
      vertex 19.1095 -0.706145 2.74524
      vertex 19.25 0 0
    endloop
  endfacet
  facet normal -0.980785 0.195094 0
    outer loop
      vertex 19.1095 -0.706145 2.74524
      vertex 19.0216 -1.14805 0
      vertex 19.0216 -1.14805 2.78268
    endloop
  endfacet
  facet normal -0.55557 0.83147 0
    outer loop
      vertex 18.3713 -2.12132 0
      vertex 17.398 -2.77164 2.07183
      vertex 18.3713 -2.12132 3.44897
    endloop
  endfacet
  facet normal -0.55557 0.83147 0
    outer loop
      vertex 17.398 -2.77164 2.07183
      vertex 18.3713 -2.12132 0
      vertex 17.398 -2.77164 0
    endloop
  endfacet
  facet normal 0.195091 0.980785 0
    outer loop
      vertex 15.1019 -2.77164 0
      vertex 16.25 -3 1.58824
      vertex 16.25 -3 0
    endloop
  endfacet
  facet normal 0.195091 0.980785 0
    outer loop
      vertex 16.25 -3 1.58824
      vertex 15.1019 -2.77164 0
      vertex 15.1019 -2.77164 2.07183
    endloop
  endfacet
  facet normal 0.55557 0.83147 0
    outer loop
      vertex 14.1287 -2.12132 0
      vertex 15.1019 -2.77164 2.07183
      vertex 15.1019 -2.77164 0
    endloop
  endfacet
  facet normal 0.55557 0.83147 0
    outer loop
      vertex 15.1019 -2.77164 2.07183
      vertex 14.1287 -2.12132 0
      vertex 14.1287 -2.12132 3.44897
    endloop
  endfacet
  facet normal 0.83147 0.55557 0
    outer loop
      vertex 14.1287 -2.12132 3.44897
      vertex 13.4784 -1.14805 0
      vertex 13.4784 -1.14805 5.51001
    endloop
  endfacet
  facet normal 0.83147 0.55557 0
    outer loop
      vertex 13.4784 -1.14805 0
      vertex 14.1287 -2.12132 3.44897
      vertex 14.1287 -2.12132 0
    endloop
  endfacet
  facet normal -0.83147 0.55557 0
    outer loop
      vertex 18.3713 -2.12132 0
      vertex 19.0216 -1.14805 2.78268
      vertex 19.0216 -1.14805 0
    endloop
  endfacet
  facet normal -0.83147 0.55557 0
    outer loop
      vertex 19.0216 -1.14805 2.78268
      vertex 18.3713 -2.12132 0
      vertex 18.3713 -2.12132 3.44897
    endloop
  endfacet
  facet normal -0.831468 0.555573 6.42765e-006
    outer loop
      vertex 19.0216 -1.14805 2.78268
      vertex 18.3713 -2.12132 3.44897
      vertex 18.4172 -2.05259 3.59451
    endloop
  endfacet
  facet normal -0.980785 -0.19509 0
    outer loop
      vertex -13.25 0 7.94118
      vertex -13.4784 1.14805 9
      vertex -13.4784 1.14805 0
    endloop
  endfacet
  facet normal -0.980785 -0.19509 -0
    outer loop
      vertex -13.25 0 7.94118
      vertex -13.4784 1.14805 0
      vertex -13.25 0 0
    endloop
  endfacet
  facet normal -0.980785 -0.195091 5.13854e-007
    outer loop
      vertex -13.4784 1.14805 9
      vertex -13.25 0 7.94118
      vertex -13.3495 0.5 9
    endloop
  endfacet
  facet normal 0.980785 -0.195092 3.12041e-007
    outer loop
      vertex -19.25 0 7.94118
      vertex -19.0216 1.14805 9
      vertex -19.1505 0.5 9
    endloop
  endfacet
  facet normal 0.980785 -0.195092 0
    outer loop
      vertex -19.0216 1.14805 9
      vertex -19.25 0 7.94118
      vertex -19.0216 1.14805 0
    endloop
  endfacet
  facet normal 0.980785 -0.195092 0
    outer loop
      vertex -19.0216 1.14805 0
      vertex -19.25 0 7.94118
      vertex -19.25 0 0
    endloop
  endfacet
  facet normal -0.195091 -0.980785 0
    outer loop
      vertex -16.25 3 0
      vertex -15.1019 2.77164 9
      vertex -16.25 3 9
    endloop
  endfacet
  facet normal -0.195091 -0.980785 -0
    outer loop
      vertex -15.1019 2.77164 9
      vertex -16.25 3 0
      vertex -15.1019 2.77164 0
    endloop
  endfacet
  facet normal -0.83147 -0.55557 0
    outer loop
      vertex -13.4784 1.14805 0
      vertex -14.1287 2.12132 9
      vertex -14.1287 2.12132 0
    endloop
  endfacet
  facet normal -0.83147 -0.55557 0
    outer loop
      vertex -14.1287 2.12132 9
      vertex -13.4784 1.14805 0
      vertex -13.4784 1.14805 9
    endloop
  endfacet
  facet normal 0.195091 0.980785 0
    outer loop
      vertex -17.398 -2.77164 0
      vertex -16.25 -3 1.58824
      vertex -16.25 -3 0
    endloop
  endfacet
  facet normal 0.195091 0.980785 0
    outer loop
      vertex -16.25 -3 1.58824
      vertex -17.398 -2.77164 0
      vertex -17.398 -2.77164 2.07183
    endloop
  endfacet
  facet normal 0 0 1
    outer loop
      vertex -14.5 0 0
      vertex -13.25 0 0
      vertex -13.4784 1.14805 0
    endloop
  endfacet
  facet normal 0 0 1
    outer loop
      vertex -14.6332 0.669696 0
      vertex -13.4784 1.14805 0
      vertex -14.1287 2.12132 0
    endloop
  endfacet
  facet normal 0 0 1
    outer loop
      vertex -13.25 0 0
      vertex -14.5 0 0
      vertex -13.4784 -1.14805 0
    endloop
  endfacet
  facet normal -0 0 1
    outer loop
      vertex -14.6332 -0.669696 0
      vertex -13.4784 -1.14805 0
      vertex -14.5 0 0
    endloop
  endfacet
  facet normal 0 0 1
    outer loop
      vertex -13.4784 1.14805 0
      vertex -14.6332 0.669696 0
      vertex -14.5 0 0
    endloop
  endfacet
  facet normal 0 0 1
    outer loop
      vertex -14.1287 2.12132 0
      vertex -15.0126 1.23744 0
      vertex -14.6332 0.669696 0
    endloop
  endfacet
  facet normal 0 0 1
    outer loop
      vertex -15.1019 2.77164 0
      vertex -15.0126 1.23744 0
      vertex -14.1287 2.12132 0
    endloop
  endfacet
  facet normal 0 0 1
    outer loop
      vertex -15.1019 2.77164 0
      vertex -15.5803 1.61679 0
      vertex -15.0126 1.23744 0
    endloop
  endfacet
  facet normal 0 0 1
    outer loop
      vertex -16.25 3 0
      vertex -15.5803 1.61679 0
      vertex -15.1019 2.77164 0
    endloop
  endfacet
  facet normal 0 0 1
    outer loop
      vertex -16.25 3 0
      vertex -16.25 1.75 0
      vertex -15.5803 1.61679 0
    endloop
  endfacet
  facet normal 0 0 1
    outer loop
      vertex -16.25 3 0
      vertex -16.9197 1.61679 0
      vertex -16.25 1.75 0
    endloop
  endfacet
  facet normal -0 0 1
    outer loop
      vertex -17.398 2.77164 0
      vertex -16.9197 1.61679 0
      vertex -16.25 3 0
    endloop
  endfacet
  facet normal 0 0 1
    outer loop
      vertex -17.398 2.77164 0
      vertex -17.4874 1.23744 0
      vertex -16.9197 1.61679 0
    endloop
  endfacet
  facet normal -0 0 1
    outer loop
      vertex -18.3713 2.12132 0
      vertex -17.4874 1.23744 0
      vertex -17.398 2.77164 0
    endloop
  endfacet
  facet normal -0 0 1
    outer loop
      vertex -19.0216 1.14805 0
      vertex -17.8668 0.669696 0
      vertex -18.3713 2.12132 0
    endloop
  endfacet
  facet normal 0 0 1
    outer loop
      vertex -17.4874 1.23744 0
      vertex -18.3713 2.12132 0
      vertex -17.8668 0.669696 0
    endloop
  endfacet
  facet normal 0 0 1
    outer loop
      vertex -13.4784 -1.14805 0
      vertex -14.6332 -0.669696 0
      vertex -14.1287 -2.12132 0
    endloop
  endfacet
  facet normal -0 0 1
    outer loop
      vertex -15.0126 -1.23744 0
      vertex -14.1287 -2.12132 0
      vertex -14.6332 -0.669696 0
    endloop
  endfacet
  facet normal 0 0 1
    outer loop
      vertex -15.0126 -1.23744 0
      vertex -15.1019 -2.77164 0
      vertex -14.1287 -2.12132 0
    endloop
  endfacet
  facet normal -0 0 1
    outer loop
      vertex -15.5803 -1.61679 0
      vertex -15.1019 -2.77164 0
      vertex -15.0126 -1.23744 0
    endloop
  endfacet
  facet normal -0 0 1
    outer loop
      vertex -16.25 -1.75 0
      vertex -15.1019 -2.77164 0
      vertex -15.5803 -1.61679 0
    endloop
  endfacet
  facet normal 0 0 1
    outer loop
      vertex -16.25 -1.75 0
      vertex -16.25 -3 0
      vertex -15.1019 -2.77164 0
    endloop
  endfacet
  facet normal 0 0 1
    outer loop
      vertex -16.9197 -1.61679 0
      vertex -16.25 -3 0
      vertex -16.25 -1.75 0
    endloop
  endfacet
  facet normal 0 0 1
    outer loop
      vertex -16.9197 -1.61679 0
      vertex -17.398 -2.77164 0
      vertex -16.25 -3 0
    endloop
  endfacet
  facet normal 0 0 1
    outer loop
      vertex -17.4874 -1.23744 0
      vertex -17.398 -2.77164 0
      vertex -16.9197 -1.61679 0
    endloop
  endfacet
  facet normal 0 0 1
    outer loop
      vertex -18.3713 -2.12132 0
      vertex -17.4874 -1.23744 0
      vertex -17.8668 -0.669696 0
    endloop
  endfacet
  facet normal 0 0 1
    outer loop
      vertex -17.4874 -1.23744 0
      vertex -18.3713 -2.12132 0
      vertex -17.398 -2.77164 0
    endloop
  endfacet
  facet normal 0 0 1
    outer loop
      vertex -19.0216 -1.14805 0
      vertex -17.8668 -0.669696 0
      vertex -18 0 0
    endloop
  endfacet
  facet normal 0 0 1
    outer loop
      vertex -17.8668 0.669696 0
      vertex -19.0216 1.14805 0
      vertex -18 0 0
    endloop
  endfacet
  facet normal 0 0 1
    outer loop
      vertex -19.25 0 0
      vertex -18 0 0
      vertex -19.0216 1.14805 0
    endloop
  endfacet
  facet normal 0 0 1
    outer loop
      vertex -17.8668 -0.669696 0
      vertex -19.0216 -1.14805 0
      vertex -18.3713 -2.12132 0
    endloop
  endfacet
  facet normal 0 0 1
    outer loop
      vertex -18 0 0
      vertex -19.25 0 0
      vertex -19.0216 -1.14805 0
    endloop
  endfacet
  facet normal -0.55557 -0.83147 0
    outer loop
      vertex -15.1019 2.77164 0
      vertex -14.1287 2.12132 9
      vertex -15.1019 2.77164 9
    endloop
  endfacet
  facet normal -0.55557 -0.83147 -0
    outer loop
      vertex -14.1287 2.12132 9
      vertex -15.1019 2.77164 0
      vertex -14.1287 2.12132 0
    endloop
  endfacet
  facet normal 0.55557 -0.83147 0
    outer loop
      vertex -18.3713 2.12132 0
      vertex -17.398 2.77164 9
      vertex -18.3713 2.12132 9
    endloop
  endfacet
  facet normal 0.55557 -0.83147 0
    outer loop
      vertex -17.398 2.77164 9
      vertex -18.3713 2.12132 0
      vertex -17.398 2.77164 0
    endloop
  endfacet
  facet normal 0.83147 -0.55557 0
    outer loop
      vertex -19.0216 1.14805 9
      vertex -18.3713 2.12132 0
      vertex -18.3713 2.12132 9
    endloop
  endfacet
  facet normal 0.83147 -0.55557 0
    outer loop
      vertex -18.3713 2.12132 0
      vertex -19.0216 1.14805 9
      vertex -19.0216 1.14805 0
    endloop
  endfacet
  facet normal 0.195091 -0.980785 0
    outer loop
      vertex -17.398 2.77164 0
      vertex -16.25 3 9
      vertex -17.398 2.77164 9
    endloop
  endfacet
  facet normal 0.195091 -0.980785 0
    outer loop
      vertex -16.25 3 9
      vertex -17.398 2.77164 0
      vertex -16.25 3 0
    endloop
  endfacet
  facet normal -0.195091 0.980785 0
    outer loop
      vertex -15.1019 -2.77164 0
      vertex -16.25 -3 1.58824
      vertex -15.1019 -2.77164 2.07183
    endloop
  endfacet
  facet normal -0.195091 0.980785 0
    outer loop
      vertex -16.25 -3 1.58824
      vertex -15.1019 -2.77164 0
      vertex -16.25 -3 0
    endloop
  endfacet
  facet normal -0.83147 0.55557 0
    outer loop
      vertex -14.1287 -2.12132 3.44897
      vertex -13.4784 -1.14805 0
      vertex -14.1287 -2.12132 0
    endloop
  endfacet
  facet normal -0.83147 0.55557 0
    outer loop
      vertex -13.4784 -1.14805 0
      vertex -14.1287 -2.12132 3.44897
      vertex -13.4784 -1.14805 5.51001
    endloop
  endfacet
  facet normal 0.55557 0.83147 0
    outer loop
      vertex -18.3713 -2.12132 0
      vertex -17.398 -2.77164 2.07183
      vertex -17.398 -2.77164 0
    endloop
  endfacet
  facet normal 0.55557 0.83147 0
    outer loop
      vertex -17.398 -2.77164 2.07183
      vertex -18.3713 -2.12132 0
      vertex -18.3713 -2.12132 3.44897
    endloop
  endfacet
  facet normal 0.980785 0.195092 0
    outer loop
      vertex -19.0216 -1.14805 5.51001
      vertex -19.25 0 0
      vertex -19.25 0 7.94118
    endloop
  endfacet
  facet normal 0.980785 0.195092 0
    outer loop
      vertex -19.25 0 0
      vertex -19.0216 -1.14805 5.51001
      vertex -19.0216 -1.14805 0
    endloop
  endfacet
  facet normal -0.980785 0.19509 0
    outer loop
      vertex -13.4784 -1.14805 5.51001
      vertex -13.25 0 0
      vertex -13.4784 -1.14805 0
    endloop
  endfacet
  facet normal -0.980785 0.19509 0
    outer loop
      vertex -13.25 0 0
      vertex -13.4784 -1.14805 5.51001
      vertex -13.25 0 7.94118
    endloop
  endfacet
  facet normal -0.55557 0.83147 0
    outer loop
      vertex -14.1287 -2.12132 0
      vertex -15.1019 -2.77164 2.07183
      vertex -14.1287 -2.12132 3.44897
    endloop
  endfacet
  facet normal -0.55557 0.83147 0
    outer loop
      vertex -15.1019 -2.77164 2.07183
      vertex -14.1287 -2.12132 0
      vertex -15.1019 -2.77164 0
    endloop
  endfacet
  facet normal 0.83147 0.55557 0
    outer loop
      vertex -18.3713 -2.12132 3.44897
      vertex -19.0216 -1.14805 0
      vertex -19.0216 -1.14805 5.51001
    endloop
  endfacet
  facet normal 0.83147 0.55557 0
    outer loop
      vertex -19.0216 -1.14805 0
      vertex -18.3713 -2.12132 3.44897
      vertex -18.3713 -2.12132 0
    endloop
  endfacet
endsolid OpenSCAD_Model
