solid OpenSCAD_Model
  facet normal -1 0 0
    outer loop
      vertex -32.5 -3.75 -3
      vertex -32.5 3.75 0
      vertex -32.5 3.75 -3
    endloop
  endfacet
  facet normal -1 -0 0
    outer loop
      vertex -32.5 3.75 0
      vertex -32.5 -3.75 -3
      vertex -32.5 -3.75 0
    endloop
  endfacet
  facet normal 0 0 1
    outer loop
      vertex -12 3.75 0
      vertex -14.5 0 0
      vertex -12 -3.75 0
    endloop
  endfacet
  facet normal 0 0 1
    outer loop
      vertex -12 3.75 0
      vertex -14.6332 0.669696 0
      vertex -14.5 0 0
    endloop
  endfacet
  facet normal 0 0 1
    outer loop
      vertex -12 3.75 0
      vertex -15.0126 1.23744 0
      vertex -14.6332 0.669696 0
    endloop
  endfacet
  facet normal 0 0 1
    outer loop
      vertex -12 3.75 0
      vertex -15.5803 1.61679 0
      vertex -15.0126 1.23744 0
    endloop
  endfacet
  facet normal 0 0 1
    outer loop
      vertex -12 3.75 0
      vertex -16.25 1.75 0
      vertex -15.5803 1.61679 0
    endloop
  endfacet
  facet normal 0 0 1
    outer loop
      vertex -12 3.75 0
      vertex -16.9197 1.61679 0
      vertex -16.25 1.75 0
    endloop
  endfacet
  facet normal 0 0 1
    outer loop
      vertex -17.8668 0.669696 0
      vertex -32.5 3.75 0
      vertex -18 0 0
    endloop
  endfacet
  facet normal 0 0 1
    outer loop
      vertex -17.4874 1.23744 0
      vertex -32.5 3.75 0
      vertex -17.8668 0.669696 0
    endloop
  endfacet
  facet normal 0 0 1
    outer loop
      vertex -16.9197 1.61679 0
      vertex -32.5 3.75 0
      vertex -17.4874 1.23744 0
    endloop
  endfacet
  facet normal -0 0 1
    outer loop
      vertex -32.5 3.75 0
      vertex -16.9197 1.61679 0
      vertex -12 3.75 0
    endloop
  endfacet
  facet normal -0 0 1
    outer loop
      vertex -14.6332 -0.669696 0
      vertex -12 -3.75 0
      vertex -14.5 0 0
    endloop
  endfacet
  facet normal -0 0 1
    outer loop
      vertex -15.0126 -1.23744 0
      vertex -12 -3.75 0
      vertex -14.6332 -0.669696 0
    endloop
  endfacet
  facet normal -0 0 1
    outer loop
      vertex -15.5803 -1.61679 0
      vertex -12 -3.75 0
      vertex -15.0126 -1.23744 0
    endloop
  endfacet
  facet normal -0 0 1
    outer loop
      vertex -16.25 -1.75 0
      vertex -12 -3.75 0
      vertex -15.5803 -1.61679 0
    endloop
  endfacet
  facet normal 0 0 1
    outer loop
      vertex -16.9197 -1.61679 0
      vertex -12 -3.75 0
      vertex -16.25 -1.75 0
    endloop
  endfacet
  facet normal 0 0 1
    outer loop
      vertex -32.5 -3.75 0
      vertex -18 0 0
      vertex -32.5 3.75 0
    endloop
  endfacet
  facet normal 0 0 1
    outer loop
      vertex -18 0 0
      vertex -32.5 -3.75 0
      vertex -17.8668 -0.669696 0
    endloop
  endfacet
  facet normal 0 0 1
    outer loop
      vertex -17.8668 -0.669696 0
      vertex -32.5 -3.75 0
      vertex -17.4874 -1.23744 0
    endloop
  endfacet
  facet normal 0 0 1
    outer loop
      vertex -17.4874 -1.23744 0
      vertex -32.5 -3.75 0
      vertex -16.9197 -1.61679 0
    endloop
  endfacet
  facet normal 0 0 1
    outer loop
      vertex -16.9197 -1.61679 0
      vertex -32.5 -3.75 0
      vertex -12 -3.75 0
    endloop
  endfacet
  facet normal 0 0 1
    outer loop
      vertex 32.5 3.75 0
      vertex 18 0 0
      vertex 32.5 -3.75 0
    endloop
  endfacet
  facet normal 0 0 1
    outer loop
      vertex 32.5 3.75 0
      vertex 17.8668 0.669696 0
      vertex 18 0 0
    endloop
  endfacet
  facet normal 0 0 1
    outer loop
      vertex 32.5 3.75 0
      vertex 17.4874 1.23744 0
      vertex 17.8668 0.669696 0
    endloop
  endfacet
  facet normal 0 0 1
    outer loop
      vertex 32.5 3.75 0
      vertex 16.9197 1.61679 0
      vertex 17.4874 1.23744 0
    endloop
  endfacet
  facet normal -0 0 1
    outer loop
      vertex 12 3.75 0
      vertex 16.9197 1.61679 0
      vertex 32.5 3.75 0
    endloop
  endfacet
  facet normal 0 0 1
    outer loop
      vertex 14.6332 0.669696 0
      vertex 12 3.75 0
      vertex 14.5 0 0
    endloop
  endfacet
  facet normal 0 0 1
    outer loop
      vertex 15.0126 1.23744 0
      vertex 12 3.75 0
      vertex 14.6332 0.669696 0
    endloop
  endfacet
  facet normal 0 0 1
    outer loop
      vertex 15.5803 1.61679 0
      vertex 12 3.75 0
      vertex 15.0126 1.23744 0
    endloop
  endfacet
  facet normal 0 0 1
    outer loop
      vertex 16.25 1.75 0
      vertex 12 3.75 0
      vertex 15.5803 1.61679 0
    endloop
  endfacet
  facet normal 0 0 1
    outer loop
      vertex 16.9197 1.61679 0
      vertex 12 3.75 0
      vertex 16.25 1.75 0
    endloop
  endfacet
  facet normal -0 0 1
    outer loop
      vertex 17.8668 -0.669696 0
      vertex 32.5 -3.75 0
      vertex 18 0 0
    endloop
  endfacet
  facet normal -0 0 1
    outer loop
      vertex 17.4874 -1.23744 0
      vertex 32.5 -3.75 0
      vertex 17.8668 -0.669696 0
    endloop
  endfacet
  facet normal -0 0 1
    outer loop
      vertex 16.9197 -1.61679 0
      vertex 32.5 -3.75 0
      vertex 17.4874 -1.23744 0
    endloop
  endfacet
  facet normal 0 0 1
    outer loop
      vertex 12 -3.75 0
      vertex 16.9197 -1.61679 0
      vertex 16.25 -1.75 0
    endloop
  endfacet
  facet normal 0 0 1
    outer loop
      vertex 12 -3.75 0
      vertex 14.5 0 0
      vertex 12 3.75 0
    endloop
  endfacet
  facet normal 0 0 1
    outer loop
      vertex 16.9197 -1.61679 0
      vertex 12 -3.75 0
      vertex 32.5 -3.75 0
    endloop
  endfacet
  facet normal 0 0 1
    outer loop
      vertex 15.5803 -1.61679 0
      vertex 12 -3.75 0
      vertex 16.25 -1.75 0
    endloop
  endfacet
  facet normal 0 0 1
    outer loop
      vertex 15.0126 -1.23744 0
      vertex 12 -3.75 0
      vertex 15.5803 -1.61679 0
    endloop
  endfacet
  facet normal 0 0 1
    outer loop
      vertex 14.6332 -0.669696 0
      vertex 12 -3.75 0
      vertex 15.0126 -1.23744 0
    endloop
  endfacet
  facet normal 0 0 1
    outer loop
      vertex 14.5 0 0
      vertex 12 -3.75 0
      vertex 14.6332 -0.669696 0
    endloop
  endfacet
  facet normal 1 -0 0
    outer loop
      vertex 32.5 -3.75 0
      vertex 32.5 3.75 -3
      vertex 32.5 3.75 0
    endloop
  endfacet
  facet normal 1 0 0
    outer loop
      vertex 32.5 3.75 -3
      vertex 32.5 -3.75 0
      vertex 32.5 -3.75 -3
    endloop
  endfacet
  facet normal 0 1 -0
    outer loop
      vertex 32.5 3.75 -3
      vertex 12 3.75 0
      vertex 32.5 3.75 0
    endloop
  endfacet
  facet normal 0 1 0
    outer loop
      vertex 12 3.75 0
      vertex 32.5 3.75 -3
      vertex -12 3.75 0
    endloop
  endfacet
  facet normal 0 1 0
    outer loop
      vertex -32.5 3.75 -3
      vertex -12 3.75 0
      vertex 32.5 3.75 -3
    endloop
  endfacet
  facet normal 0 1 0
    outer loop
      vertex -12 3.75 0
      vertex -32.5 3.75 -3
      vertex -32.5 3.75 0
    endloop
  endfacet
  facet normal 0 1 -0
    outer loop
      vertex 12 3.75 0
      vertex -12 3.75 2
      vertex 12 3.75 2
    endloop
  endfacet
  facet normal 0 1 0
    outer loop
      vertex -12 3.75 2
      vertex 12 3.75 0
      vertex -12 3.75 0
    endloop
  endfacet
  facet normal 0 0 -1
    outer loop
      vertex 32.5 -3.75 -3
      vertex 18 0 -3
      vertex 32.5 3.75 -3
    endloop
  endfacet
  facet normal 0 0 -1
    outer loop
      vertex 32.5 -3.75 -3
      vertex 17.8668 -0.669696 -3
      vertex 18 0 -3
    endloop
  endfacet
  facet normal 0 0 -1
    outer loop
      vertex 32.5 -3.75 -3
      vertex 17.4874 -1.23744 -3
      vertex 17.8668 -0.669696 -3
    endloop
  endfacet
  facet normal 0 0 -1
    outer loop
      vertex 32.5 -3.75 -3
      vertex 16.9197 -1.61679 -3
      vertex 17.4874 -1.23744 -3
    endloop
  endfacet
  facet normal 0 0 -1
    outer loop
      vertex 32.5 -3.75 -3
      vertex 16.25 -1.75 -3
      vertex 16.9197 -1.61679 -3
    endloop
  endfacet
  facet normal 0 0 -1
    outer loop
      vertex 14.6332 -0.669696 -3
      vertex -14.5 0 -3
      vertex 14.5 0 -3
    endloop
  endfacet
  facet normal 0 0 -1
    outer loop
      vertex -14.6332 -0.669696 -3
      vertex 14.6332 -0.669696 -3
      vertex 15.0126 -1.23744 -3
    endloop
  endfacet
  facet normal 0 0 -1
    outer loop
      vertex -15.0126 -1.23744 -3
      vertex 15.0126 -1.23744 -3
      vertex 15.5803 -1.61679 -3
    endloop
  endfacet
  facet normal 0 0 -1
    outer loop
      vertex -15.5803 -1.61679 -3
      vertex 15.5803 -1.61679 -3
      vertex 16.25 -1.75 -3
    endloop
  endfacet
  facet normal 0 0 -1
    outer loop
      vertex -16.25 -1.75 -3
      vertex 16.25 -1.75 -3
      vertex 32.5 -3.75 -3
    endloop
  endfacet
  facet normal 0 0 -1
    outer loop
      vertex 14.6332 -0.669696 -3
      vertex -14.6332 -0.669696 -3
      vertex -14.5 0 -3
    endloop
  endfacet
  facet normal 0 0 -1
    outer loop
      vertex 15.0126 -1.23744 -3
      vertex -15.0126 -1.23744 -3
      vertex -14.6332 -0.669696 -3
    endloop
  endfacet
  facet normal 0 0 -1
    outer loop
      vertex 15.5803 -1.61679 -3
      vertex -15.5803 -1.61679 -3
      vertex -15.0126 -1.23744 -3
    endloop
  endfacet
  facet normal 0 0 -1
    outer loop
      vertex 16.25 -1.75 -3
      vertex -16.25 -1.75 -3
      vertex -15.5803 -1.61679 -3
    endloop
  endfacet
  facet normal -0 0 -1
    outer loop
      vertex -17.8668 -0.669696 -3
      vertex -32.5 -3.75 -3
      vertex -18 0 -3
    endloop
  endfacet
  facet normal -0 0 -1
    outer loop
      vertex -17.4874 -1.23744 -3
      vertex -32.5 -3.75 -3
      vertex -17.8668 -0.669696 -3
    endloop
  endfacet
  facet normal -0 0 -1
    outer loop
      vertex -16.9197 -1.61679 -3
      vertex -32.5 -3.75 -3
      vertex -17.4874 -1.23744 -3
    endloop
  endfacet
  facet normal -0 0 -1
    outer loop
      vertex -16.25 -1.75 -3
      vertex -32.5 -3.75 -3
      vertex -16.9197 -1.61679 -3
    endloop
  endfacet
  facet normal 0 0 -1
    outer loop
      vertex -32.5 -3.75 -3
      vertex -16.25 -1.75 -3
      vertex 32.5 -3.75 -3
    endloop
  endfacet
  facet normal 0 0 -1
    outer loop
      vertex 17.8668 0.669696 -3
      vertex 32.5 3.75 -3
      vertex 18 0 -3
    endloop
  endfacet
  facet normal 0 0 -1
    outer loop
      vertex 17.4874 1.23744 -3
      vertex 32.5 3.75 -3
      vertex 17.8668 0.669696 -3
    endloop
  endfacet
  facet normal 0 0 -1
    outer loop
      vertex 16.9197 1.61679 -3
      vertex 32.5 3.75 -3
      vertex 17.4874 1.23744 -3
    endloop
  endfacet
  facet normal 0 0 -1
    outer loop
      vertex 16.25 1.75 -3
      vertex 32.5 3.75 -3
      vertex 16.9197 1.61679 -3
    endloop
  endfacet
  facet normal 0 0 -1
    outer loop
      vertex -14.5 0 -3
      vertex 14.6332 0.669696 -3
      vertex 14.5 0 -3
    endloop
  endfacet
  facet normal 0 0 -1
    outer loop
      vertex -14.6332 0.669696 -3
      vertex 14.6332 0.669696 -3
      vertex -14.5 0 -3
    endloop
  endfacet
  facet normal 0 0 -1
    outer loop
      vertex 14.6332 0.669696 -3
      vertex -14.6332 0.669696 -3
      vertex 15.0126 1.23744 -3
    endloop
  endfacet
  facet normal 0 0 -1
    outer loop
      vertex -15.0126 1.23744 -3
      vertex 15.0126 1.23744 -3
      vertex -14.6332 0.669696 -3
    endloop
  endfacet
  facet normal 0 0 -1
    outer loop
      vertex 15.0126 1.23744 -3
      vertex -15.0126 1.23744 -3
      vertex 15.5803 1.61679 -3
    endloop
  endfacet
  facet normal 0 0 -1
    outer loop
      vertex -15.5803 1.61679 -3
      vertex 15.5803 1.61679 -3
      vertex -15.0126 1.23744 -3
    endloop
  endfacet
  facet normal 0 0 -1
    outer loop
      vertex 15.5803 1.61679 -3
      vertex -15.5803 1.61679 -3
      vertex 16.25 1.75 -3
    endloop
  endfacet
  facet normal 0 0 -1
    outer loop
      vertex -16.25 1.75 -3
      vertex 16.25 1.75 -3
      vertex -15.5803 1.61679 -3
    endloop
  endfacet
  facet normal 0 0 -1
    outer loop
      vertex 16.25 1.75 -3
      vertex -16.25 1.75 -3
      vertex 32.5 3.75 -3
    endloop
  endfacet
  facet normal 0 0 -1
    outer loop
      vertex -32.5 3.75 -3
      vertex -18 0 -3
      vertex -32.5 -3.75 -3
    endloop
  endfacet
  facet normal 0 0 -1
    outer loop
      vertex -18 0 -3
      vertex -32.5 3.75 -3
      vertex -17.8668 0.669696 -3
    endloop
  endfacet
  facet normal 0 0 -1
    outer loop
      vertex -17.8668 0.669696 -3
      vertex -32.5 3.75 -3
      vertex -17.4874 1.23744 -3
    endloop
  endfacet
  facet normal 0 0 -1
    outer loop
      vertex -16.25 1.75 -3
      vertex -32.5 3.75 -3
      vertex 32.5 3.75 -3
    endloop
  endfacet
  facet normal 0 0 -1
    outer loop
      vertex -16.9197 1.61679 -3
      vertex -32.5 3.75 -3
      vertex -16.25 1.75 -3
    endloop
  endfacet
  facet normal 0 0 -1
    outer loop
      vertex -17.4874 1.23744 -3
      vertex -32.5 3.75 -3
      vertex -16.9197 1.61679 -3
    endloop
  endfacet
  facet normal 0 -1 0
    outer loop
      vertex -32.5 -3.75 -3
      vertex -12 -3.75 0
      vertex -32.5 -3.75 0
    endloop
  endfacet
  facet normal 0 -1 -0
    outer loop
      vertex -12 -3.75 0
      vertex -32.5 -3.75 -3
      vertex 12 -3.75 0
    endloop
  endfacet
  facet normal 0 -1 0
    outer loop
      vertex 32.5 -3.75 -3
      vertex 12 -3.75 0
      vertex -32.5 -3.75 -3
    endloop
  endfacet
  facet normal 0 -1 0
    outer loop
      vertex 12 -3.75 0
      vertex 32.5 -3.75 -3
      vertex 32.5 -3.75 0
    endloop
  endfacet
  facet normal -1 0 0
    outer loop
      vertex -32.5 5.5 4
      vertex -32.5 8.5 11
      vertex -32.5 8.5 4
    endloop
  endfacet
  facet normal -1 -0 0
    outer loop
      vertex -32.5 8.5 11
      vertex -32.5 5.5 4
      vertex -32.5 5.5 11
    endloop
  endfacet
  facet normal 0 0 1
    outer loop
      vertex 25.5 8.5 11
      vertex 12 5.5 11
      vertex 25.5 5.5 11
    endloop
  endfacet
  facet normal 0 0 1
    outer loop
      vertex 25.5 8.5 11
      vertex -12 5.5 11
      vertex 12 5.5 11
    endloop
  endfacet
  facet normal -0 0 1
    outer loop
      vertex -32.5 8.5 11
      vertex -12 5.5 11
      vertex 25.5 8.5 11
    endloop
  endfacet
  facet normal 0 0 1
    outer loop
      vertex -12 5.5 11
      vertex -32.5 8.5 11
      vertex -32.5 5.5 11
    endloop
  endfacet
  facet normal 1 -0 0
    outer loop
      vertex 25.5 5.5 11
      vertex 25.5 8.5 4
      vertex 25.5 8.5 11
    endloop
  endfacet
  facet normal 1 0 0
    outer loop
      vertex 25.5 8.5 4
      vertex 25.5 5.5 11
      vertex 25.5 5.5 4
    endloop
  endfacet
  facet normal 0 1 0
    outer loop
      vertex 25.5 8.5 11
      vertex 20.0303 8.5 9.11679
      vertex -32.5 8.5 11
    endloop
  endfacet
  facet normal 0 1 0
    outer loop
      vertex -32.5 8.5 11
      vertex -28.0647 8.5 9.16341
      vertex -28.5 8.5 9.25
    endloop
  endfacet
  facet normal 0 1 -0
    outer loop
      vertex -27.8303 8.5 9.11679
      vertex -32.5 8.5 11
      vertex 20.0303 8.5 9.11679
    endloop
  endfacet
  facet normal 0 1 0
    outer loop
      vertex -32.5 8.5 11
      vertex -27.8303 8.5 9.11679
      vertex -28.0647 8.5 9.16341
    endloop
  endfacet
  facet normal 0 1 0
    outer loop
      vertex -12 8.5 4
      vertex 20.0303 8.5 9.11679
      vertex 19.4626 8.5 8.73744
    endloop
  endfacet
  facet normal 0 1 0
    outer loop
      vertex 20.0303 8.5 9.11679
      vertex -12 8.5 4
      vertex -27.8303 8.5 9.11679
    endloop
  endfacet
  facet normal 0 1 0
    outer loop
      vertex 12 8.5 4
      vertex 19.4626 8.5 8.73744
      vertex 19.0832 8.5 8.1697
    endloop
  endfacet
  facet normal 0 1 0
    outer loop
      vertex -27.8303 8.5 9.11679
      vertex -12 8.5 4
      vertex -27.2626 8.5 8.73744
    endloop
  endfacet
  facet normal 0 1 0
    outer loop
      vertex 12 8.5 4
      vertex 19.0832 8.5 8.1697
      vertex 18.95 8.5 7.5
    endloop
  endfacet
  facet normal 0 1 0
    outer loop
      vertex -27.2626 8.5 8.73744
      vertex -12 8.5 4
      vertex -26.8832 8.5 8.1697
    endloop
  endfacet
  facet normal 0 1 0
    outer loop
      vertex 12 8.5 4
      vertex 18.95 8.5 7.5
      vertex 19.0832 8.5 6.8303
    endloop
  endfacet
  facet normal 0 1 0
    outer loop
      vertex -26.8832 8.5 8.1697
      vertex -12 8.5 4
      vertex -26.75 8.5 7.5
    endloop
  endfacet
  facet normal 0 1 0
    outer loop
      vertex 12 8.5 4
      vertex 19.0832 8.5 6.8303
      vertex 19.4626 8.5 6.26256
    endloop
  endfacet
  facet normal 0 1 0
    outer loop
      vertex -26.75 8.5 7.5
      vertex -12 8.5 4
      vertex -26.8832 8.5 6.8303
    endloop
  endfacet
  facet normal 0 1 0
    outer loop
      vertex 12 8.5 4
      vertex 19.4626 8.5 6.26256
      vertex 20.0303 8.5 5.88321
    endloop
  endfacet
  facet normal 0 1 0
    outer loop
      vertex -26.8832 8.5 6.8303
      vertex -12 8.5 4
      vertex -27.2626 8.5 6.26256
    endloop
  endfacet
  facet normal 0 1 0
    outer loop
      vertex 12 8.5 4
      vertex 20.0303 8.5 5.88321
      vertex 20.4656 8.5 5.79662
    endloop
  endfacet
  facet normal 0 1 0
    outer loop
      vertex -27.2626 8.5 6.26256
      vertex -12 8.5 4
      vertex -27.8303 8.5 5.88321
    endloop
  endfacet
  facet normal 0 1 0
    outer loop
      vertex 12 8.5 4
      vertex 20.4656 8.5 5.79662
      vertex 20.7 8.5 5.75
    endloop
  endfacet
  facet normal 0 1 0
    outer loop
      vertex -32.5 8.5 4
      vertex -27.8303 8.5 5.88321
      vertex -12 8.5 4
    endloop
  endfacet
  facet normal 0 1 0
    outer loop
      vertex 20.2647 8.5 9.16341
      vertex 25.5 8.5 11
      vertex 20.7 8.5 9.25
    endloop
  endfacet
  facet normal 0 1 0
    outer loop
      vertex 25.5 8.5 11
      vertex 21.1353 8.5 9.16341
      vertex 20.7 8.5 9.25
    endloop
  endfacet
  facet normal 0 1 0
    outer loop
      vertex 25.5 8.5 11
      vertex 21.3697 8.5 9.11679
      vertex 21.1353 8.5 9.16341
    endloop
  endfacet
  facet normal 0 1 0
    outer loop
      vertex 25.5 8.5 11
      vertex 21.9374 8.5 8.73744
      vertex 21.3697 8.5 9.11679
    endloop
  endfacet
  facet normal 0 1 0
    outer loop
      vertex 25.5 8.5 11
      vertex 22.3168 8.5 8.1697
      vertex 21.9374 8.5 8.73744
    endloop
  endfacet
  facet normal 0 1 0
    outer loop
      vertex 25.5 8.5 11
      vertex 22.45 8.5 7.5
      vertex 22.3168 8.5 8.1697
    endloop
  endfacet
  facet normal 0 1 -0
    outer loop
      vertex 25.5 8.5 4
      vertex 22.45 8.5 7.5
      vertex 25.5 8.5 11
    endloop
  endfacet
  facet normal 0 1 0
    outer loop
      vertex 22.45 8.5 7.5
      vertex 25.5 8.5 4
      vertex 22.3168 8.5 6.8303
    endloop
  endfacet
  facet normal 0 1 0
    outer loop
      vertex 12 8.5 4
      vertex 20.7 8.5 5.75
      vertex 25.5 8.5 4
    endloop
  endfacet
  facet normal 0 1 0
    outer loop
      vertex 20.9344 8.5 5.79662
      vertex 25.5 8.5 4
      vertex 20.7 8.5 5.75
    endloop
  endfacet
  facet normal 0 1 0
    outer loop
      vertex 21.3697 8.5 5.88321
      vertex 25.5 8.5 4
      vertex 20.9344 8.5 5.79662
    endloop
  endfacet
  facet normal 0 1 0
    outer loop
      vertex 21.9374 8.5 6.26256
      vertex 25.5 8.5 4
      vertex 21.3697 8.5 5.88321
    endloop
  endfacet
  facet normal 0 1 0
    outer loop
      vertex 22.3168 8.5 6.8303
      vertex 25.5 8.5 4
      vertex 21.9374 8.5 6.26256
    endloop
  endfacet
  facet normal 0 1 0
    outer loop
      vertex 20.0303 8.5 9.11679
      vertex 25.5 8.5 11
      vertex 20.2647 8.5 9.16341
    endloop
  endfacet
  facet normal 0 1 -0
    outer loop
      vertex -28.9353 8.5 9.16341
      vertex -32.5 8.5 11
      vertex -28.5 8.5 9.25
    endloop
  endfacet
  facet normal 0 1 -0
    outer loop
      vertex -29.1697 8.5 9.11679
      vertex -32.5 8.5 11
      vertex -28.9353 8.5 9.16341
    endloop
  endfacet
  facet normal 0 1 -0
    outer loop
      vertex -29.7374 8.5 8.73744
      vertex -32.5 8.5 11
      vertex -29.1697 8.5 9.11679
    endloop
  endfacet
  facet normal 0 1 -0
    outer loop
      vertex -30.1168 8.5 8.1697
      vertex -32.5 8.5 11
      vertex -29.7374 8.5 8.73744
    endloop
  endfacet
  facet normal 0 1 -0
    outer loop
      vertex -30.25 8.5 7.5
      vertex -32.5 8.5 11
      vertex -30.1168 8.5 8.1697
    endloop
  endfacet
  facet normal 0 1 0
    outer loop
      vertex -32.5 8.5 4
      vertex -30.25 8.5 7.5
      vertex -30.1168 8.5 6.8303
    endloop
  endfacet
  facet normal 0 1 0
    outer loop
      vertex 19.4626 8.5 8.73744
      vertex 12 8.5 4
      vertex -12 8.5 4
    endloop
  endfacet
  facet normal 0 1 0
    outer loop
      vertex -27.8303 8.5 5.88321
      vertex -32.5 8.5 4
      vertex -28.2656 8.5 5.79662
    endloop
  endfacet
  facet normal 0 1 0
    outer loop
      vertex -30.25 8.5 7.5
      vertex -32.5 8.5 4
      vertex -32.5 8.5 11
    endloop
  endfacet
  facet normal 0 1 0
    outer loop
      vertex -29.7374 8.5 6.26256
      vertex -32.5 8.5 4
      vertex -30.1168 8.5 6.8303
    endloop
  endfacet
  facet normal 0 1 0
    outer loop
      vertex -29.1697 8.5 5.88321
      vertex -32.5 8.5 4
      vertex -29.7374 8.5 6.26256
    endloop
  endfacet
  facet normal 0 1 0
    outer loop
      vertex -28.7344 8.5 5.79662
      vertex -32.5 8.5 4
      vertex -29.1697 8.5 5.88321
    endloop
  endfacet
  facet normal 0 1 0
    outer loop
      vertex -28.5 8.5 5.75
      vertex -32.5 8.5 4
      vertex -28.7344 8.5 5.79662
    endloop
  endfacet
  facet normal 0 1 0
    outer loop
      vertex -28.2656 8.5 5.79662
      vertex -32.5 8.5 4
      vertex -28.5 8.5 5.75
    endloop
  endfacet
  facet normal 0 0 -1
    outer loop
      vertex 12 5.5 4
      vertex 25.5 8.5 4
      vertex 25.5 5.5 4
    endloop
  endfacet
  facet normal -0 0 -1
    outer loop
      vertex 25.5 8.5 4
      vertex 12 5.5 4
      vertex 12 8.5 4
    endloop
  endfacet
  facet normal 0 0 -1
    outer loop
      vertex -32.5 5.5 4
      vertex -12 8.5 4
      vertex -12 5.5 4
    endloop
  endfacet
  facet normal -0 0 -1
    outer loop
      vertex -12 8.5 4
      vertex -32.5 5.5 4
      vertex -32.5 8.5 4
    endloop
  endfacet
  facet normal 0 -1 0
    outer loop
      vertex -28.2656 5.5 9.20338
      vertex -32.5 5.5 11
      vertex -28.5 5.5 9.25
    endloop
  endfacet
  facet normal 0 -1 0
    outer loop
      vertex -32.5 5.5 11
      vertex -28.7344 5.5 9.20338
      vertex -28.5 5.5 9.25
    endloop
  endfacet
  facet normal 0 -1 0
    outer loop
      vertex -32.5 5.5 11
      vertex -29.1697 5.5 9.11679
      vertex -28.7344 5.5 9.20338
    endloop
  endfacet
  facet normal 0 -1 0
    outer loop
      vertex -32.5 5.5 11
      vertex -29.7374 5.5 8.73744
      vertex -29.1697 5.5 9.11679
    endloop
  endfacet
  facet normal 0 -1 0
    outer loop
      vertex -32.5 5.5 11
      vertex -30.1168 5.5 8.1697
      vertex -29.7374 5.5 8.73744
    endloop
  endfacet
  facet normal 0 -1 0
    outer loop
      vertex -32.5 5.5 11
      vertex -30.25 5.5 7.5
      vertex -30.1168 5.5 8.1697
    endloop
  endfacet
  facet normal 0 -1 0
    outer loop
      vertex -32.5 5.5 4
      vertex -30.25 5.5 7.5
      vertex -32.5 5.5 11
    endloop
  endfacet
  facet normal 0 -1 0
    outer loop
      vertex -32.5 5.5 4
      vertex -28.9353 5.5 5.83659
      vertex -29.1697 5.5 5.88321
    endloop
  endfacet
  facet normal 0 -1 -0
    outer loop
      vertex -28.9353 5.5 5.83659
      vertex -32.5 5.5 4
      vertex -28.5 5.5 5.75
    endloop
  endfacet
  facet normal 0 -1 -0
    outer loop
      vertex -29.7374 5.5 6.26256
      vertex -32.5 5.5 4
      vertex -29.1697 5.5 5.88321
    endloop
  endfacet
  facet normal 0 -1 -0
    outer loop
      vertex -30.1168 5.5 6.8303
      vertex -32.5 5.5 4
      vertex -29.7374 5.5 6.26256
    endloop
  endfacet
  facet normal 0 -1 -0
    outer loop
      vertex -30.25 5.5 7.5
      vertex -32.5 5.5 4
      vertex -30.1168 5.5 6.8303
    endloop
  endfacet
  facet normal 0 -1 0
    outer loop
      vertex -27.8303 5.5 9.11679
      vertex -32.5 5.5 11
      vertex -28.2656 5.5 9.20338
    endloop
  endfacet
  facet normal 0 -1 0
    outer loop
      vertex -32.5 5.5 11
      vertex -27.8303 5.5 9.11679
      vertex -12 5.5 11
    endloop
  endfacet
  facet normal 0 -1 0
    outer loop
      vertex -27.2626 5.5 8.73744
      vertex -12 5.5 11
      vertex -27.8303 5.5 9.11679
    endloop
  endfacet
  facet normal 0 -1 0
    outer loop
      vertex -26.8832 5.5 8.1697
      vertex -12 5.5 11
      vertex -27.2626 5.5 8.73744
    endloop
  endfacet
  facet normal 0 -1 0
    outer loop
      vertex -26.75 5.5 7.5
      vertex -12 5.5 11
      vertex -26.8832 5.5 8.1697
    endloop
  endfacet
  facet normal 0 -1 0
    outer loop
      vertex -12 5.5 4
      vertex -26.75 5.5 7.5
      vertex -26.8832 5.5 6.8303
    endloop
  endfacet
  facet normal 0 -1 0
    outer loop
      vertex -12 5.5 4
      vertex -26.8832 5.5 6.8303
      vertex -27.2626 5.5 6.26256
    endloop
  endfacet
  facet normal 0 -1 0
    outer loop
      vertex -12 5.5 4
      vertex -27.2626 5.5 6.26256
      vertex -27.8303 5.5 5.88321
    endloop
  endfacet
  facet normal 0 -1 0
    outer loop
      vertex -32.5 5.5 4
      vertex -28.0647 5.5 5.83659
      vertex -28.5 5.5 5.75
    endloop
  endfacet
  facet normal 0 -1 -0
    outer loop
      vertex -28.0647 5.5 5.83659
      vertex -32.5 5.5 4
      vertex -27.8303 5.5 5.88321
    endloop
  endfacet
  facet normal 0 -1 0
    outer loop
      vertex -12 5.5 4
      vertex -27.8303 5.5 5.88321
      vertex -32.5 5.5 4
    endloop
  endfacet
  facet normal 0 -1 0
    outer loop
      vertex -26.75 5.5 7.5
      vertex -12 5.5 4
      vertex -12 5.5 11
    endloop
  endfacet
  facet normal 0 -1 0
    outer loop
      vertex 12 5.5 11
      vertex 20.7 5.5 9.25
      vertex 25.5 5.5 11
    endloop
  endfacet
  facet normal 0 -1 0
    outer loop
      vertex 12 5.5 11
      vertex 20.4656 5.5 9.20338
      vertex 20.7 5.5 9.25
    endloop
  endfacet
  facet normal 0 -1 0
    outer loop
      vertex 12 5.5 11
      vertex 20.0303 5.5 9.11679
      vertex 20.4656 5.5 9.20338
    endloop
  endfacet
  facet normal 0 -1 0
    outer loop
      vertex 12 5.5 11
      vertex 19.4626 5.5 8.73744
      vertex 20.0303 5.5 9.11679
    endloop
  endfacet
  facet normal 0 -1 0
    outer loop
      vertex 12 5.5 11
      vertex 19.0832 5.5 8.1697
      vertex 19.4626 5.5 8.73744
    endloop
  endfacet
  facet normal 0 -1 0
    outer loop
      vertex 12 5.5 11
      vertex 18.95 5.5 7.5
      vertex 19.0832 5.5 8.1697
    endloop
  endfacet
  facet normal 0 -1 0
    outer loop
      vertex 12 5.5 4
      vertex 18.95 5.5 7.5
      vertex 12 5.5 11
    endloop
  endfacet
  facet normal 0 -1 -0
    outer loop
      vertex 18.95 5.5 7.5
      vertex 12 5.5 4
      vertex 19.0832 5.5 6.8303
    endloop
  endfacet
  facet normal 0 -1 -0
    outer loop
      vertex 19.0832 5.5 6.8303
      vertex 12 5.5 4
      vertex 19.4626 5.5 6.26256
    endloop
  endfacet
  facet normal 0 -1 0
    outer loop
      vertex 12 5.5 4
      vertex 20.2647 5.5 5.83659
      vertex 20.0303 5.5 5.88321
    endloop
  endfacet
  facet normal 0 -1 -0
    outer loop
      vertex 20.2647 5.5 5.83659
      vertex 12 5.5 4
      vertex 20.7 5.5 5.75
    endloop
  endfacet
  facet normal 0 -1 -0
    outer loop
      vertex 19.4626 5.5 6.26256
      vertex 12 5.5 4
      vertex 20.0303 5.5 5.88321
    endloop
  endfacet
  facet normal 0 -1 0
    outer loop
      vertex 20.9344 5.5 9.20338
      vertex 25.5 5.5 11
      vertex 20.7 5.5 9.25
    endloop
  endfacet
  facet normal 0 -1 0
    outer loop
      vertex 21.3697 5.5 9.11679
      vertex 25.5 5.5 11
      vertex 20.9344 5.5 9.20338
    endloop
  endfacet
  facet normal 0 -1 0
    outer loop
      vertex 21.9374 5.5 8.73744
      vertex 25.5 5.5 11
      vertex 21.3697 5.5 9.11679
    endloop
  endfacet
  facet normal 0 -1 0
    outer loop
      vertex 22.3168 5.5 8.1697
      vertex 25.5 5.5 11
      vertex 21.9374 5.5 8.73744
    endloop
  endfacet
  facet normal 0 -1 0
    outer loop
      vertex 22.45 5.5 7.5
      vertex 25.5 5.5 11
      vertex 22.3168 5.5 8.1697
    endloop
  endfacet
  facet normal 0 -1 0
    outer loop
      vertex 25.5 5.5 4
      vertex 22.45 5.5 7.5
      vertex 22.3168 5.5 6.8303
    endloop
  endfacet
  facet normal 0 -1 0
    outer loop
      vertex 25.5 5.5 4
      vertex 22.3168 5.5 6.8303
      vertex 21.9374 5.5 6.26256
    endloop
  endfacet
  facet normal 0 -1 0
    outer loop
      vertex 25.5 5.5 4
      vertex 21.1353 5.5 5.83659
      vertex 20.7 5.5 5.75
    endloop
  endfacet
  facet normal 0 -1 0
    outer loop
      vertex 25.5 5.5 4
      vertex 20.7 5.5 5.75
      vertex 12 5.5 4
    endloop
  endfacet
  facet normal 0 -1 0
    outer loop
      vertex 22.45 5.5 7.5
      vertex 25.5 5.5 4
      vertex 25.5 5.5 11
    endloop
  endfacet
  facet normal 0 -1 0
    outer loop
      vertex 21.3697 5.5 5.88321
      vertex 25.5 5.5 4
      vertex 21.9374 5.5 6.26256
    endloop
  endfacet
  facet normal 0 -1 0
    outer loop
      vertex 21.1353 5.5 5.83659
      vertex 25.5 5.5 4
      vertex 21.3697 5.5 5.88321
    endloop
  endfacet
  facet normal 0 -0.765362 0.6436
    outer loop
      vertex -12 -3.75 0
      vertex 12 5.5 11
      vertex -12 5.5 11
    endloop
  endfacet
  facet normal 0 -0.765362 0.6436
    outer loop
      vertex 12 5.5 11
      vertex -12 -3.75 0
      vertex 12 -3.75 0
    endloop
  endfacet
  facet normal -1 0 0
    outer loop
      vertex -12 3.75 0
      vertex -12 -3.75 0
      vertex -12 3.75 2
    endloop
  endfacet
  facet normal -1 0 0
    outer loop
      vertex -12 7.14286 2
      vertex -12 5.5 4
      vertex -12 8.5 4
    endloop
  endfacet
  facet normal -1 0 0
    outer loop
      vertex -12 3.75 2
      vertex -12 5.5 4
      vertex -12 7.14286 2
    endloop
  endfacet
  facet normal -1 0 0
    outer loop
      vertex -12 3.75 2
      vertex -12 5.5 11
      vertex -12 5.5 4
    endloop
  endfacet
  facet normal -1 0 0
    outer loop
      vertex -12 5.5 11
      vertex -12 3.75 2
      vertex -12 -3.75 0
    endloop
  endfacet
  facet normal 0 0.827476 -0.561501
    outer loop
      vertex 12 7.14286 2
      vertex -12 8.5 4
      vertex 12 8.5 4
    endloop
  endfacet
  facet normal 0 0.827476 -0.561501
    outer loop
      vertex -12 8.5 4
      vertex 12 7.14286 2
      vertex -12 7.14286 2
    endloop
  endfacet
  facet normal 1 0 0
    outer loop
      vertex 12 5.5 11
      vertex 12 3.75 2
      vertex 12 5.5 4
    endloop
  endfacet
  facet normal 1 0 0
    outer loop
      vertex 12 3.75 2
      vertex 12 -3.75 0
      vertex 12 3.75 0
    endloop
  endfacet
  facet normal 1 0 0
    outer loop
      vertex 12 -3.75 0
      vertex 12 3.75 2
      vertex 12 5.5 11
    endloop
  endfacet
  facet normal 1 -0 0
    outer loop
      vertex 12 5.5 4
      vertex 12 7.14286 2
      vertex 12 8.5 4
    endloop
  endfacet
  facet normal 1 0 0
    outer loop
      vertex 12 7.14286 2
      vertex 12 5.5 4
      vertex 12 3.75 2
    endloop
  endfacet
  facet normal -0.980785 0 -0.195091
    outer loop
      vertex 22.45 5.5 7.5
      vertex 22.3168 8.5 8.1697
      vertex 22.45 8.5 7.5
    endloop
  endfacet
  facet normal -0.980785 -0 -0.195091
    outer loop
      vertex 22.3168 8.5 8.1697
      vertex 22.45 5.5 7.5
      vertex 22.3168 5.5 8.1697
    endloop
  endfacet
  facet normal -0.195092 -3.11783e-007 -0.980785
    outer loop
      vertex 20.7 8.5 9.25
      vertex 20.9344 5.5 9.20338
      vertex 20.7 5.5 9.25
    endloop
  endfacet
  facet normal -0.195088 -1.90821e-008 -0.980786
    outer loop
      vertex 20.9344 5.5 9.20338
      vertex 20.7 8.5 9.25
      vertex 21.1353 8.5 9.16341
    endloop
  endfacet
  facet normal 0.980785 0 -0.195091
    outer loop
      vertex 19.0832 5.5 8.1697
      vertex 18.95 8.5 7.5
      vertex 19.0832 8.5 8.1697
    endloop
  endfacet
  facet normal 0.980785 0 -0.195091
    outer loop
      vertex 18.95 8.5 7.5
      vertex 19.0832 5.5 8.1697
      vertex 18.95 5.5 7.5
    endloop
  endfacet
  facet normal 0.195091 1.15016e-007 0.980785
    outer loop
      vertex 20.0303 8.5 5.88321
      vertex 20.2647 5.5 5.83659
      vertex 20.4656 8.5 5.79662
    endloop
  endfacet
  facet normal 0.19509 0 0.980785
    outer loop
      vertex 20.2647 5.5 5.83659
      vertex 20.0303 8.5 5.88321
      vertex 20.0303 5.5 5.88321
    endloop
  endfacet
  facet normal 0.195089 0 0.980785
    outer loop
      vertex 20.4656 8.5 5.79662
      vertex 20.7 5.5 5.75
      vertex 20.7 8.5 5.75
    endloop
  endfacet
  facet normal 0.195091 1.29719e-007 0.980785
    outer loop
      vertex 20.7 5.5 5.75
      vertex 20.4656 8.5 5.79662
      vertex 20.2647 5.5 5.83659
    endloop
  endfacet
  facet normal 0.831469 0 -0.555571
    outer loop
      vertex 19.4626 5.5 8.73744
      vertex 19.0832 8.5 8.1697
      vertex 19.4626 8.5 8.73744
    endloop
  endfacet
  facet normal 0.831469 0 -0.555571
    outer loop
      vertex 19.0832 8.5 8.1697
      vertex 19.4626 5.5 8.73744
      vertex 19.0832 5.5 8.1697
    endloop
  endfacet
  facet normal 0.195093 -3.11783e-007 -0.980785
    outer loop
      vertex 20.4656 5.5 9.20338
      vertex 20.7 8.5 9.25
      vertex 20.7 5.5 9.25
    endloop
  endfacet
  facet normal 0.195089 3.81643e-008 -0.980786
    outer loop
      vertex 20.7 8.5 9.25
      vertex 20.4656 5.5 9.20338
      vertex 20.2647 8.5 9.16341
    endloop
  endfacet
  facet normal -0.55557 0 -0.83147
    outer loop
      vertex 21.3697 5.5 9.11679
      vertex 21.9374 8.5 8.73744
      vertex 21.9374 5.5 8.73744
    endloop
  endfacet
  facet normal -0.55557 0 -0.83147
    outer loop
      vertex 21.9374 8.5 8.73744
      vertex 21.3697 5.5 9.11679
      vertex 21.3697 8.5 9.11679
    endloop
  endfacet
  facet normal -0.195092 0 -0.980785
    outer loop
      vertex 21.3697 5.5 9.11679
      vertex 21.1353 8.5 9.16341
      vertex 21.3697 8.5 9.11679
    endloop
  endfacet
  facet normal -0.19509 1.24818e-007 -0.980785
    outer loop
      vertex 21.1353 8.5 9.16341
      vertex 21.3697 5.5 9.11679
      vertex 20.9344 5.5 9.20338
    endloop
  endfacet
  facet normal -0.831471 0 -0.555569
    outer loop
      vertex 22.3168 5.5 8.1697
      vertex 21.9374 8.5 8.73744
      vertex 22.3168 8.5 8.1697
    endloop
  endfacet
  facet normal -0.831471 -0 -0.555569
    outer loop
      vertex 21.9374 8.5 8.73744
      vertex 22.3168 5.5 8.1697
      vertex 21.9374 5.5 8.73744
    endloop
  endfacet
  facet normal 0.55557 0 0.83147
    outer loop
      vertex 19.4626 8.5 6.26256
      vertex 20.0303 5.5 5.88321
      vertex 20.0303 8.5 5.88321
    endloop
  endfacet
  facet normal 0.55557 0 0.83147
    outer loop
      vertex 20.0303 5.5 5.88321
      vertex 19.4626 8.5 6.26256
      vertex 19.4626 5.5 6.26256
    endloop
  endfacet
  facet normal 0.980785 -0 0.195091
    outer loop
      vertex 18.95 5.5 7.5
      vertex 19.0832 8.5 6.8303
      vertex 18.95 8.5 7.5
    endloop
  endfacet
  facet normal 0.980785 0 0.195091
    outer loop
      vertex 19.0832 8.5 6.8303
      vertex 18.95 5.5 7.5
      vertex 19.0832 5.5 6.8303
    endloop
  endfacet
  facet normal -0.19509 0 0.980785
    outer loop
      vertex 21.3697 8.5 5.88321
      vertex 21.1353 5.5 5.83659
      vertex 21.3697 5.5 5.88321
    endloop
  endfacet
  facet normal -0.195091 1.15016e-007 0.980785
    outer loop
      vertex 21.1353 5.5 5.83659
      vertex 21.3697 8.5 5.88321
      vertex 20.9344 8.5 5.79662
    endloop
  endfacet
  facet normal -0.55557 0 0.83147
    outer loop
      vertex 21.3697 8.5 5.88321
      vertex 21.9374 5.5 6.26256
      vertex 21.9374 8.5 6.26256
    endloop
  endfacet
  facet normal -0.55557 0 0.83147
    outer loop
      vertex 21.9374 5.5 6.26256
      vertex 21.3697 8.5 5.88321
      vertex 21.3697 5.5 5.88321
    endloop
  endfacet
  facet normal -0.831471 0 0.555569
    outer loop
      vertex 21.9374 5.5 6.26256
      vertex 22.3168 8.5 6.8303
      vertex 21.9374 8.5 6.26256
    endloop
  endfacet
  facet normal -0.831471 0 0.555569
    outer loop
      vertex 22.3168 8.5 6.8303
      vertex 21.9374 5.5 6.26256
      vertex 22.3168 5.5 6.8303
    endloop
  endfacet
  facet normal 0.831469 -0 0.555571
    outer loop
      vertex 19.0832 5.5 6.8303
      vertex 19.4626 8.5 6.26256
      vertex 19.0832 8.5 6.8303
    endloop
  endfacet
  facet normal 0.831469 0 0.555571
    outer loop
      vertex 19.4626 8.5 6.26256
      vertex 19.0832 5.5 6.8303
      vertex 19.4626 5.5 6.26256
    endloop
  endfacet
  facet normal -0.195088 0 0.980786
    outer loop
      vertex 20.7 5.5 5.75
      vertex 20.9344 8.5 5.79662
      vertex 20.7 8.5 5.75
    endloop
  endfacet
  facet normal -0.19509 1.86966e-007 0.980785
    outer loop
      vertex 20.9344 8.5 5.79662
      vertex 20.7 5.5 5.75
      vertex 21.1353 5.5 5.83659
    endloop
  endfacet
  facet normal -0.980785 0 0.195091
    outer loop
      vertex 22.3168 5.5 6.8303
      vertex 22.45 8.5 7.5
      vertex 22.3168 8.5 6.8303
    endloop
  endfacet
  facet normal -0.980785 0 0.195091
    outer loop
      vertex 22.45 8.5 7.5
      vertex 22.3168 5.5 6.8303
      vertex 22.45 5.5 7.5
    endloop
  endfacet
  facet normal 0.19509 1.24818e-007 -0.980785
    outer loop
      vertex 20.0303 5.5 9.11679
      vertex 20.2647 8.5 9.16341
      vertex 20.4656 5.5 9.20338
    endloop
  endfacet
  facet normal 0.195092 0 -0.980785
    outer loop
      vertex 20.2647 8.5 9.16341
      vertex 20.0303 5.5 9.11679
      vertex 20.0303 8.5 9.11679
    endloop
  endfacet
  facet normal 0.55557 0 -0.83147
    outer loop
      vertex 19.4626 5.5 8.73744
      vertex 20.0303 8.5 9.11679
      vertex 20.0303 5.5 9.11679
    endloop
  endfacet
  facet normal 0.55557 0 -0.83147
    outer loop
      vertex 20.0303 8.5 9.11679
      vertex 19.4626 5.5 8.73744
      vertex 19.4626 8.5 8.73744
    endloop
  endfacet
  facet normal -0.980785 0 -0.195091
    outer loop
      vertex -26.75 5.5 7.5
      vertex -26.8832 8.5 8.1697
      vertex -26.75 8.5 7.5
    endloop
  endfacet
  facet normal -0.980785 -0 -0.195091
    outer loop
      vertex -26.8832 8.5 8.1697
      vertex -26.75 5.5 7.5
      vertex -26.8832 5.5 8.1697
    endloop
  endfacet
  facet normal -0.195092 -3.11783e-007 -0.980785
    outer loop
      vertex -28.5 8.5 9.25
      vertex -28.2656 5.5 9.20338
      vertex -28.5 5.5 9.25
    endloop
  endfacet
  facet normal -0.195088 -1.90821e-008 -0.980786
    outer loop
      vertex -28.2656 5.5 9.20338
      vertex -28.5 8.5 9.25
      vertex -28.0647 8.5 9.16341
    endloop
  endfacet
  facet normal -0.831471 0 -0.555569
    outer loop
      vertex -26.8832 5.5 8.1697
      vertex -27.2626 8.5 8.73744
      vertex -26.8832 8.5 8.1697
    endloop
  endfacet
  facet normal -0.831471 -0 -0.555569
    outer loop
      vertex -27.2626 8.5 8.73744
      vertex -26.8832 5.5 8.1697
      vertex -27.2626 5.5 8.73744
    endloop
  endfacet
  facet normal -0.195088 0 0.980786
    outer loop
      vertex -28.5 5.5 5.75
      vertex -28.2656 8.5 5.79662
      vertex -28.5 8.5 5.75
    endloop
  endfacet
  facet normal -0.19509 1.86966e-007 0.980785
    outer loop
      vertex -28.2656 8.5 5.79662
      vertex -28.5 5.5 5.75
      vertex -28.0647 5.5 5.83659
    endloop
  endfacet
  facet normal 0.55557 0 -0.83147
    outer loop
      vertex -29.7374 5.5 8.73744
      vertex -29.1697 8.5 9.11679
      vertex -29.1697 5.5 9.11679
    endloop
  endfacet
  facet normal 0.55557 0 -0.83147
    outer loop
      vertex -29.1697 8.5 9.11679
      vertex -29.7374 5.5 8.73744
      vertex -29.7374 8.5 8.73744
    endloop
  endfacet
  facet normal 0.19509 1.24818e-007 -0.980785
    outer loop
      vertex -29.1697 5.5 9.11679
      vertex -28.9353 8.5 9.16341
      vertex -28.7344 5.5 9.20338
    endloop
  endfacet
  facet normal 0.195092 0 -0.980785
    outer loop
      vertex -28.9353 8.5 9.16341
      vertex -29.1697 5.5 9.11679
      vertex -29.1697 8.5 9.11679
    endloop
  endfacet
  facet normal 0.195093 -3.11783e-007 -0.980785
    outer loop
      vertex -28.7344 5.5 9.20338
      vertex -28.5 8.5 9.25
      vertex -28.5 5.5 9.25
    endloop
  endfacet
  facet normal 0.195089 3.81643e-008 -0.980786
    outer loop
      vertex -28.5 8.5 9.25
      vertex -28.7344 5.5 9.20338
      vertex -28.9353 8.5 9.16341
    endloop
  endfacet
  facet normal -0.55557 0 -0.83147
    outer loop
      vertex -27.8303 5.5 9.11679
      vertex -27.2626 8.5 8.73744
      vertex -27.2626 5.5 8.73744
    endloop
  endfacet
  facet normal -0.55557 0 -0.83147
    outer loop
      vertex -27.2626 8.5 8.73744
      vertex -27.8303 5.5 9.11679
      vertex -27.8303 8.5 9.11679
    endloop
  endfacet
  facet normal -0.195092 0 -0.980785
    outer loop
      vertex -27.8303 5.5 9.11679
      vertex -28.0647 8.5 9.16341
      vertex -27.8303 8.5 9.11679
    endloop
  endfacet
  facet normal -0.19509 1.24818e-007 -0.980785
    outer loop
      vertex -28.0647 8.5 9.16341
      vertex -27.8303 5.5 9.11679
      vertex -28.2656 5.5 9.20338
    endloop
  endfacet
  facet normal 0.55557 0 0.83147
    outer loop
      vertex -29.7374 8.5 6.26256
      vertex -29.1697 5.5 5.88321
      vertex -29.1697 8.5 5.88321
    endloop
  endfacet
  facet normal 0.55557 0 0.83147
    outer loop
      vertex -29.1697 5.5 5.88321
      vertex -29.7374 8.5 6.26256
      vertex -29.7374 5.5 6.26256
    endloop
  endfacet
  facet normal 0.195091 1.15016e-007 0.980785
    outer loop
      vertex -29.1697 8.5 5.88321
      vertex -28.9353 5.5 5.83659
      vertex -28.7344 8.5 5.79662
    endloop
  endfacet
  facet normal 0.19509 0 0.980785
    outer loop
      vertex -28.9353 5.5 5.83659
      vertex -29.1697 8.5 5.88321
      vertex -29.1697 5.5 5.88321
    endloop
  endfacet
  facet normal -0.19509 0 0.980785
    outer loop
      vertex -27.8303 8.5 5.88321
      vertex -28.0647 5.5 5.83659
      vertex -27.8303 5.5 5.88321
    endloop
  endfacet
  facet normal -0.195091 1.15016e-007 0.980785
    outer loop
      vertex -28.0647 5.5 5.83659
      vertex -27.8303 8.5 5.88321
      vertex -28.2656 8.5 5.79662
    endloop
  endfacet
  facet normal -0.55557 0 0.83147
    outer loop
      vertex -27.8303 8.5 5.88321
      vertex -27.2626 5.5 6.26256
      vertex -27.2626 8.5 6.26256
    endloop
  endfacet
  facet normal -0.55557 0 0.83147
    outer loop
      vertex -27.2626 5.5 6.26256
      vertex -27.8303 8.5 5.88321
      vertex -27.8303 5.5 5.88321
    endloop
  endfacet
  facet normal 0.980785 0 -0.195091
    outer loop
      vertex -30.1168 5.5 8.1697
      vertex -30.25 8.5 7.5
      vertex -30.1168 8.5 8.1697
    endloop
  endfacet
  facet normal 0.980785 0 -0.195091
    outer loop
      vertex -30.25 8.5 7.5
      vertex -30.1168 5.5 8.1697
      vertex -30.25 5.5 7.5
    endloop
  endfacet
  facet normal 0.831469 0 -0.555571
    outer loop
      vertex -29.7374 5.5 8.73744
      vertex -30.1168 8.5 8.1697
      vertex -29.7374 8.5 8.73744
    endloop
  endfacet
  facet normal 0.831469 0 -0.555571
    outer loop
      vertex -30.1168 8.5 8.1697
      vertex -29.7374 5.5 8.73744
      vertex -30.1168 5.5 8.1697
    endloop
  endfacet
  facet normal 0.195089 0 0.980785
    outer loop
      vertex -28.7344 8.5 5.79662
      vertex -28.5 5.5 5.75
      vertex -28.5 8.5 5.75
    endloop
  endfacet
  facet normal 0.195091 1.29719e-007 0.980785
    outer loop
      vertex -28.5 5.5 5.75
      vertex -28.7344 8.5 5.79662
      vertex -28.9353 5.5 5.83659
    endloop
  endfacet
  facet normal -0.831471 0 0.555569
    outer loop
      vertex -27.2626 5.5 6.26256
      vertex -26.8832 8.5 6.8303
      vertex -27.2626 8.5 6.26256
    endloop
  endfacet
  facet normal -0.831471 0 0.555569
    outer loop
      vertex -26.8832 8.5 6.8303
      vertex -27.2626 5.5 6.26256
      vertex -26.8832 5.5 6.8303
    endloop
  endfacet
  facet normal -0.980785 0 0.195091
    outer loop
      vertex -26.8832 5.5 6.8303
      vertex -26.75 8.5 7.5
      vertex -26.8832 8.5 6.8303
    endloop
  endfacet
  facet normal -0.980785 0 0.195091
    outer loop
      vertex -26.75 8.5 7.5
      vertex -26.8832 5.5 6.8303
      vertex -26.75 5.5 7.5
    endloop
  endfacet
  facet normal 0.980785 -0 0.195091
    outer loop
      vertex -30.25 5.5 7.5
      vertex -30.1168 8.5 6.8303
      vertex -30.25 8.5 7.5
    endloop
  endfacet
  facet normal 0.980785 0 0.195091
    outer loop
      vertex -30.1168 8.5 6.8303
      vertex -30.25 5.5 7.5
      vertex -30.1168 5.5 6.8303
    endloop
  endfacet
  facet normal 0.831469 -0 0.555571
    outer loop
      vertex -30.1168 5.5 6.8303
      vertex -29.7374 8.5 6.26256
      vertex -30.1168 8.5 6.8303
    endloop
  endfacet
  facet normal 0.831469 0 0.555571
    outer loop
      vertex -29.7374 8.5 6.26256
      vertex -30.1168 5.5 6.8303
      vertex -29.7374 5.5 6.26256
    endloop
  endfacet
  facet normal -0.980785 -0.195091 0
    outer loop
      vertex 18 0 -3
      vertex 17.8668 0.669696 0
      vertex 17.8668 0.669696 -3
    endloop
  endfacet
  facet normal -0.980785 -0.195091 0
    outer loop
      vertex 17.8668 0.669696 0
      vertex 18 0 -3
      vertex 18 0 0
    endloop
  endfacet
  facet normal 0.195091 -0.980785 0
    outer loop
      vertex 15.5803 1.61679 -3
      vertex 16.25 1.75 0
      vertex 15.5803 1.61679 0
    endloop
  endfacet
  facet normal 0.195091 -0.980785 0
    outer loop
      vertex 16.25 1.75 0
      vertex 15.5803 1.61679 -3
      vertex 16.25 1.75 -3
    endloop
  endfacet
  facet normal -0.195091 0.980785 0
    outer loop
      vertex 16.9197 -1.61679 -3
      vertex 16.25 -1.75 0
      vertex 16.9197 -1.61679 0
    endloop
  endfacet
  facet normal -0.195091 0.980785 0
    outer loop
      vertex 16.25 -1.75 0
      vertex 16.9197 -1.61679 -3
      vertex 16.25 -1.75 -3
    endloop
  endfacet
  facet normal -0.555571 -0.831469 0
    outer loop
      vertex 16.9197 1.61679 -3
      vertex 17.4874 1.23744 0
      vertex 16.9197 1.61679 0
    endloop
  endfacet
  facet normal -0.555571 -0.831469 -0
    outer loop
      vertex 17.4874 1.23744 0
      vertex 16.9197 1.61679 -3
      vertex 17.4874 1.23744 -3
    endloop
  endfacet
  facet normal -0.831469 -0.555571 0
    outer loop
      vertex 17.8668 0.669696 -3
      vertex 17.4874 1.23744 0
      vertex 17.4874 1.23744 -3
    endloop
  endfacet
  facet normal -0.831469 -0.555571 0
    outer loop
      vertex 17.4874 1.23744 0
      vertex 17.8668 0.669696 -3
      vertex 17.8668 0.669696 0
    endloop
  endfacet
  facet normal -0.195091 -0.980785 0
    outer loop
      vertex 16.25 1.75 -3
      vertex 16.9197 1.61679 0
      vertex 16.25 1.75 0
    endloop
  endfacet
  facet normal -0.195091 -0.980785 -0
    outer loop
      vertex 16.9197 1.61679 0
      vertex 16.25 1.75 -3
      vertex 16.9197 1.61679 -3
    endloop
  endfacet
  facet normal 0.831469 -0.555571 0
    outer loop
      vertex 14.6332 0.669696 0
      vertex 15.0126 1.23744 -3
      vertex 15.0126 1.23744 0
    endloop
  endfacet
  facet normal 0.831469 -0.555571 0
    outer loop
      vertex 15.0126 1.23744 -3
      vertex 14.6332 0.669696 0
      vertex 14.6332 0.669696 -3
    endloop
  endfacet
  facet normal 0.980785 -0.195089 0
    outer loop
      vertex 14.5 0 0
      vertex 14.6332 0.669696 -3
      vertex 14.6332 0.669696 0
    endloop
  endfacet
  facet normal 0.980785 -0.195089 0
    outer loop
      vertex 14.6332 0.669696 -3
      vertex 14.5 0 0
      vertex 14.5 0 -3
    endloop
  endfacet
  facet normal 0.555571 -0.831469 0
    outer loop
      vertex 15.0126 1.23744 -3
      vertex 15.5803 1.61679 0
      vertex 15.0126 1.23744 0
    endloop
  endfacet
  facet normal 0.555571 -0.831469 0
    outer loop
      vertex 15.5803 1.61679 0
      vertex 15.0126 1.23744 -3
      vertex 15.5803 1.61679 -3
    endloop
  endfacet
  facet normal -0.980785 0.195091 0
    outer loop
      vertex 17.8668 -0.669696 -3
      vertex 18 0 0
      vertex 18 0 -3
    endloop
  endfacet
  facet normal -0.980785 0.195091 0
    outer loop
      vertex 18 0 0
      vertex 17.8668 -0.669696 -3
      vertex 17.8668 -0.669696 0
    endloop
  endfacet
  facet normal 0.980785 0.195089 0
    outer loop
      vertex 14.6332 -0.669696 0
      vertex 14.5 0 -3
      vertex 14.5 0 0
    endloop
  endfacet
  facet normal 0.980785 0.195089 0
    outer loop
      vertex 14.5 0 -3
      vertex 14.6332 -0.669696 0
      vertex 14.6332 -0.669696 -3
    endloop
  endfacet
  facet normal -0.555571 0.831469 0
    outer loop
      vertex 17.4874 -1.23744 -3
      vertex 16.9197 -1.61679 0
      vertex 17.4874 -1.23744 0
    endloop
  endfacet
  facet normal -0.555571 0.831469 0
    outer loop
      vertex 16.9197 -1.61679 0
      vertex 17.4874 -1.23744 -3
      vertex 16.9197 -1.61679 -3
    endloop
  endfacet
  facet normal 0.195091 0.980785 -0
    outer loop
      vertex 16.25 -1.75 -3
      vertex 15.5803 -1.61679 0
      vertex 16.25 -1.75 0
    endloop
  endfacet
  facet normal 0.195091 0.980785 0
    outer loop
      vertex 15.5803 -1.61679 0
      vertex 16.25 -1.75 -3
      vertex 15.5803 -1.61679 -3
    endloop
  endfacet
  facet normal -0.831469 0.555571 0
    outer loop
      vertex 17.4874 -1.23744 -3
      vertex 17.8668 -0.669696 0
      vertex 17.8668 -0.669696 -3
    endloop
  endfacet
  facet normal -0.831469 0.555571 0
    outer loop
      vertex 17.8668 -0.669696 0
      vertex 17.4874 -1.23744 -3
      vertex 17.4874 -1.23744 0
    endloop
  endfacet
  facet normal 0.555571 0.831469 -0
    outer loop
      vertex 15.5803 -1.61679 -3
      vertex 15.0126 -1.23744 0
      vertex 15.5803 -1.61679 0
    endloop
  endfacet
  facet normal 0.555571 0.831469 0
    outer loop
      vertex 15.0126 -1.23744 0
      vertex 15.5803 -1.61679 -3
      vertex 15.0126 -1.23744 -3
    endloop
  endfacet
  facet normal 0.831469 0.555571 0
    outer loop
      vertex 15.0126 -1.23744 0
      vertex 14.6332 -0.669696 -3
      vertex 14.6332 -0.669696 0
    endloop
  endfacet
  facet normal 0.831469 0.555571 0
    outer loop
      vertex 14.6332 -0.669696 -3
      vertex 15.0126 -1.23744 0
      vertex 15.0126 -1.23744 -3
    endloop
  endfacet
  facet normal -0.980785 -0.195089 0
    outer loop
      vertex -14.5 0 -3
      vertex -14.6332 0.669696 0
      vertex -14.6332 0.669696 -3
    endloop
  endfacet
  facet normal -0.980785 -0.195089 0
    outer loop
      vertex -14.6332 0.669696 0
      vertex -14.5 0 -3
      vertex -14.5 0 0
    endloop
  endfacet
  facet normal 0.980785 -0.195091 0
    outer loop
      vertex -18 0 0
      vertex -17.8668 0.669696 -3
      vertex -17.8668 0.669696 0
    endloop
  endfacet
  facet normal 0.980785 -0.195091 0
    outer loop
      vertex -17.8668 0.669696 -3
      vertex -18 0 0
      vertex -18 0 -3
    endloop
  endfacet
  facet normal -0.195091 -0.980785 0
    outer loop
      vertex -16.25 1.75 -3
      vertex -15.5803 1.61679 0
      vertex -16.25 1.75 0
    endloop
  endfacet
  facet normal -0.195091 -0.980785 -0
    outer loop
      vertex -15.5803 1.61679 0
      vertex -16.25 1.75 -3
      vertex -15.5803 1.61679 -3
    endloop
  endfacet
  facet normal 0.195091 0.980785 -0
    outer loop
      vertex -16.25 -1.75 -3
      vertex -16.9197 -1.61679 0
      vertex -16.25 -1.75 0
    endloop
  endfacet
  facet normal 0.195091 0.980785 0
    outer loop
      vertex -16.9197 -1.61679 0
      vertex -16.25 -1.75 -3
      vertex -16.9197 -1.61679 -3
    endloop
  endfacet
  facet normal -0.555571 -0.831469 0
    outer loop
      vertex -15.5803 1.61679 -3
      vertex -15.0126 1.23744 0
      vertex -15.5803 1.61679 0
    endloop
  endfacet
  facet normal -0.555571 -0.831469 -0
    outer loop
      vertex -15.0126 1.23744 0
      vertex -15.5803 1.61679 -3
      vertex -15.0126 1.23744 -3
    endloop
  endfacet
  facet normal -0.831469 -0.555571 0
    outer loop
      vertex -14.6332 0.669696 -3
      vertex -15.0126 1.23744 0
      vertex -15.0126 1.23744 -3
    endloop
  endfacet
  facet normal -0.831469 -0.555571 0
    outer loop
      vertex -15.0126 1.23744 0
      vertex -14.6332 0.669696 -3
      vertex -14.6332 0.669696 0
    endloop
  endfacet
  facet normal 0.555571 -0.831469 0
    outer loop
      vertex -17.4874 1.23744 -3
      vertex -16.9197 1.61679 0
      vertex -17.4874 1.23744 0
    endloop
  endfacet
  facet normal 0.555571 -0.831469 0
    outer loop
      vertex -16.9197 1.61679 0
      vertex -17.4874 1.23744 -3
      vertex -16.9197 1.61679 -3
    endloop
  endfacet
  facet normal 0.831469 -0.555571 0
    outer loop
      vertex -17.8668 0.669696 0
      vertex -17.4874 1.23744 -3
      vertex -17.4874 1.23744 0
    endloop
  endfacet
  facet normal 0.831469 -0.555571 0
    outer loop
      vertex -17.4874 1.23744 -3
      vertex -17.8668 0.669696 0
      vertex -17.8668 0.669696 -3
    endloop
  endfacet
  facet normal 0.195091 -0.980785 0
    outer loop
      vertex -16.9197 1.61679 -3
      vertex -16.25 1.75 0
      vertex -16.9197 1.61679 0
    endloop
  endfacet
  facet normal 0.195091 -0.980785 0
    outer loop
      vertex -16.25 1.75 0
      vertex -16.9197 1.61679 -3
      vertex -16.25 1.75 -3
    endloop
  endfacet
  facet normal -0.980785 0.195089 0
    outer loop
      vertex -14.6332 -0.669696 -3
      vertex -14.5 0 0
      vertex -14.5 0 -3
    endloop
  endfacet
  facet normal -0.980785 0.195089 0
    outer loop
      vertex -14.5 0 0
      vertex -14.6332 -0.669696 -3
      vertex -14.6332 -0.669696 0
    endloop
  endfacet
  facet normal -0.195091 0.980785 0
    outer loop
      vertex -15.5803 -1.61679 -3
      vertex -16.25 -1.75 0
      vertex -15.5803 -1.61679 0
    endloop
  endfacet
  facet normal -0.195091 0.980785 0
    outer loop
      vertex -16.25 -1.75 0
      vertex -15.5803 -1.61679 -3
      vertex -16.25 -1.75 -3
    endloop
  endfacet
  facet normal -0.831469 0.555571 0
    outer loop
      vertex -15.0126 -1.23744 -3
      vertex -14.6332 -0.669696 0
      vertex -14.6332 -0.669696 -3
    endloop
  endfacet
  facet normal -0.831469 0.555571 0
    outer loop
      vertex -14.6332 -0.669696 0
      vertex -15.0126 -1.23744 -3
      vertex -15.0126 -1.23744 0
    endloop
  endfacet
  facet normal 0.555571 0.831469 -0
    outer loop
      vertex -16.9197 -1.61679 -3
      vertex -17.4874 -1.23744 0
      vertex -16.9197 -1.61679 0
    endloop
  endfacet
  facet normal 0.555571 0.831469 0
    outer loop
      vertex -17.4874 -1.23744 0
      vertex -16.9197 -1.61679 -3
      vertex -17.4874 -1.23744 -3
    endloop
  endfacet
  facet normal 0.980785 0.195091 0
    outer loop
      vertex -17.8668 -0.669696 0
      vertex -18 0 -3
      vertex -18 0 0
    endloop
  endfacet
  facet normal 0.980785 0.195091 0
    outer loop
      vertex -18 0 -3
      vertex -17.8668 -0.669696 0
      vertex -17.8668 -0.669696 -3
    endloop
  endfacet
  facet normal -0.555571 0.831469 0
    outer loop
      vertex -15.0126 -1.23744 -3
      vertex -15.5803 -1.61679 0
      vertex -15.0126 -1.23744 0
    endloop
  endfacet
  facet normal -0.555571 0.831469 0
    outer loop
      vertex -15.5803 -1.61679 0
      vertex -15.0126 -1.23744 -3
      vertex -15.5803 -1.61679 -3
    endloop
  endfacet
  facet normal 0.831469 0.555571 0
    outer loop
      vertex -17.4874 -1.23744 0
      vertex -17.8668 -0.669696 -3
      vertex -17.8668 -0.669696 0
    endloop
  endfacet
  facet normal 0.831469 0.555571 0
    outer loop
      vertex -17.8668 -0.669696 -3
      vertex -17.4874 -1.23744 0
      vertex -17.4874 -1.23744 -3
    endloop
  endfacet
  facet normal 0 0 -1
    outer loop
      vertex -12 3.75 2
      vertex 12 7.14286 2
      vertex 12 3.75 2
    endloop
  endfacet
  facet normal -0 0 -1
    outer loop
      vertex 12 7.14286 2
      vertex -12 3.75 2
      vertex -12 7.14286 2
    endloop
  endfacet
endsolid OpenSCAD_Model
